%TF.GenerationSoftware,KiCad,Pcbnew,(6.0.10)*%
%TF.CreationDate,2023-01-25T23:47:30-05:00*%
%TF.ProjectId,espc4synth,65737063-3473-4796-9e74-682e6b696361,1*%
%TF.SameCoordinates,Original*%
%TF.FileFunction,Copper,L2,Bot*%
%TF.FilePolarity,Positive*%
%FSLAX46Y46*%
G04 Gerber Fmt 4.6, Leading zero omitted, Abs format (unit mm)*
G04 Created by KiCad (PCBNEW (6.0.10)) date 2023-01-25 23:47:30*
%MOMM*%
%LPD*%
G01*
G04 APERTURE LIST*
%TA.AperFunction,ComponentPad*%
%ADD10R,1.700000X1.700000*%
%TD*%
%TA.AperFunction,ComponentPad*%
%ADD11O,1.700000X1.700000*%
%TD*%
%TA.AperFunction,ComponentPad*%
%ADD12O,1.000000X1.600000*%
%TD*%
%TA.AperFunction,ComponentPad*%
%ADD13O,1.000000X2.100000*%
%TD*%
%TA.AperFunction,CastellatedPad*%
%ADD14O,1.000000X2.100000*%
%TD*%
%TA.AperFunction,ComponentPad*%
%ADD15R,0.900000X0.500000*%
%TD*%
%TA.AperFunction,ViaPad*%
%ADD16C,0.800000*%
%TD*%
%TA.AperFunction,Conductor*%
%ADD17C,0.250000*%
%TD*%
%TA.AperFunction,Conductor*%
%ADD18C,0.500000*%
%TD*%
%TA.AperFunction,Conductor*%
%ADD19C,0.200000*%
%TD*%
G04 APERTURE END LIST*
D10*
%TO.P,J2,1,Pin_1*%
%TO.N,/RESET*%
X15500000Y-35500000D03*
D11*
%TO.P,J2,2,Pin_2*%
%TO.N,/GPIO2*%
X15500000Y-38040000D03*
%TO.P,J2,3,Pin_3*%
%TO.N,/GPIO3*%
X15500000Y-40580000D03*
%TO.P,J2,4,Pin_4*%
%TO.N,/GPIO4*%
X15500000Y-43120000D03*
%TO.P,J2,5,Pin_5*%
%TO.N,/GPIO5*%
X15500000Y-45660000D03*
%TO.P,J2,6,Pin_6*%
%TO.N,/GPIO6*%
X15500000Y-48200000D03*
%TO.P,J2,7,Pin_7*%
%TO.N,/GPIO7*%
X15500000Y-50740000D03*
%TO.P,J2,8,Pin_8*%
%TO.N,/GPIO8*%
X15500000Y-53280000D03*
%TO.P,J2,9,Pin_9*%
%TO.N,/GPIO10*%
X15500000Y-55820000D03*
%TO.P,J2,10,Pin_10*%
%TO.N,/BOOT*%
X15500000Y-58360000D03*
%TO.P,J2,11,Pin_11*%
%TO.N,/GPIO20*%
X15500000Y-60900000D03*
%TO.P,J2,12,Pin_12*%
%TO.N,/GPIO21*%
X15500000Y-63440000D03*
%TO.P,J2,13,Pin_13*%
%TO.N,/3p3*%
X15500000Y-65980000D03*
%TO.P,J2,14,Pin_14*%
%TO.N,+3V3*%
X15500000Y-68520000D03*
%TO.P,J2,15,Pin_15*%
%TO.N,/DOUT*%
X15500000Y-71060000D03*
%TO.P,J2,16,Pin_16*%
%TO.N,GND*%
X15500000Y-73600000D03*
%TD*%
D12*
%TO.P,J1,*%
%TO.N,*%
X35470000Y-73424951D03*
D13*
X35470000Y-69244951D03*
D14*
X26830000Y-69244951D03*
D12*
%TO.P,J1,S1,SHIELD*%
%TO.N,unconnected-(J1-PadS1)*%
X26830000Y-73424951D03*
%TD*%
D15*
%TO.P,AE1,2*%
%TO.N,GND*%
X32550000Y-31900000D03*
%TD*%
D16*
%TO.N,GND*%
X18500000Y-70200000D03*
%TO.N,VBUS*%
X33575000Y-66150000D03*
%TO.N,/USBC-*%
X33094622Y-71230378D03*
X31375000Y-71525000D03*
%TO.N,GND*%
X24675000Y-65050000D03*
X21625000Y-51125000D03*
%TO.N,/DOUT*%
X21400000Y-55250000D03*
X18325000Y-62800000D03*
%TO.N,GND*%
X38225000Y-33150000D03*
%TO.N,+3V3*%
X28925000Y-53958333D03*
X26825000Y-57825000D03*
X28925000Y-55666666D03*
X31050000Y-55608332D03*
X26975000Y-52250000D03*
X31025000Y-52275000D03*
X31025000Y-53941666D03*
X28925000Y-52250000D03*
X35956115Y-33724500D03*
X20300000Y-38800000D03*
X17200000Y-35925000D03*
X18200000Y-51990000D03*
X31125000Y-57275000D03*
X25600000Y-58600000D03*
X28925000Y-57375000D03*
%TO.N,/BOOT*%
X24525000Y-67175000D03*
%TO.N,GND*%
X32650000Y-38200000D03*
X36005378Y-61930378D03*
X32700000Y-74050000D03*
X32400000Y-47500000D03*
X18650000Y-72750000D03*
X26600000Y-34574500D03*
X18274500Y-42880064D03*
X35825000Y-63375000D03*
X38125000Y-44500000D03*
X26093649Y-47381753D03*
X27924500Y-63299951D03*
X18372300Y-66922300D03*
X22600000Y-40500000D03*
X21375000Y-34124500D03*
X18300000Y-55675500D03*
X35225000Y-54400000D03*
X22050000Y-37100000D03*
X29400000Y-35250000D03*
X20820454Y-42679546D03*
X35850000Y-49175000D03*
X29950000Y-41200000D03*
%TO.N,/RESET*%
X37400000Y-76300000D03*
%TO.N,VBUS*%
X35725000Y-52700000D03*
X28850000Y-61924951D03*
%TO.N,/3p3*%
X27800000Y-35500000D03*
X24512701Y-39687299D03*
X35749951Y-35224549D03*
X28900000Y-45600000D03*
%TD*%
D17*
%TO.N,/RESET*%
X39475000Y-76050000D02*
G75*
G02*
X39225000Y-76300000I-250000J0D01*
G01*
X15750000Y-34100000D02*
X15750000Y-35500000D01*
X36300000Y-33000000D02*
X16850000Y-33000000D01*
X16850000Y-33000000D02*
X15750000Y-34100000D01*
X39475000Y-36175000D02*
X36300000Y-33000000D01*
X39475000Y-76050000D02*
X39475000Y-36175000D01*
X37400000Y-76300000D02*
X39225000Y-76300000D01*
D18*
%TO.N,+3V3*%
X25600000Y-50675305D02*
X25600000Y-58600000D01*
X34100000Y-42175305D02*
X25600000Y-50675305D01*
X34100000Y-38536828D02*
X34100000Y-42175305D01*
X37561828Y-35075000D02*
X34100000Y-38536828D01*
X20300000Y-36550000D02*
X20300000Y-38800000D01*
X35956115Y-33724500D02*
X36211328Y-33724500D01*
X36211328Y-33724500D02*
X37561828Y-35075000D01*
X23175000Y-33675000D02*
X20300000Y-36550000D01*
X35906615Y-33675000D02*
X23175000Y-33675000D01*
X35956115Y-33724500D02*
X35906615Y-33675000D01*
D17*
%TO.N,/3p3*%
X29050000Y-34250000D02*
X27800000Y-35500000D01*
X32724195Y-34250000D02*
X29050000Y-34250000D01*
X33698744Y-35224549D02*
X32724195Y-34250000D01*
X35749951Y-35224549D02*
X33698744Y-35224549D01*
D18*
%TO.N,+3V3*%
X21700000Y-65575000D02*
X18755000Y-68520000D01*
X21700000Y-62413172D02*
X21700000Y-65575000D01*
X25513172Y-58600000D02*
X21700000Y-62413172D01*
X18755000Y-68520000D02*
X15750000Y-68520000D01*
X25600000Y-58600000D02*
X25513172Y-58600000D01*
X18275000Y-38800000D02*
X20300000Y-38800000D01*
X17150000Y-50940000D02*
X17150000Y-39925000D01*
X17150000Y-39925000D02*
X18275000Y-38800000D01*
X18200000Y-51990000D02*
X17150000Y-50940000D01*
D19*
%TO.N,/USBC-*%
X31669622Y-71230378D02*
X31375000Y-71525000D01*
X33094622Y-71230378D02*
X31669622Y-71230378D01*
D18*
%TO.N,VBUS*%
X33575000Y-65875000D02*
X33575000Y-66150000D01*
X29624951Y-61924951D02*
X33575000Y-65875000D01*
X28850000Y-61924951D02*
X29624951Y-61924951D01*
D17*
%TO.N,/BOOT*%
X13500000Y-60610000D02*
X15750000Y-58360000D01*
X14975000Y-76100000D02*
X13500000Y-74625000D01*
X24525000Y-71975000D02*
X20400000Y-76100000D01*
X24525000Y-67175000D02*
X24525000Y-71975000D01*
X20400000Y-76100000D02*
X14975000Y-76100000D01*
X13500000Y-74625000D02*
X13500000Y-60610000D01*
%TO.N,/DOUT*%
X18525000Y-62800000D02*
X18325000Y-62800000D01*
X23850000Y-58225000D02*
X23850000Y-58813604D01*
X21400000Y-55775000D02*
X23850000Y-58225000D01*
X21400000Y-55250000D02*
X21400000Y-55775000D01*
X19388604Y-63275000D02*
X19000000Y-63275000D01*
X23850000Y-58813604D02*
X19388604Y-63275000D01*
X19000000Y-63275000D02*
X18525000Y-62800000D01*
%TO.N,GND*%
X36975000Y-31900000D02*
X38225000Y-33150000D01*
X32550000Y-31900000D02*
X36975000Y-31900000D01*
D18*
%TO.N,+3V3*%
X17425000Y-35925000D02*
X20300000Y-38800000D01*
X17200000Y-35925000D02*
X17425000Y-35925000D01*
D17*
%TO.N,GND*%
X32650000Y-38200000D02*
X32650000Y-38500000D01*
X29700000Y-35250000D02*
X29400000Y-35250000D01*
X18372300Y-66922300D02*
X18450000Y-67000000D01*
X20820454Y-42679546D02*
X20619936Y-42880064D01*
D18*
%TO.N,VBUS*%
X34175049Y-61924951D02*
X36400000Y-59700000D01*
X36400000Y-53375000D02*
X35725000Y-52700000D01*
X36400000Y-59700000D02*
X36400000Y-53375000D01*
X28850000Y-61924951D02*
X34175049Y-61924951D01*
D17*
%TO.N,/3p3*%
X28900000Y-45600000D02*
X24300000Y-50200000D01*
X27800000Y-35500000D02*
X24512701Y-38787299D01*
X17320000Y-65980000D02*
X15750000Y-65980000D01*
X28900000Y-44074598D02*
X24512701Y-39687299D01*
X24300000Y-59000000D02*
X17320000Y-65980000D01*
X28900000Y-45600000D02*
X28900000Y-44074598D01*
X24512701Y-38787299D02*
X24512701Y-39687299D01*
X24300000Y-50200000D02*
X24300000Y-59000000D01*
%TD*%
%TA.AperFunction,Conductor*%
%TO.N,+3V3*%
G36*
X31717121Y-51545002D02*
G01*
X31763614Y-51598658D01*
X31775000Y-51651000D01*
X31775000Y-58199000D01*
X31754998Y-58267121D01*
X31701342Y-58313614D01*
X31649000Y-58325000D01*
X25776000Y-58325000D01*
X25707879Y-58304998D01*
X25661386Y-58251342D01*
X25650000Y-58199000D01*
X25650000Y-51651000D01*
X25670002Y-51582879D01*
X25723658Y-51536386D01*
X25776000Y-51525000D01*
X31649000Y-51525000D01*
X31717121Y-51545002D01*
G37*
%TD.AperFunction*%
%TD*%
%TA.AperFunction,Conductor*%
%TO.N,GND*%
G36*
X40203728Y-32490217D02*
G01*
X40250230Y-32543865D01*
X40260347Y-32614137D01*
X40252616Y-32643017D01*
X40249252Y-32651427D01*
X40248138Y-32658157D01*
X40248137Y-32658160D01*
X40225581Y-32794409D01*
X40219922Y-32828591D01*
X40229321Y-33007921D01*
X40277008Y-33181049D01*
X40360760Y-33339898D01*
X40476668Y-33477058D01*
X40482091Y-33481205D01*
X40482093Y-33481206D01*
X40613905Y-33581984D01*
X40613909Y-33581987D01*
X40619326Y-33586128D01*
X40625506Y-33589010D01*
X40625508Y-33589011D01*
X40775900Y-33659140D01*
X40775903Y-33659141D01*
X40782077Y-33662020D01*
X40788725Y-33663506D01*
X40788728Y-33663507D01*
X40952290Y-33700067D01*
X40952291Y-33700067D01*
X40957328Y-33701193D01*
X40962819Y-33701500D01*
X41094866Y-33701500D01*
X41228525Y-33686980D01*
X41328004Y-33653502D01*
X41392257Y-33631879D01*
X41392259Y-33631878D01*
X41398722Y-33629703D01*
X41552648Y-33537214D01*
X41599285Y-33493111D01*
X41662520Y-33460841D01*
X41733167Y-33467881D01*
X41788793Y-33511997D01*
X41811856Y-33584508D01*
X41865365Y-77689885D01*
X41845446Y-77758030D01*
X41791846Y-77804588D01*
X41721585Y-77814777D01*
X41656968Y-77785362D01*
X41643127Y-77771366D01*
X41627739Y-77753157D01*
X41627738Y-77753156D01*
X41623332Y-77747942D01*
X41570610Y-77707633D01*
X41486095Y-77643016D01*
X41486091Y-77643013D01*
X41480674Y-77638872D01*
X41474494Y-77635990D01*
X41474492Y-77635989D01*
X41324100Y-77565860D01*
X41324097Y-77565859D01*
X41317923Y-77562980D01*
X41311275Y-77561494D01*
X41311272Y-77561493D01*
X41147710Y-77524933D01*
X41147709Y-77524933D01*
X41142672Y-77523807D01*
X41137181Y-77523500D01*
X41005134Y-77523500D01*
X40871475Y-77538020D01*
X40801726Y-77561493D01*
X40707743Y-77593121D01*
X40707741Y-77593122D01*
X40701278Y-77595297D01*
X40547352Y-77687786D01*
X40542392Y-77692477D01*
X40542390Y-77692478D01*
X40458969Y-77771366D01*
X40416877Y-77811170D01*
X40315940Y-77959694D01*
X40249252Y-78126427D01*
X40219922Y-78303591D01*
X40229321Y-78482921D01*
X40277008Y-78656049D01*
X40360760Y-78814898D01*
X40476668Y-78952058D01*
X40482093Y-78956206D01*
X40487030Y-78960907D01*
X40485634Y-78962373D01*
X40521837Y-79011763D01*
X40526188Y-79082626D01*
X40491537Y-79144593D01*
X40428886Y-79177988D01*
X40403246Y-79180604D01*
X15211781Y-79161053D01*
X15143676Y-79140998D01*
X15097225Y-79087306D01*
X15087175Y-79017025D01*
X15116719Y-78952467D01*
X15125306Y-78943505D01*
X15178165Y-78893519D01*
X15178167Y-78893517D01*
X15183123Y-78888830D01*
X15284060Y-78740306D01*
X15350748Y-78573573D01*
X15366142Y-78480591D01*
X15378963Y-78403146D01*
X15378963Y-78403143D01*
X15380078Y-78396409D01*
X15370679Y-78217079D01*
X15322992Y-78043951D01*
X15239240Y-77885102D01*
X15123332Y-77747942D01*
X15070610Y-77707633D01*
X14986095Y-77643016D01*
X14986091Y-77643013D01*
X14980674Y-77638872D01*
X14974494Y-77635990D01*
X14974492Y-77635989D01*
X14824100Y-77565860D01*
X14824097Y-77565859D01*
X14817923Y-77562980D01*
X14811275Y-77561494D01*
X14811272Y-77561493D01*
X14647710Y-77524933D01*
X14647709Y-77524933D01*
X14642672Y-77523807D01*
X14637181Y-77523500D01*
X14505134Y-77523500D01*
X14371475Y-77538020D01*
X14301726Y-77561493D01*
X14207743Y-77593121D01*
X14207741Y-77593122D01*
X14201278Y-77595297D01*
X14047352Y-77687786D01*
X14042392Y-77692477D01*
X14042390Y-77692478D01*
X14026364Y-77707633D01*
X13963126Y-77739905D01*
X13892479Y-77732864D01*
X13836854Y-77688746D01*
X13813792Y-77616131D01*
X13813623Y-77166109D01*
X13813236Y-76138378D01*
X13833212Y-76070251D01*
X13886851Y-76023738D01*
X13957121Y-76013608D01*
X14021713Y-76043077D01*
X14028331Y-76049237D01*
X14471352Y-76492258D01*
X14478887Y-76500538D01*
X14483000Y-76507018D01*
X14521553Y-76543221D01*
X14532651Y-76553643D01*
X14535493Y-76556398D01*
X14555230Y-76576135D01*
X14558427Y-76578615D01*
X14567447Y-76586318D01*
X14599679Y-76616586D01*
X14606625Y-76620405D01*
X14606628Y-76620407D01*
X14617434Y-76626348D01*
X14633953Y-76637199D01*
X14649959Y-76649614D01*
X14657228Y-76652759D01*
X14657232Y-76652762D01*
X14690537Y-76667174D01*
X14701187Y-76672391D01*
X14739940Y-76693695D01*
X14747615Y-76695666D01*
X14747616Y-76695666D01*
X14759562Y-76698733D01*
X14778267Y-76705137D01*
X14796855Y-76713181D01*
X14804678Y-76714420D01*
X14804688Y-76714423D01*
X14840524Y-76720099D01*
X14852144Y-76722505D01*
X14883959Y-76730673D01*
X14894970Y-76733500D01*
X14915224Y-76733500D01*
X14934934Y-76735051D01*
X14954943Y-76738220D01*
X14962835Y-76737474D01*
X14981580Y-76735702D01*
X14998962Y-76734059D01*
X15010819Y-76733500D01*
X20321233Y-76733500D01*
X20332416Y-76734027D01*
X20339909Y-76735702D01*
X20347835Y-76735453D01*
X20347836Y-76735453D01*
X20407986Y-76733562D01*
X20411945Y-76733500D01*
X20439856Y-76733500D01*
X20443791Y-76733003D01*
X20443856Y-76732995D01*
X20455693Y-76732062D01*
X20487951Y-76731048D01*
X20491970Y-76730922D01*
X20499889Y-76730673D01*
X20519343Y-76725021D01*
X20538700Y-76721013D01*
X20550930Y-76719468D01*
X20550931Y-76719468D01*
X20558797Y-76718474D01*
X20566168Y-76715555D01*
X20566170Y-76715555D01*
X20599912Y-76702196D01*
X20611142Y-76698351D01*
X20645983Y-76688229D01*
X20645984Y-76688229D01*
X20653593Y-76686018D01*
X20660412Y-76681985D01*
X20660417Y-76681983D01*
X20671028Y-76675707D01*
X20688776Y-76667012D01*
X20707617Y-76659552D01*
X20743387Y-76633564D01*
X20753307Y-76627048D01*
X20784535Y-76608580D01*
X20784538Y-76608578D01*
X20791362Y-76604542D01*
X20805683Y-76590221D01*
X20820717Y-76577380D01*
X20830694Y-76570131D01*
X20837107Y-76565472D01*
X20865298Y-76531395D01*
X20873288Y-76522616D01*
X23621185Y-73774720D01*
X25821500Y-73774720D01*
X25821800Y-73777776D01*
X25821800Y-73777783D01*
X25822530Y-73785224D01*
X25835920Y-73921784D01*
X25893084Y-74111120D01*
X25985934Y-74285747D01*
X26048610Y-74362595D01*
X26107040Y-74434238D01*
X26107043Y-74434241D01*
X26110935Y-74439013D01*
X26115682Y-74442940D01*
X26115684Y-74442942D01*
X26258575Y-74561152D01*
X26258579Y-74561154D01*
X26263325Y-74565081D01*
X26437299Y-74659149D01*
X26626232Y-74717633D01*
X26632357Y-74718277D01*
X26632358Y-74718277D01*
X26816796Y-74737662D01*
X26816798Y-74737662D01*
X26822925Y-74738306D01*
X26905424Y-74730798D01*
X27013749Y-74720940D01*
X27013752Y-74720939D01*
X27019888Y-74720381D01*
X27025794Y-74718643D01*
X27025798Y-74718642D01*
X27130924Y-74687702D01*
X27209619Y-74664541D01*
X27215077Y-74661688D01*
X27215081Y-74661686D01*
X27305853Y-74614231D01*
X27384890Y-74572911D01*
X27539025Y-74448983D01*
X27666154Y-74297477D01*
X27669121Y-74292079D01*
X27669125Y-74292074D01*
X27758467Y-74129559D01*
X27761433Y-74124164D01*
X27763846Y-74116559D01*
X27819373Y-73941515D01*
X27819373Y-73941514D01*
X27821235Y-73935645D01*
X27838500Y-73781724D01*
X27838500Y-73774720D01*
X34461500Y-73774720D01*
X34461800Y-73777776D01*
X34461800Y-73777783D01*
X34462530Y-73785224D01*
X34475920Y-73921784D01*
X34533084Y-74111120D01*
X34625934Y-74285747D01*
X34688610Y-74362595D01*
X34747040Y-74434238D01*
X34747043Y-74434241D01*
X34750935Y-74439013D01*
X34755682Y-74442940D01*
X34755684Y-74442942D01*
X34898575Y-74561152D01*
X34898579Y-74561154D01*
X34903325Y-74565081D01*
X35077299Y-74659149D01*
X35266232Y-74717633D01*
X35272357Y-74718277D01*
X35272358Y-74718277D01*
X35456796Y-74737662D01*
X35456798Y-74737662D01*
X35462925Y-74738306D01*
X35545424Y-74730798D01*
X35653749Y-74720940D01*
X35653752Y-74720939D01*
X35659888Y-74720381D01*
X35665794Y-74718643D01*
X35665798Y-74718642D01*
X35770924Y-74687702D01*
X35849619Y-74664541D01*
X35855077Y-74661688D01*
X35855081Y-74661686D01*
X35945853Y-74614231D01*
X36024890Y-74572911D01*
X36179025Y-74448983D01*
X36306154Y-74297477D01*
X36309121Y-74292079D01*
X36309125Y-74292074D01*
X36398467Y-74129559D01*
X36401433Y-74124164D01*
X36403846Y-74116559D01*
X36459373Y-73941515D01*
X36459373Y-73941514D01*
X36461235Y-73935645D01*
X36478500Y-73781724D01*
X36478500Y-73075182D01*
X36477814Y-73068178D01*
X36464681Y-72934252D01*
X36464080Y-72928118D01*
X36406916Y-72738782D01*
X36314066Y-72564155D01*
X36216515Y-72444546D01*
X36192960Y-72415664D01*
X36192957Y-72415661D01*
X36189065Y-72410889D01*
X36182724Y-72405643D01*
X36041425Y-72288750D01*
X36041421Y-72288748D01*
X36036675Y-72284821D01*
X35862701Y-72190753D01*
X35673768Y-72132269D01*
X35667643Y-72131625D01*
X35667642Y-72131625D01*
X35483204Y-72112240D01*
X35483202Y-72112240D01*
X35477075Y-72111596D01*
X35394576Y-72119104D01*
X35286251Y-72128962D01*
X35286248Y-72128963D01*
X35280112Y-72129521D01*
X35274206Y-72131259D01*
X35274202Y-72131260D01*
X35169076Y-72162200D01*
X35090381Y-72185361D01*
X35084923Y-72188214D01*
X35084919Y-72188216D01*
X35024555Y-72219774D01*
X34915110Y-72276991D01*
X34760975Y-72400919D01*
X34633846Y-72552425D01*
X34630879Y-72557823D01*
X34630875Y-72557828D01*
X34627397Y-72564155D01*
X34538567Y-72725738D01*
X34536706Y-72731605D01*
X34536705Y-72731607D01*
X34482981Y-72900966D01*
X34478765Y-72914257D01*
X34461500Y-73068178D01*
X34461500Y-73774720D01*
X27838500Y-73774720D01*
X27838500Y-73075182D01*
X27837814Y-73068178D01*
X27824681Y-72934252D01*
X27824080Y-72928118D01*
X27766916Y-72738782D01*
X27674066Y-72564155D01*
X27576515Y-72444546D01*
X27552960Y-72415664D01*
X27552957Y-72415661D01*
X27549065Y-72410889D01*
X27542724Y-72405643D01*
X27401425Y-72288750D01*
X27401421Y-72288748D01*
X27396675Y-72284821D01*
X27222701Y-72190753D01*
X27033768Y-72132269D01*
X27027643Y-72131625D01*
X27027642Y-72131625D01*
X26843204Y-72112240D01*
X26843202Y-72112240D01*
X26837075Y-72111596D01*
X26754576Y-72119104D01*
X26646251Y-72128962D01*
X26646248Y-72128963D01*
X26640112Y-72129521D01*
X26634206Y-72131259D01*
X26634202Y-72131260D01*
X26529076Y-72162200D01*
X26450381Y-72185361D01*
X26444923Y-72188214D01*
X26444919Y-72188216D01*
X26384555Y-72219774D01*
X26275110Y-72276991D01*
X26120975Y-72400919D01*
X25993846Y-72552425D01*
X25990879Y-72557823D01*
X25990875Y-72557828D01*
X25987397Y-72564155D01*
X25898567Y-72725738D01*
X25896706Y-72731605D01*
X25896705Y-72731607D01*
X25842981Y-72900966D01*
X25838765Y-72914257D01*
X25821500Y-73068178D01*
X25821500Y-73774720D01*
X23621185Y-73774720D01*
X24917253Y-72478652D01*
X24925539Y-72471112D01*
X24932018Y-72467000D01*
X24978644Y-72417348D01*
X24981398Y-72414507D01*
X25001135Y-72394770D01*
X25003615Y-72391573D01*
X25011320Y-72382551D01*
X25036159Y-72356100D01*
X25041586Y-72350321D01*
X25045405Y-72343375D01*
X25045407Y-72343372D01*
X25051348Y-72332566D01*
X25062199Y-72316047D01*
X25069758Y-72306301D01*
X25074614Y-72300041D01*
X25077759Y-72292772D01*
X25077762Y-72292768D01*
X25092174Y-72259463D01*
X25097391Y-72248813D01*
X25118695Y-72210060D01*
X25123733Y-72190437D01*
X25130137Y-72171734D01*
X25135033Y-72160420D01*
X25135033Y-72160419D01*
X25138181Y-72153145D01*
X25139420Y-72145322D01*
X25139423Y-72145312D01*
X25145099Y-72109476D01*
X25147505Y-72097856D01*
X25156528Y-72062711D01*
X25156528Y-72062710D01*
X25158500Y-72055030D01*
X25158500Y-72034776D01*
X25160051Y-72015065D01*
X25161980Y-72002886D01*
X25163220Y-71995057D01*
X25159059Y-71951038D01*
X25158500Y-71939181D01*
X25158500Y-71525000D01*
X30461496Y-71525000D01*
X30462186Y-71531565D01*
X30475728Y-71660406D01*
X30481458Y-71714928D01*
X30540473Y-71896556D01*
X30635960Y-72061944D01*
X30640378Y-72066851D01*
X30640379Y-72066852D01*
X30739225Y-72176632D01*
X30763747Y-72203866D01*
X30856716Y-72271412D01*
X30886110Y-72292768D01*
X30918248Y-72316118D01*
X30924276Y-72318802D01*
X30924278Y-72318803D01*
X31086681Y-72391109D01*
X31092712Y-72393794D01*
X31185736Y-72413567D01*
X31273056Y-72432128D01*
X31273061Y-72432128D01*
X31279513Y-72433500D01*
X31470487Y-72433500D01*
X31476939Y-72432128D01*
X31476944Y-72432128D01*
X31564264Y-72413567D01*
X31657288Y-72393794D01*
X31663319Y-72391109D01*
X31825722Y-72318803D01*
X31825724Y-72318802D01*
X31831752Y-72316118D01*
X31863891Y-72292768D01*
X31893284Y-72271412D01*
X31986253Y-72203866D01*
X32010775Y-72176632D01*
X32109621Y-72066852D01*
X32109622Y-72066851D01*
X32114040Y-72061944D01*
X32206455Y-71901877D01*
X32257836Y-71852885D01*
X32315573Y-71838878D01*
X32363912Y-71838878D01*
X32432033Y-71858880D01*
X32457548Y-71880567D01*
X32477098Y-71902279D01*
X32483369Y-71909244D01*
X32504951Y-71924924D01*
X32629019Y-72015065D01*
X32637870Y-72021496D01*
X32643898Y-72024180D01*
X32643900Y-72024181D01*
X32806303Y-72096487D01*
X32812334Y-72099172D01*
X32905734Y-72119025D01*
X32992678Y-72137506D01*
X32992683Y-72137506D01*
X32999135Y-72138878D01*
X33190109Y-72138878D01*
X33196561Y-72137506D01*
X33196566Y-72137506D01*
X33283510Y-72119025D01*
X33376910Y-72099172D01*
X33382941Y-72096487D01*
X33545344Y-72024181D01*
X33545346Y-72024180D01*
X33551374Y-72021496D01*
X33560226Y-72015065D01*
X33658741Y-71943489D01*
X33705875Y-71909244D01*
X33794200Y-71811149D01*
X33829243Y-71772230D01*
X33829244Y-71772229D01*
X33833662Y-71767322D01*
X33929149Y-71601934D01*
X33988164Y-71420306D01*
X34008126Y-71230378D01*
X33997218Y-71126590D01*
X33988854Y-71047013D01*
X33988854Y-71047011D01*
X33988164Y-71040450D01*
X33929149Y-70858822D01*
X33893715Y-70797449D01*
X33876978Y-70728456D01*
X33900198Y-70661364D01*
X33956005Y-70617477D01*
X34002835Y-70608451D01*
X34085244Y-70608451D01*
X34220037Y-70593808D01*
X34345716Y-70551512D01*
X34385204Y-70538223D01*
X34385206Y-70538222D01*
X34391675Y-70536045D01*
X34546905Y-70442774D01*
X34547329Y-70443479D01*
X34608520Y-70420189D01*
X34677993Y-70434816D01*
X34715992Y-70466169D01*
X34750935Y-70509013D01*
X34755682Y-70512940D01*
X34755684Y-70512942D01*
X34898575Y-70631152D01*
X34898579Y-70631154D01*
X34903325Y-70635081D01*
X35077299Y-70729149D01*
X35266232Y-70787633D01*
X35272357Y-70788277D01*
X35272358Y-70788277D01*
X35456796Y-70807662D01*
X35456798Y-70807662D01*
X35462925Y-70808306D01*
X35545424Y-70800798D01*
X35653749Y-70790940D01*
X35653752Y-70790939D01*
X35659888Y-70790381D01*
X35665794Y-70788643D01*
X35665798Y-70788642D01*
X35838671Y-70737763D01*
X35849619Y-70734541D01*
X35855077Y-70731688D01*
X35855081Y-70731686D01*
X35945853Y-70684231D01*
X36024890Y-70642911D01*
X36179025Y-70518983D01*
X36306154Y-70367477D01*
X36309121Y-70362079D01*
X36309125Y-70362074D01*
X36398467Y-70199559D01*
X36401433Y-70194164D01*
X36403846Y-70186559D01*
X36459373Y-70011515D01*
X36459373Y-70011514D01*
X36461235Y-70005645D01*
X36478500Y-69851724D01*
X36478500Y-68645182D01*
X36477814Y-68638178D01*
X36464681Y-68504252D01*
X36464080Y-68498118D01*
X36406916Y-68308782D01*
X36314066Y-68134155D01*
X36243709Y-68047889D01*
X36192960Y-67985664D01*
X36192957Y-67985661D01*
X36189065Y-67980889D01*
X36182724Y-67975643D01*
X36041425Y-67858750D01*
X36041421Y-67858748D01*
X36036675Y-67854821D01*
X35862701Y-67760753D01*
X35673768Y-67702269D01*
X35667643Y-67701625D01*
X35667642Y-67701625D01*
X35483204Y-67682240D01*
X35483202Y-67682240D01*
X35477075Y-67681596D01*
X35403663Y-67688277D01*
X35286251Y-67698962D01*
X35286248Y-67698963D01*
X35280112Y-67699521D01*
X35274206Y-67701259D01*
X35274202Y-67701260D01*
X35169076Y-67732200D01*
X35090381Y-67755361D01*
X35084923Y-67758214D01*
X35084919Y-67758216D01*
X35017977Y-67793213D01*
X34915110Y-67846991D01*
X34760975Y-67970919D01*
X34633846Y-68122425D01*
X34630879Y-68127823D01*
X34630875Y-68127828D01*
X34627397Y-68134155D01*
X34538567Y-68295738D01*
X34536706Y-68301605D01*
X34536705Y-68301607D01*
X34480627Y-68478387D01*
X34478765Y-68484257D01*
X34461500Y-68638178D01*
X34461500Y-68857813D01*
X34441498Y-68925934D01*
X34387842Y-68972427D01*
X34317568Y-68982531D01*
X34308014Y-68980779D01*
X34138494Y-68942887D01*
X34138495Y-68942887D01*
X34133457Y-68941761D01*
X34127912Y-68941451D01*
X33994756Y-68941451D01*
X33859963Y-68956094D01*
X33741810Y-68995857D01*
X33694796Y-69011679D01*
X33694794Y-69011680D01*
X33688325Y-69013857D01*
X33533095Y-69107128D01*
X33528138Y-69111816D01*
X33528135Y-69111818D01*
X33417325Y-69216607D01*
X33401515Y-69231558D01*
X33397683Y-69237196D01*
X33397680Y-69237200D01*
X33333951Y-69330974D01*
X33299723Y-69381339D01*
X33232470Y-69549485D01*
X33231356Y-69556213D01*
X33231355Y-69556217D01*
X33209388Y-69688909D01*
X33202892Y-69728149D01*
X33203249Y-69734966D01*
X33203249Y-69734970D01*
X33208151Y-69828490D01*
X33212370Y-69908998D01*
X33214181Y-69915571D01*
X33214181Y-69915574D01*
X33236799Y-69997687D01*
X33260461Y-70083592D01*
X33288680Y-70137114D01*
X33302756Y-70206701D01*
X33276977Y-70272852D01*
X33219526Y-70314564D01*
X33177222Y-70321878D01*
X32999135Y-70321878D01*
X32992683Y-70323250D01*
X32992678Y-70323250D01*
X32905734Y-70341731D01*
X32812334Y-70361584D01*
X32806304Y-70364269D01*
X32806303Y-70364269D01*
X32643900Y-70436575D01*
X32643898Y-70436576D01*
X32637870Y-70439260D01*
X32632529Y-70443140D01*
X32632528Y-70443141D01*
X32504951Y-70535832D01*
X32483369Y-70551512D01*
X32478956Y-70556414D01*
X32478954Y-70556415D01*
X32457548Y-70580189D01*
X32397102Y-70617428D01*
X32363912Y-70621878D01*
X31717758Y-70621878D01*
X31701312Y-70620800D01*
X31677810Y-70617706D01*
X31669622Y-70616628D01*
X31637933Y-70620800D01*
X31629752Y-70621877D01*
X31629743Y-70621878D01*
X31629737Y-70621878D01*
X31568487Y-70629942D01*
X31525843Y-70628266D01*
X31476951Y-70617873D01*
X31476942Y-70617872D01*
X31470487Y-70616500D01*
X31279513Y-70616500D01*
X31273061Y-70617872D01*
X31273056Y-70617872D01*
X31192097Y-70635081D01*
X31092712Y-70656206D01*
X31086682Y-70658891D01*
X31086681Y-70658891D01*
X30924278Y-70731197D01*
X30924276Y-70731198D01*
X30918248Y-70733882D01*
X30763747Y-70846134D01*
X30635960Y-70988056D01*
X30594423Y-71060000D01*
X30554062Y-71129908D01*
X30540473Y-71153444D01*
X30481458Y-71335072D01*
X30461496Y-71525000D01*
X25158500Y-71525000D01*
X25158500Y-69844720D01*
X25821500Y-69844720D01*
X25821800Y-69847776D01*
X25821800Y-69847783D01*
X25822530Y-69855224D01*
X25835920Y-69991784D01*
X25837702Y-69997685D01*
X25837702Y-69997687D01*
X25856470Y-70059848D01*
X25893084Y-70181120D01*
X25985934Y-70355747D01*
X26041171Y-70423474D01*
X26107040Y-70504238D01*
X26107043Y-70504241D01*
X26110935Y-70509013D01*
X26115682Y-70512940D01*
X26115684Y-70512942D01*
X26258575Y-70631152D01*
X26258579Y-70631154D01*
X26263325Y-70635081D01*
X26437299Y-70729149D01*
X26626232Y-70787633D01*
X26632357Y-70788277D01*
X26632358Y-70788277D01*
X26816796Y-70807662D01*
X26816798Y-70807662D01*
X26822925Y-70808306D01*
X26905424Y-70800798D01*
X27013749Y-70790940D01*
X27013752Y-70790939D01*
X27019888Y-70790381D01*
X27025794Y-70788643D01*
X27025798Y-70788642D01*
X27198671Y-70737763D01*
X27209619Y-70734541D01*
X27215077Y-70731688D01*
X27215081Y-70731686D01*
X27305853Y-70684231D01*
X27384890Y-70642911D01*
X27539025Y-70518983D01*
X27587400Y-70461332D01*
X27646507Y-70422007D01*
X27717494Y-70420881D01*
X27760448Y-70442229D01*
X27820257Y-70487957D01*
X27820261Y-70487960D01*
X27825678Y-70492101D01*
X27912372Y-70532527D01*
X27983631Y-70565756D01*
X27983634Y-70565757D01*
X27989808Y-70568636D01*
X27996456Y-70570122D01*
X27996459Y-70570123D01*
X28102421Y-70593808D01*
X28166543Y-70608141D01*
X28172088Y-70608451D01*
X28305244Y-70608451D01*
X28440037Y-70593808D01*
X28565716Y-70551512D01*
X28605204Y-70538223D01*
X28605206Y-70538222D01*
X28611675Y-70536045D01*
X28766905Y-70442774D01*
X28771862Y-70438086D01*
X28771865Y-70438084D01*
X28893527Y-70323033D01*
X28893529Y-70323031D01*
X28898485Y-70318344D01*
X28902317Y-70312706D01*
X28902320Y-70312702D01*
X28996442Y-70174206D01*
X29000277Y-70168563D01*
X29067530Y-70000417D01*
X29068644Y-69993689D01*
X29068645Y-69993685D01*
X29095993Y-69828490D01*
X29095993Y-69828487D01*
X29097108Y-69821753D01*
X29095021Y-69781921D01*
X29087987Y-69647717D01*
X29087630Y-69640904D01*
X29064304Y-69556217D01*
X29041352Y-69472892D01*
X29039539Y-69466310D01*
X28955078Y-69306115D01*
X28950673Y-69300902D01*
X28950670Y-69300898D01*
X28842594Y-69173008D01*
X28842590Y-69173004D01*
X28838187Y-69167794D01*
X28832762Y-69163646D01*
X28699743Y-69061945D01*
X28699739Y-69061942D01*
X28694322Y-69057801D01*
X28536478Y-68984197D01*
X28536369Y-68984146D01*
X28536366Y-68984145D01*
X28530192Y-68981266D01*
X28523544Y-68979780D01*
X28523541Y-68979779D01*
X28358494Y-68942887D01*
X28358495Y-68942887D01*
X28353457Y-68941761D01*
X28347912Y-68941451D01*
X28214756Y-68941451D01*
X28079963Y-68956094D01*
X28004688Y-68981427D01*
X27933747Y-68984197D01*
X27872568Y-68948174D01*
X27840577Y-68884793D01*
X27838500Y-68862008D01*
X27838500Y-68645182D01*
X27837814Y-68638178D01*
X27824681Y-68504252D01*
X27824080Y-68498118D01*
X27766916Y-68308782D01*
X27674066Y-68134155D01*
X27603709Y-68047889D01*
X27552960Y-67985664D01*
X27552957Y-67985661D01*
X27549065Y-67980889D01*
X27542724Y-67975643D01*
X27401425Y-67858750D01*
X27401421Y-67858748D01*
X27396675Y-67854821D01*
X27222701Y-67760753D01*
X27033768Y-67702269D01*
X27027643Y-67701625D01*
X27027642Y-67701625D01*
X26843204Y-67682240D01*
X26843202Y-67682240D01*
X26837075Y-67681596D01*
X26763663Y-67688277D01*
X26646251Y-67698962D01*
X26646248Y-67698963D01*
X26640112Y-67699521D01*
X26634206Y-67701259D01*
X26634202Y-67701260D01*
X26529076Y-67732200D01*
X26450381Y-67755361D01*
X26444923Y-67758214D01*
X26444919Y-67758216D01*
X26377977Y-67793213D01*
X26275110Y-67846991D01*
X26120975Y-67970919D01*
X25993846Y-68122425D01*
X25990879Y-68127823D01*
X25990875Y-68127828D01*
X25987397Y-68134155D01*
X25898567Y-68295738D01*
X25896706Y-68301605D01*
X25896705Y-68301607D01*
X25840627Y-68478387D01*
X25838765Y-68484257D01*
X25821500Y-68638178D01*
X25821500Y-69844720D01*
X25158500Y-69844720D01*
X25158500Y-67877524D01*
X25178502Y-67809403D01*
X25190858Y-67793221D01*
X25264040Y-67711944D01*
X25359527Y-67546556D01*
X25418542Y-67364928D01*
X25429218Y-67263357D01*
X25437814Y-67181565D01*
X25438504Y-67175000D01*
X25426115Y-67057128D01*
X25419232Y-66991635D01*
X25419232Y-66991633D01*
X25418542Y-66985072D01*
X25359527Y-66803444D01*
X25264040Y-66638056D01*
X25243913Y-66615702D01*
X25140675Y-66501045D01*
X25140674Y-66501044D01*
X25136253Y-66496134D01*
X24981752Y-66383882D01*
X24975724Y-66381198D01*
X24975722Y-66381197D01*
X24813319Y-66308891D01*
X24813318Y-66308891D01*
X24807288Y-66306206D01*
X24713887Y-66286353D01*
X24626944Y-66267872D01*
X24626939Y-66267872D01*
X24620487Y-66266500D01*
X24429513Y-66266500D01*
X24423061Y-66267872D01*
X24423056Y-66267872D01*
X24336113Y-66286353D01*
X24242712Y-66306206D01*
X24236682Y-66308891D01*
X24236681Y-66308891D01*
X24074278Y-66381197D01*
X24074276Y-66381198D01*
X24068248Y-66383882D01*
X23913747Y-66496134D01*
X23909326Y-66501044D01*
X23909325Y-66501045D01*
X23806088Y-66615702D01*
X23785960Y-66638056D01*
X23690473Y-66803444D01*
X23631458Y-66985072D01*
X23630768Y-66991633D01*
X23630768Y-66991635D01*
X23623885Y-67057128D01*
X23611496Y-67175000D01*
X23612186Y-67181565D01*
X23620783Y-67263357D01*
X23631458Y-67364928D01*
X23690473Y-67546556D01*
X23785960Y-67711944D01*
X23859137Y-67793215D01*
X23889853Y-67857221D01*
X23891500Y-67877524D01*
X23891500Y-71660406D01*
X23871498Y-71728527D01*
X23854595Y-71749501D01*
X20174500Y-75429595D01*
X20112188Y-75463621D01*
X20085405Y-75466500D01*
X15289594Y-75466500D01*
X15221473Y-75446498D01*
X15200499Y-75429595D01*
X14824771Y-75053867D01*
X14790745Y-74991555D01*
X14795810Y-74920740D01*
X14838357Y-74863904D01*
X14904877Y-74839093D01*
X14958815Y-74847062D01*
X15115001Y-74906703D01*
X15124899Y-74909579D01*
X15228250Y-74930606D01*
X15242299Y-74929410D01*
X15246000Y-74919065D01*
X15246000Y-74918517D01*
X15754000Y-74918517D01*
X15758064Y-74932359D01*
X15771478Y-74934393D01*
X15778184Y-74933534D01*
X15788262Y-74931392D01*
X15992255Y-74870191D01*
X16001842Y-74866433D01*
X16193095Y-74772739D01*
X16201945Y-74767464D01*
X16375328Y-74643792D01*
X16383200Y-74637139D01*
X16534052Y-74486812D01*
X16540730Y-74478965D01*
X16665003Y-74306020D01*
X16670313Y-74297183D01*
X16764670Y-74106267D01*
X16768469Y-74096672D01*
X16830377Y-73892910D01*
X16832555Y-73882837D01*
X16833986Y-73871962D01*
X16831775Y-73857778D01*
X16818617Y-73854000D01*
X15772115Y-73854000D01*
X15756876Y-73858475D01*
X15755671Y-73859865D01*
X15754000Y-73867548D01*
X15754000Y-74918517D01*
X15246000Y-74918517D01*
X15246000Y-73472000D01*
X15266002Y-73403879D01*
X15319658Y-73357386D01*
X15372000Y-73346000D01*
X16818344Y-73346000D01*
X16831875Y-73342027D01*
X16833180Y-73332947D01*
X16791214Y-73165875D01*
X16787894Y-73156124D01*
X16702972Y-72960814D01*
X16698105Y-72951739D01*
X16582426Y-72772926D01*
X16576136Y-72764757D01*
X16432806Y-72607240D01*
X16425273Y-72600215D01*
X16258139Y-72468222D01*
X16249556Y-72462520D01*
X16212602Y-72442120D01*
X16162631Y-72391687D01*
X16147859Y-72322245D01*
X16172975Y-72255839D01*
X16200327Y-72229232D01*
X16235889Y-72203866D01*
X16379860Y-72101173D01*
X16384563Y-72096487D01*
X16494267Y-71987165D01*
X16538096Y-71943489D01*
X16562704Y-71909244D01*
X16665435Y-71766277D01*
X16668453Y-71762077D01*
X16674669Y-71749501D01*
X16765136Y-71566453D01*
X16765137Y-71566451D01*
X16767430Y-71561811D01*
X16832370Y-71348069D01*
X16861529Y-71126590D01*
X16863156Y-71060000D01*
X16844852Y-70837361D01*
X16790431Y-70620702D01*
X16701354Y-70415840D01*
X16641455Y-70323250D01*
X16582822Y-70232617D01*
X16582820Y-70232614D01*
X16580014Y-70228277D01*
X16429670Y-70063051D01*
X16425619Y-70059852D01*
X16425615Y-70059848D01*
X16258414Y-69927800D01*
X16258410Y-69927798D01*
X16254359Y-69924598D01*
X16213053Y-69901796D01*
X16163084Y-69851364D01*
X16148312Y-69781921D01*
X16173428Y-69715516D01*
X16200780Y-69688909D01*
X16258529Y-69647717D01*
X16379860Y-69561173D01*
X16384834Y-69556217D01*
X16534435Y-69407137D01*
X16538096Y-69403489D01*
X16590203Y-69330974D01*
X16646198Y-69287326D01*
X16692526Y-69278500D01*
X18687930Y-69278500D01*
X18706880Y-69279933D01*
X18721115Y-69282099D01*
X18721119Y-69282099D01*
X18728349Y-69283199D01*
X18735641Y-69282606D01*
X18735644Y-69282606D01*
X18781018Y-69278915D01*
X18791233Y-69278500D01*
X18799293Y-69278500D01*
X18812583Y-69276951D01*
X18827507Y-69275211D01*
X18831882Y-69274778D01*
X18897339Y-69269454D01*
X18897342Y-69269453D01*
X18904637Y-69268860D01*
X18911601Y-69266604D01*
X18917560Y-69265413D01*
X18923415Y-69264029D01*
X18930681Y-69263182D01*
X18999327Y-69238265D01*
X19003455Y-69236848D01*
X19065936Y-69216607D01*
X19065938Y-69216606D01*
X19072899Y-69214351D01*
X19079154Y-69210555D01*
X19084628Y-69208049D01*
X19090058Y-69205330D01*
X19096937Y-69202833D01*
X19103058Y-69198820D01*
X19157976Y-69162814D01*
X19161680Y-69160477D01*
X19224107Y-69122595D01*
X19232484Y-69115197D01*
X19232508Y-69115224D01*
X19235500Y-69112571D01*
X19238733Y-69109868D01*
X19244852Y-69105856D01*
X19298128Y-69049617D01*
X19300506Y-69047175D01*
X22188911Y-66158770D01*
X22203323Y-66146384D01*
X22214918Y-66137851D01*
X22214923Y-66137846D01*
X22220818Y-66133508D01*
X22225557Y-66127930D01*
X22225560Y-66127927D01*
X22255035Y-66093232D01*
X22261965Y-66085716D01*
X22267660Y-66080021D01*
X22285281Y-66057749D01*
X22288072Y-66054345D01*
X22330591Y-66004297D01*
X22330592Y-66004295D01*
X22335333Y-65998715D01*
X22338661Y-65992199D01*
X22342028Y-65987150D01*
X22345195Y-65982021D01*
X22349734Y-65976284D01*
X22380655Y-65910125D01*
X22382561Y-65906225D01*
X22415769Y-65841192D01*
X22417508Y-65834084D01*
X22419607Y-65828441D01*
X22421524Y-65822678D01*
X22424622Y-65816050D01*
X22439487Y-65744583D01*
X22440457Y-65740299D01*
X22456473Y-65674845D01*
X22457808Y-65669390D01*
X22458500Y-65658236D01*
X22458536Y-65658238D01*
X22458775Y-65654245D01*
X22459149Y-65650053D01*
X22460640Y-65642885D01*
X22458546Y-65565479D01*
X22458500Y-65562072D01*
X22458500Y-62779543D01*
X22478502Y-62711422D01*
X22495405Y-62690448D01*
X23260902Y-61924951D01*
X27936496Y-61924951D01*
X27937186Y-61931516D01*
X27945785Y-62013327D01*
X27956458Y-62114879D01*
X28015473Y-62296507D01*
X28110960Y-62461895D01*
X28115378Y-62466802D01*
X28115379Y-62466803D01*
X28234325Y-62598906D01*
X28238747Y-62603817D01*
X28323836Y-62665638D01*
X28348925Y-62683866D01*
X28393248Y-62716069D01*
X28399276Y-62718753D01*
X28399278Y-62718754D01*
X28561679Y-62791059D01*
X28567712Y-62793745D01*
X28661112Y-62813598D01*
X28748056Y-62832079D01*
X28748061Y-62832079D01*
X28754513Y-62833451D01*
X28945487Y-62833451D01*
X28951939Y-62832079D01*
X28951944Y-62832079D01*
X29038888Y-62813598D01*
X29132288Y-62793745D01*
X29138315Y-62791062D01*
X29138323Y-62791059D01*
X29252993Y-62740005D01*
X29323360Y-62730571D01*
X29387657Y-62760678D01*
X29393336Y-62766017D01*
X32630015Y-66002696D01*
X32664041Y-66065008D01*
X32666230Y-66104961D01*
X32661496Y-66150000D01*
X32662186Y-66156565D01*
X32677770Y-66304834D01*
X32681458Y-66339928D01*
X32740473Y-66521556D01*
X32743776Y-66527278D01*
X32743777Y-66527279D01*
X32775484Y-66582196D01*
X32835960Y-66686944D01*
X32840378Y-66691851D01*
X32840379Y-66691852D01*
X32935040Y-66796984D01*
X32963747Y-66828866D01*
X33118248Y-66941118D01*
X33124276Y-66943802D01*
X33124278Y-66943803D01*
X33286681Y-67016109D01*
X33292712Y-67018794D01*
X33386113Y-67038647D01*
X33473056Y-67057128D01*
X33473061Y-67057128D01*
X33479513Y-67058500D01*
X33670487Y-67058500D01*
X33676939Y-67057128D01*
X33676944Y-67057128D01*
X33763887Y-67038647D01*
X33857288Y-67018794D01*
X33863319Y-67016109D01*
X34025722Y-66943803D01*
X34025724Y-66943802D01*
X34031752Y-66941118D01*
X34186253Y-66828866D01*
X34214960Y-66796984D01*
X34309621Y-66691852D01*
X34309622Y-66691851D01*
X34314040Y-66686944D01*
X34374516Y-66582196D01*
X34406223Y-66527279D01*
X34406224Y-66527278D01*
X34409527Y-66521556D01*
X34468542Y-66339928D01*
X34472231Y-66304834D01*
X34487814Y-66156565D01*
X34488504Y-66150000D01*
X34478450Y-66054345D01*
X34469232Y-65966635D01*
X34469232Y-65966633D01*
X34468542Y-65960072D01*
X34409527Y-65778444D01*
X34314040Y-65613056D01*
X34286243Y-65582184D01*
X34269659Y-65556938D01*
X34269361Y-65557119D01*
X34269352Y-65557104D01*
X34269351Y-65557101D01*
X34268875Y-65556316D01*
X34267861Y-65554201D01*
X34265319Y-65550331D01*
X34263045Y-65545364D01*
X34260330Y-65539942D01*
X34257833Y-65533063D01*
X34253820Y-65526942D01*
X34217814Y-65472024D01*
X34215467Y-65468305D01*
X34177595Y-65405893D01*
X34170197Y-65397516D01*
X34170224Y-65397492D01*
X34167571Y-65394500D01*
X34164868Y-65391267D01*
X34160856Y-65385148D01*
X34104617Y-65331872D01*
X34102175Y-65329494D01*
X31671227Y-62898546D01*
X31637201Y-62836234D01*
X31642266Y-62765419D01*
X31684813Y-62708583D01*
X31751333Y-62683772D01*
X31760322Y-62683451D01*
X34107979Y-62683451D01*
X34126929Y-62684884D01*
X34141164Y-62687050D01*
X34141168Y-62687050D01*
X34148398Y-62688150D01*
X34155690Y-62687557D01*
X34155693Y-62687557D01*
X34201067Y-62683866D01*
X34211282Y-62683451D01*
X34219342Y-62683451D01*
X34232632Y-62681902D01*
X34247556Y-62680162D01*
X34251931Y-62679729D01*
X34317388Y-62674405D01*
X34317391Y-62674404D01*
X34324686Y-62673811D01*
X34331650Y-62671555D01*
X34337609Y-62670364D01*
X34343464Y-62668980D01*
X34350730Y-62668133D01*
X34419376Y-62643216D01*
X34423504Y-62641799D01*
X34485985Y-62621558D01*
X34485987Y-62621557D01*
X34492948Y-62619302D01*
X34499203Y-62615506D01*
X34504677Y-62613000D01*
X34510107Y-62610281D01*
X34516986Y-62607784D01*
X34549585Y-62586411D01*
X34578025Y-62567765D01*
X34581729Y-62565428D01*
X34644156Y-62527546D01*
X34652533Y-62520148D01*
X34652557Y-62520175D01*
X34655549Y-62517522D01*
X34658782Y-62514819D01*
X34664901Y-62510807D01*
X34718177Y-62454568D01*
X34720555Y-62452126D01*
X36888911Y-60283770D01*
X36903323Y-60271384D01*
X36914918Y-60262851D01*
X36914923Y-60262846D01*
X36920818Y-60258508D01*
X36925557Y-60252930D01*
X36925560Y-60252927D01*
X36955035Y-60218232D01*
X36961965Y-60210716D01*
X36967660Y-60205021D01*
X36985281Y-60182749D01*
X36988072Y-60179345D01*
X37030591Y-60129297D01*
X37030592Y-60129295D01*
X37035333Y-60123715D01*
X37038661Y-60117199D01*
X37042028Y-60112150D01*
X37045195Y-60107021D01*
X37049734Y-60101284D01*
X37080655Y-60035125D01*
X37082561Y-60031225D01*
X37115769Y-59966192D01*
X37117508Y-59959083D01*
X37119604Y-59953449D01*
X37121523Y-59947679D01*
X37124622Y-59941050D01*
X37139491Y-59869565D01*
X37140461Y-59865282D01*
X37156473Y-59799844D01*
X37157808Y-59794390D01*
X37158500Y-59783236D01*
X37158535Y-59783238D01*
X37158775Y-59779266D01*
X37159152Y-59775045D01*
X37160641Y-59767885D01*
X37158546Y-59690458D01*
X37158500Y-59687050D01*
X37158500Y-53442069D01*
X37159933Y-53423118D01*
X37162099Y-53408883D01*
X37162099Y-53408881D01*
X37163199Y-53401651D01*
X37158915Y-53348982D01*
X37158500Y-53338767D01*
X37158500Y-53330707D01*
X37155211Y-53302493D01*
X37154778Y-53298118D01*
X37149454Y-53232661D01*
X37149453Y-53232658D01*
X37148860Y-53225363D01*
X37146604Y-53218399D01*
X37145413Y-53212440D01*
X37144029Y-53206585D01*
X37143182Y-53199319D01*
X37118265Y-53130673D01*
X37116848Y-53126545D01*
X37096607Y-53064064D01*
X37096606Y-53064062D01*
X37094351Y-53057101D01*
X37090555Y-53050846D01*
X37088049Y-53045372D01*
X37085330Y-53039942D01*
X37082833Y-53033063D01*
X37042814Y-52972024D01*
X37040467Y-52968305D01*
X37002595Y-52905893D01*
X36995197Y-52897516D01*
X36995224Y-52897492D01*
X36992571Y-52894500D01*
X36989868Y-52891267D01*
X36985856Y-52885148D01*
X36929617Y-52831872D01*
X36927175Y-52829494D01*
X36645125Y-52547444D01*
X36614387Y-52497285D01*
X36599874Y-52452617D01*
X36559527Y-52328444D01*
X36464040Y-52163056D01*
X36450304Y-52147800D01*
X36340675Y-52026045D01*
X36340674Y-52026044D01*
X36336253Y-52021134D01*
X36237157Y-51949136D01*
X36187094Y-51912763D01*
X36187093Y-51912762D01*
X36181752Y-51908882D01*
X36175724Y-51906198D01*
X36175722Y-51906197D01*
X36013319Y-51833891D01*
X36013318Y-51833891D01*
X36007288Y-51831206D01*
X35913887Y-51811353D01*
X35826944Y-51792872D01*
X35826939Y-51792872D01*
X35820487Y-51791500D01*
X35629513Y-51791500D01*
X35623061Y-51792872D01*
X35623056Y-51792872D01*
X35536112Y-51811353D01*
X35442712Y-51831206D01*
X35436682Y-51833891D01*
X35436681Y-51833891D01*
X35274278Y-51906197D01*
X35274276Y-51906198D01*
X35268248Y-51908882D01*
X35262907Y-51912762D01*
X35262906Y-51912763D01*
X35212843Y-51949136D01*
X35113747Y-52021134D01*
X35109326Y-52026044D01*
X35109325Y-52026045D01*
X34999697Y-52147800D01*
X34985960Y-52163056D01*
X34890473Y-52328444D01*
X34831458Y-52510072D01*
X34830768Y-52516633D01*
X34830768Y-52516635D01*
X34830191Y-52522128D01*
X34811496Y-52700000D01*
X34812186Y-52706565D01*
X34827904Y-52856109D01*
X34831458Y-52889928D01*
X34890473Y-53071556D01*
X34985960Y-53236944D01*
X34990378Y-53241851D01*
X34990379Y-53241852D01*
X35086839Y-53348982D01*
X35113747Y-53378866D01*
X35268248Y-53491118D01*
X35274276Y-53493802D01*
X35274278Y-53493803D01*
X35429561Y-53562939D01*
X35442712Y-53568794D01*
X35449167Y-53570166D01*
X35449176Y-53570169D01*
X35505772Y-53582199D01*
X35568669Y-53616350D01*
X35604595Y-53652276D01*
X35638621Y-53714588D01*
X35641500Y-53741371D01*
X35641500Y-59333629D01*
X35621498Y-59401750D01*
X35604595Y-59422724D01*
X33897773Y-61129546D01*
X33835461Y-61163572D01*
X33808678Y-61166451D01*
X29712892Y-61166451D01*
X29701691Y-61165952D01*
X29700001Y-61165801D01*
X29692836Y-61164311D01*
X29632176Y-61165952D01*
X29615430Y-61166405D01*
X29612023Y-61166451D01*
X29392587Y-61166451D01*
X29318528Y-61142388D01*
X29312098Y-61137716D01*
X29312091Y-61137712D01*
X29306752Y-61133833D01*
X29300724Y-61131149D01*
X29300722Y-61131148D01*
X29138319Y-61058842D01*
X29138318Y-61058842D01*
X29132288Y-61056157D01*
X29038887Y-61036304D01*
X28951944Y-61017823D01*
X28951939Y-61017823D01*
X28945487Y-61016451D01*
X28754513Y-61016451D01*
X28748061Y-61017823D01*
X28748056Y-61017823D01*
X28661113Y-61036304D01*
X28567712Y-61056157D01*
X28561682Y-61058842D01*
X28561681Y-61058842D01*
X28399278Y-61131148D01*
X28399276Y-61131149D01*
X28393248Y-61133833D01*
X28387907Y-61137713D01*
X28387906Y-61137714D01*
X28381473Y-61142388D01*
X28238747Y-61246085D01*
X28234326Y-61250995D01*
X28234325Y-61250996D01*
X28183324Y-61307639D01*
X28110960Y-61388007D01*
X28015473Y-61553395D01*
X27956458Y-61735023D01*
X27936496Y-61924951D01*
X23260902Y-61924951D01*
X25646066Y-59539787D01*
X25708963Y-59505636D01*
X25882288Y-59468794D01*
X25888319Y-59466109D01*
X26050722Y-59393803D01*
X26050724Y-59393802D01*
X26056752Y-59391118D01*
X26064046Y-59385819D01*
X26112157Y-59350864D01*
X26211253Y-59278866D01*
X26258680Y-59226193D01*
X26334621Y-59141852D01*
X26334622Y-59141851D01*
X26339040Y-59136944D01*
X26434527Y-58971556D01*
X26449471Y-58925564D01*
X26489544Y-58866958D01*
X26554941Y-58839321D01*
X26569304Y-58838500D01*
X31649000Y-58838500D01*
X31652346Y-58838140D01*
X31652351Y-58838140D01*
X31754785Y-58827128D01*
X31754792Y-58827127D01*
X31758149Y-58826766D01*
X31761450Y-58826048D01*
X31807210Y-58816094D01*
X31807215Y-58816093D01*
X31810491Y-58815380D01*
X31914657Y-58780710D01*
X32037612Y-58701692D01*
X32091268Y-58655199D01*
X32131822Y-58608397D01*
X32181081Y-58551550D01*
X32181083Y-58551547D01*
X32186982Y-58544739D01*
X32247698Y-58411790D01*
X32267700Y-58343669D01*
X32269400Y-58331851D01*
X32287861Y-58203447D01*
X32287861Y-58203442D01*
X32288500Y-58199000D01*
X32288500Y-51651000D01*
X32285676Y-51624729D01*
X32277128Y-51545215D01*
X32277127Y-51545208D01*
X32276766Y-51541851D01*
X32265380Y-51489509D01*
X32230710Y-51385343D01*
X32151692Y-51262388D01*
X32105199Y-51208732D01*
X32090733Y-51196197D01*
X32001550Y-51118919D01*
X32001547Y-51118917D01*
X31994739Y-51113018D01*
X31983316Y-51107801D01*
X31908535Y-51073650D01*
X31861790Y-51052302D01*
X31838036Y-51045327D01*
X31797992Y-51033569D01*
X31797988Y-51033568D01*
X31793669Y-51032300D01*
X31789220Y-51031660D01*
X31789214Y-51031659D01*
X31653447Y-51012139D01*
X31653442Y-51012139D01*
X31649000Y-51011500D01*
X26640676Y-51011500D01*
X26572555Y-50991498D01*
X26526062Y-50937842D01*
X26515958Y-50867568D01*
X26545452Y-50802988D01*
X26551581Y-50796405D01*
X34588911Y-42759075D01*
X34603323Y-42746689D01*
X34614918Y-42738156D01*
X34614923Y-42738151D01*
X34620818Y-42733813D01*
X34625557Y-42728235D01*
X34625560Y-42728232D01*
X34655035Y-42693537D01*
X34661965Y-42686021D01*
X34667660Y-42680326D01*
X34685281Y-42658054D01*
X34688072Y-42654650D01*
X34730591Y-42604602D01*
X34730592Y-42604600D01*
X34735333Y-42599020D01*
X34738661Y-42592504D01*
X34742028Y-42587455D01*
X34745195Y-42582326D01*
X34749734Y-42576589D01*
X34780655Y-42510430D01*
X34782561Y-42506530D01*
X34815769Y-42441497D01*
X34817508Y-42434389D01*
X34819607Y-42428746D01*
X34821524Y-42422983D01*
X34824622Y-42416355D01*
X34839487Y-42344888D01*
X34840457Y-42340604D01*
X34856473Y-42275150D01*
X34857808Y-42269695D01*
X34858500Y-42258541D01*
X34858536Y-42258543D01*
X34858775Y-42254550D01*
X34859149Y-42250358D01*
X34860640Y-42243190D01*
X34858546Y-42165784D01*
X34858500Y-42162377D01*
X34858500Y-38903199D01*
X34878502Y-38835078D01*
X34895405Y-38814104D01*
X37967707Y-35741802D01*
X38030019Y-35707776D01*
X38100834Y-35712841D01*
X38145897Y-35741802D01*
X38804595Y-36400500D01*
X38838621Y-36462812D01*
X38841500Y-36489595D01*
X38841500Y-75540500D01*
X38821498Y-75608621D01*
X38767842Y-75655114D01*
X38715500Y-75666500D01*
X38108200Y-75666500D01*
X38040079Y-75646498D01*
X38020853Y-75630157D01*
X38020580Y-75630460D01*
X38015668Y-75626037D01*
X38011253Y-75621134D01*
X37856752Y-75508882D01*
X37850724Y-75506198D01*
X37850722Y-75506197D01*
X37688319Y-75433891D01*
X37688318Y-75433891D01*
X37682288Y-75431206D01*
X37588887Y-75411353D01*
X37501944Y-75392872D01*
X37501939Y-75392872D01*
X37495487Y-75391500D01*
X37304513Y-75391500D01*
X37298061Y-75392872D01*
X37298056Y-75392872D01*
X37211113Y-75411353D01*
X37117712Y-75431206D01*
X37111682Y-75433891D01*
X37111681Y-75433891D01*
X36949278Y-75506197D01*
X36949276Y-75506198D01*
X36943248Y-75508882D01*
X36788747Y-75621134D01*
X36660960Y-75763056D01*
X36565473Y-75928444D01*
X36506458Y-76110072D01*
X36486496Y-76300000D01*
X36506458Y-76489928D01*
X36565473Y-76671556D01*
X36568776Y-76677278D01*
X36568777Y-76677279D01*
X36571493Y-76681983D01*
X36660960Y-76836944D01*
X36665378Y-76841851D01*
X36665379Y-76841852D01*
X36752050Y-76938110D01*
X36788747Y-76978866D01*
X36943248Y-77091118D01*
X36949276Y-77093802D01*
X36949278Y-77093803D01*
X37111681Y-77166109D01*
X37117712Y-77168794D01*
X37211113Y-77188647D01*
X37298056Y-77207128D01*
X37298061Y-77207128D01*
X37304513Y-77208500D01*
X37495487Y-77208500D01*
X37501939Y-77207128D01*
X37501944Y-77207128D01*
X37588887Y-77188647D01*
X37682288Y-77168794D01*
X37688319Y-77166109D01*
X37850722Y-77093803D01*
X37850724Y-77093802D01*
X37856752Y-77091118D01*
X38011253Y-76978866D01*
X38015668Y-76973963D01*
X38020580Y-76969540D01*
X38021705Y-76970789D01*
X38075014Y-76937949D01*
X38108200Y-76933500D01*
X39171005Y-76933500D01*
X39188759Y-76934757D01*
X39211636Y-76938013D01*
X39217789Y-76938077D01*
X39220866Y-76938110D01*
X39220871Y-76938110D01*
X39225000Y-76938153D01*
X39240411Y-76936288D01*
X39243171Y-76935985D01*
X39398196Y-76920717D01*
X39564737Y-76870197D01*
X39570192Y-76867281D01*
X39570195Y-76867280D01*
X39648922Y-76825199D01*
X39718221Y-76788158D01*
X39852752Y-76677752D01*
X39963158Y-76543221D01*
X40045197Y-76389737D01*
X40095717Y-76223196D01*
X40096324Y-76217035D01*
X40096325Y-76217029D01*
X40101701Y-76162442D01*
X40105053Y-76143457D01*
X40106528Y-76137713D01*
X40106528Y-76137709D01*
X40108500Y-76130030D01*
X40108500Y-76103995D01*
X40109757Y-76086242D01*
X40112432Y-76067447D01*
X40112432Y-76067446D01*
X40113013Y-76063364D01*
X40113153Y-76050000D01*
X40109413Y-76019093D01*
X40108500Y-76003958D01*
X40108500Y-36253767D01*
X40109027Y-36242584D01*
X40110702Y-36235091D01*
X40108562Y-36167014D01*
X40108500Y-36163055D01*
X40108500Y-36135144D01*
X40107995Y-36131144D01*
X40107062Y-36119301D01*
X40106264Y-36093894D01*
X40105673Y-36075111D01*
X40100021Y-36055657D01*
X40096013Y-36036300D01*
X40094468Y-36024070D01*
X40094468Y-36024069D01*
X40093474Y-36016203D01*
X40085900Y-35997073D01*
X40077196Y-35975088D01*
X40073351Y-35963858D01*
X40063229Y-35929017D01*
X40063229Y-35929016D01*
X40061018Y-35921407D01*
X40056985Y-35914588D01*
X40056983Y-35914583D01*
X40050707Y-35903972D01*
X40042012Y-35886224D01*
X40034552Y-35867383D01*
X40028898Y-35859600D01*
X40008564Y-35831613D01*
X40002048Y-35821693D01*
X39983580Y-35790465D01*
X39983578Y-35790462D01*
X39979542Y-35783638D01*
X39965221Y-35769317D01*
X39952380Y-35754283D01*
X39940472Y-35737893D01*
X39906395Y-35709702D01*
X39897616Y-35701712D01*
X36881780Y-32685875D01*
X36847754Y-32623563D01*
X36852819Y-32552747D01*
X36895366Y-32495912D01*
X36961886Y-32471101D01*
X36970845Y-32470780D01*
X38710393Y-32470476D01*
X40135604Y-32470227D01*
X40203728Y-32490217D01*
G37*
%TD.AperFunction*%
%TA.AperFunction,Conductor*%
G36*
X20859532Y-63440538D02*
G01*
X20916368Y-63483085D01*
X20941179Y-63549605D01*
X20941500Y-63558594D01*
X20941500Y-65208629D01*
X20921498Y-65276750D01*
X20904595Y-65297724D01*
X18477724Y-67724595D01*
X18415412Y-67758621D01*
X18388629Y-67761500D01*
X16695939Y-67761500D01*
X16627818Y-67741498D01*
X16590147Y-67703941D01*
X16589066Y-67702269D01*
X16580014Y-67688277D01*
X16429670Y-67523051D01*
X16425619Y-67519852D01*
X16425615Y-67519848D01*
X16258414Y-67387800D01*
X16258410Y-67387798D01*
X16254359Y-67384598D01*
X16213053Y-67361796D01*
X16163084Y-67311364D01*
X16148312Y-67241921D01*
X16173428Y-67175516D01*
X16200780Y-67148909D01*
X16244603Y-67117650D01*
X16379860Y-67021173D01*
X16409502Y-66991635D01*
X16534435Y-66867137D01*
X16538096Y-66863489D01*
X16581243Y-66803444D01*
X16665435Y-66686277D01*
X16668453Y-66682077D01*
X16670746Y-66677437D01*
X16672446Y-66674608D01*
X16724674Y-66626518D01*
X16780451Y-66613500D01*
X17241233Y-66613500D01*
X17252416Y-66614027D01*
X17259909Y-66615702D01*
X17267835Y-66615453D01*
X17267836Y-66615453D01*
X17327986Y-66613562D01*
X17331945Y-66613500D01*
X17359856Y-66613500D01*
X17363791Y-66613003D01*
X17363856Y-66612995D01*
X17375693Y-66612062D01*
X17407951Y-66611048D01*
X17411970Y-66610922D01*
X17419889Y-66610673D01*
X17439343Y-66605021D01*
X17458700Y-66601013D01*
X17470930Y-66599468D01*
X17470931Y-66599468D01*
X17478797Y-66598474D01*
X17486168Y-66595555D01*
X17486170Y-66595555D01*
X17519912Y-66582196D01*
X17531142Y-66578351D01*
X17565983Y-66568229D01*
X17565984Y-66568229D01*
X17573593Y-66566018D01*
X17580412Y-66561985D01*
X17580417Y-66561983D01*
X17591028Y-66555707D01*
X17608776Y-66547012D01*
X17627617Y-66539552D01*
X17663387Y-66513564D01*
X17673307Y-66507048D01*
X17704535Y-66488580D01*
X17704538Y-66488578D01*
X17711362Y-66484542D01*
X17725683Y-66470221D01*
X17740717Y-66457380D01*
X17750694Y-66450131D01*
X17757107Y-66445472D01*
X17785298Y-66411395D01*
X17793288Y-66402616D01*
X20726405Y-63469499D01*
X20788717Y-63435473D01*
X20859532Y-63440538D01*
G37*
%TD.AperFunction*%
%TA.AperFunction,Conductor*%
G36*
X27437103Y-34453502D02*
G01*
X27483596Y-34507158D01*
X27493700Y-34577432D01*
X27464206Y-34642012D01*
X27420231Y-34674607D01*
X27349278Y-34706197D01*
X27349276Y-34706198D01*
X27343248Y-34708882D01*
X27188747Y-34821134D01*
X27184326Y-34826044D01*
X27184325Y-34826045D01*
X27098302Y-34921584D01*
X27060960Y-34963056D01*
X26965473Y-35128444D01*
X26906458Y-35310072D01*
X26905768Y-35316633D01*
X26905768Y-35316635D01*
X26889093Y-35475293D01*
X26862080Y-35540950D01*
X26852878Y-35551218D01*
X25450357Y-36953738D01*
X24120448Y-38283647D01*
X24112162Y-38291187D01*
X24105683Y-38295299D01*
X24100258Y-38301076D01*
X24059058Y-38344950D01*
X24056303Y-38347792D01*
X24036566Y-38367529D01*
X24034086Y-38370726D01*
X24026383Y-38379746D01*
X23996115Y-38411978D01*
X23992296Y-38418924D01*
X23992294Y-38418927D01*
X23986353Y-38429733D01*
X23975502Y-38446252D01*
X23963087Y-38462258D01*
X23959942Y-38469527D01*
X23959939Y-38469531D01*
X23945527Y-38502836D01*
X23940310Y-38513486D01*
X23919006Y-38552239D01*
X23917035Y-38559914D01*
X23917035Y-38559915D01*
X23913968Y-38571861D01*
X23907564Y-38590565D01*
X23899520Y-38609154D01*
X23898281Y-38616977D01*
X23898278Y-38616987D01*
X23892602Y-38652823D01*
X23890196Y-38664443D01*
X23879201Y-38707269D01*
X23879201Y-38727523D01*
X23877650Y-38747233D01*
X23874481Y-38767242D01*
X23875227Y-38775134D01*
X23878642Y-38811260D01*
X23879201Y-38823118D01*
X23879201Y-38984775D01*
X23859199Y-39052896D01*
X23846843Y-39069078D01*
X23773661Y-39150355D01*
X23745301Y-39199476D01*
X23681967Y-39309174D01*
X23678174Y-39315743D01*
X23619159Y-39497371D01*
X23618469Y-39503932D01*
X23618469Y-39503934D01*
X23612117Y-39564373D01*
X23599197Y-39687299D01*
X23619159Y-39877227D01*
X23678174Y-40058855D01*
X23681477Y-40064577D01*
X23681478Y-40064578D01*
X23715387Y-40123309D01*
X23773661Y-40224243D01*
X23901448Y-40366165D01*
X24055949Y-40478417D01*
X24061977Y-40481101D01*
X24061979Y-40481102D01*
X24220885Y-40551851D01*
X24230413Y-40556093D01*
X24323814Y-40575946D01*
X24410757Y-40594427D01*
X24410762Y-40594427D01*
X24417214Y-40595799D01*
X24473107Y-40595799D01*
X24541228Y-40615801D01*
X24562202Y-40632704D01*
X28229595Y-44300098D01*
X28263621Y-44362410D01*
X28266500Y-44389193D01*
X28266500Y-44897476D01*
X28246498Y-44965597D01*
X28234142Y-44981779D01*
X28160960Y-45063056D01*
X28065473Y-45228444D01*
X28006458Y-45410072D01*
X28005768Y-45416633D01*
X28005768Y-45416635D01*
X27989093Y-45575292D01*
X27962080Y-45640949D01*
X27952878Y-45651217D01*
X23907747Y-49696348D01*
X23899461Y-49703888D01*
X23892982Y-49708000D01*
X23887557Y-49713777D01*
X23846357Y-49757651D01*
X23843602Y-49760493D01*
X23823865Y-49780230D01*
X23821385Y-49783427D01*
X23813682Y-49792447D01*
X23783414Y-49824679D01*
X23779595Y-49831625D01*
X23779593Y-49831628D01*
X23773652Y-49842434D01*
X23762801Y-49858953D01*
X23750386Y-49874959D01*
X23747241Y-49882228D01*
X23747238Y-49882232D01*
X23732826Y-49915537D01*
X23727609Y-49926187D01*
X23706305Y-49964940D01*
X23704334Y-49972615D01*
X23704334Y-49972616D01*
X23701267Y-49984562D01*
X23694863Y-50003266D01*
X23686819Y-50021855D01*
X23685580Y-50029678D01*
X23685577Y-50029688D01*
X23679901Y-50065524D01*
X23677495Y-50077144D01*
X23666500Y-50119970D01*
X23666500Y-50140224D01*
X23664949Y-50159934D01*
X23661780Y-50179943D01*
X23662526Y-50187835D01*
X23665941Y-50223961D01*
X23666500Y-50235819D01*
X23666500Y-56841405D01*
X23646498Y-56909526D01*
X23592842Y-56956019D01*
X23522568Y-56966123D01*
X23457988Y-56936629D01*
X23451405Y-56930500D01*
X22266547Y-55745642D01*
X22232521Y-55683330D01*
X22235809Y-55617611D01*
X22291502Y-55446206D01*
X22293542Y-55439928D01*
X22299240Y-55385720D01*
X22312814Y-55256565D01*
X22313504Y-55250000D01*
X22293542Y-55060072D01*
X22234527Y-54878444D01*
X22139040Y-54713056D01*
X22116300Y-54687800D01*
X22015675Y-54576045D01*
X22015674Y-54576044D01*
X22011253Y-54571134D01*
X21856752Y-54458882D01*
X21850724Y-54456198D01*
X21850722Y-54456197D01*
X21688319Y-54383891D01*
X21688318Y-54383891D01*
X21682288Y-54381206D01*
X21588888Y-54361353D01*
X21501944Y-54342872D01*
X21501939Y-54342872D01*
X21495487Y-54341500D01*
X21304513Y-54341500D01*
X21298061Y-54342872D01*
X21298056Y-54342872D01*
X21211112Y-54361353D01*
X21117712Y-54381206D01*
X21111682Y-54383891D01*
X21111681Y-54383891D01*
X20949278Y-54456197D01*
X20949276Y-54456198D01*
X20943248Y-54458882D01*
X20788747Y-54571134D01*
X20784326Y-54576044D01*
X20784325Y-54576045D01*
X20683701Y-54687800D01*
X20660960Y-54713056D01*
X20565473Y-54878444D01*
X20506458Y-55060072D01*
X20486496Y-55250000D01*
X20487186Y-55256565D01*
X20500761Y-55385720D01*
X20506458Y-55439928D01*
X20565473Y-55621556D01*
X20660960Y-55786944D01*
X20665378Y-55791851D01*
X20665379Y-55791852D01*
X20757600Y-55894274D01*
X20779271Y-55934691D01*
X20781526Y-55933798D01*
X20797804Y-55974912D01*
X20801649Y-55986142D01*
X20809965Y-56014767D01*
X20813982Y-56028593D01*
X20818015Y-56035412D01*
X20818017Y-56035417D01*
X20824293Y-56046028D01*
X20832988Y-56063776D01*
X20840448Y-56082617D01*
X20845110Y-56089033D01*
X20845110Y-56089034D01*
X20866436Y-56118387D01*
X20872952Y-56128307D01*
X20895458Y-56166362D01*
X20909779Y-56180683D01*
X20922619Y-56195716D01*
X20934528Y-56212107D01*
X20940634Y-56217158D01*
X20968605Y-56240298D01*
X20977384Y-56248288D01*
X23159303Y-58430207D01*
X23193329Y-58492519D01*
X23188264Y-58563334D01*
X23159303Y-58608397D01*
X19341423Y-62426276D01*
X19279111Y-62460302D01*
X19208295Y-62455237D01*
X19151460Y-62412690D01*
X19143209Y-62400181D01*
X19067341Y-62268774D01*
X19064040Y-62263056D01*
X19035505Y-62231364D01*
X18940675Y-62126045D01*
X18940674Y-62126044D01*
X18936253Y-62121134D01*
X18781752Y-62008882D01*
X18775724Y-62006198D01*
X18775722Y-62006197D01*
X18613319Y-61933891D01*
X18613318Y-61933891D01*
X18607288Y-61931206D01*
X18513888Y-61911353D01*
X18426944Y-61892872D01*
X18426939Y-61892872D01*
X18420487Y-61891500D01*
X18229513Y-61891500D01*
X18223061Y-61892872D01*
X18223056Y-61892872D01*
X18136112Y-61911353D01*
X18042712Y-61931206D01*
X18036682Y-61933891D01*
X18036681Y-61933891D01*
X17874278Y-62006197D01*
X17874276Y-62006198D01*
X17868248Y-62008882D01*
X17713747Y-62121134D01*
X17709326Y-62126044D01*
X17709325Y-62126045D01*
X17614496Y-62231364D01*
X17585960Y-62263056D01*
X17582659Y-62268774D01*
X17494982Y-62420635D01*
X17490473Y-62428444D01*
X17431458Y-62610072D01*
X17430768Y-62616633D01*
X17430768Y-62616635D01*
X17425121Y-62670364D01*
X17411496Y-62800000D01*
X17431458Y-62989928D01*
X17490473Y-63171556D01*
X17493776Y-63177278D01*
X17493777Y-63177279D01*
X17514021Y-63212342D01*
X17585960Y-63336944D01*
X17713747Y-63478866D01*
X17868248Y-63591118D01*
X17874276Y-63593802D01*
X17874278Y-63593803D01*
X18036681Y-63666109D01*
X18042712Y-63668794D01*
X18135157Y-63688444D01*
X18223056Y-63707128D01*
X18223061Y-63707128D01*
X18229513Y-63708500D01*
X18391405Y-63708500D01*
X18459526Y-63728502D01*
X18506019Y-63782158D01*
X18516123Y-63852432D01*
X18486629Y-63917012D01*
X18480500Y-63923595D01*
X17094500Y-65309595D01*
X17032188Y-65343621D01*
X17005405Y-65346500D01*
X16776805Y-65346500D01*
X16708684Y-65326498D01*
X16671013Y-65288940D01*
X16582822Y-65152617D01*
X16582820Y-65152614D01*
X16580014Y-65148277D01*
X16429670Y-64983051D01*
X16425619Y-64979852D01*
X16425615Y-64979848D01*
X16258414Y-64847800D01*
X16258410Y-64847798D01*
X16254359Y-64844598D01*
X16213053Y-64821796D01*
X16163084Y-64771364D01*
X16148312Y-64701921D01*
X16173428Y-64635516D01*
X16200780Y-64608909D01*
X16244603Y-64577650D01*
X16379860Y-64481173D01*
X16538096Y-64323489D01*
X16585885Y-64256984D01*
X16665435Y-64146277D01*
X16668453Y-64142077D01*
X16767430Y-63941811D01*
X16814863Y-63785692D01*
X16830865Y-63733023D01*
X16830865Y-63733021D01*
X16832370Y-63728069D01*
X16861529Y-63506590D01*
X16862112Y-63482749D01*
X16863074Y-63443365D01*
X16863074Y-63443361D01*
X16863156Y-63440000D01*
X16844852Y-63217361D01*
X16790431Y-63000702D01*
X16701354Y-62795840D01*
X16626354Y-62679907D01*
X16582822Y-62612617D01*
X16582820Y-62612614D01*
X16580014Y-62608277D01*
X16429670Y-62443051D01*
X16425619Y-62439852D01*
X16425615Y-62439848D01*
X16258414Y-62307800D01*
X16258410Y-62307798D01*
X16254359Y-62304598D01*
X16213053Y-62281796D01*
X16163084Y-62231364D01*
X16148312Y-62161921D01*
X16173428Y-62095516D01*
X16200780Y-62068909D01*
X16244603Y-62037650D01*
X16379860Y-61941173D01*
X16387168Y-61933891D01*
X16534435Y-61787137D01*
X16538096Y-61783489D01*
X16585885Y-61716984D01*
X16665435Y-61606277D01*
X16668453Y-61602077D01*
X16695342Y-61547672D01*
X16765136Y-61406453D01*
X16765137Y-61406451D01*
X16767430Y-61401811D01*
X16832370Y-61188069D01*
X16861529Y-60966590D01*
X16863156Y-60900000D01*
X16844852Y-60677361D01*
X16790431Y-60460702D01*
X16701354Y-60255840D01*
X16619490Y-60129297D01*
X16582822Y-60072617D01*
X16582820Y-60072614D01*
X16580014Y-60068277D01*
X16429670Y-59903051D01*
X16425619Y-59899852D01*
X16425615Y-59899848D01*
X16258414Y-59767800D01*
X16258410Y-59767798D01*
X16254359Y-59764598D01*
X16213053Y-59741796D01*
X16163084Y-59691364D01*
X16148312Y-59621921D01*
X16173428Y-59555516D01*
X16200780Y-59528909D01*
X16285058Y-59468794D01*
X16379860Y-59401173D01*
X16538096Y-59243489D01*
X16550525Y-59226193D01*
X16665435Y-59066277D01*
X16668453Y-59062077D01*
X16727070Y-58943475D01*
X16765136Y-58866453D01*
X16765137Y-58866451D01*
X16767430Y-58861811D01*
X16816078Y-58701692D01*
X16830865Y-58653023D01*
X16830865Y-58653021D01*
X16832370Y-58648069D01*
X16861529Y-58426590D01*
X16863156Y-58360000D01*
X16844852Y-58137361D01*
X16790431Y-57920702D01*
X16701354Y-57715840D01*
X16580014Y-57528277D01*
X16429670Y-57363051D01*
X16425619Y-57359852D01*
X16425615Y-57359848D01*
X16258414Y-57227800D01*
X16258410Y-57227798D01*
X16254359Y-57224598D01*
X16213053Y-57201796D01*
X16163084Y-57151364D01*
X16148312Y-57081921D01*
X16173428Y-57015516D01*
X16200780Y-56988909D01*
X16246890Y-56956019D01*
X16379860Y-56861173D01*
X16538096Y-56703489D01*
X16597594Y-56620689D01*
X16665435Y-56526277D01*
X16668453Y-56522077D01*
X16767430Y-56321811D01*
X16832370Y-56108069D01*
X16861529Y-55886590D01*
X16863156Y-55820000D01*
X16844852Y-55597361D01*
X16790431Y-55380702D01*
X16701354Y-55175840D01*
X16580014Y-54988277D01*
X16429670Y-54823051D01*
X16425619Y-54819852D01*
X16425615Y-54819848D01*
X16258414Y-54687800D01*
X16258410Y-54687798D01*
X16254359Y-54684598D01*
X16213053Y-54661796D01*
X16163084Y-54611364D01*
X16148312Y-54541921D01*
X16173428Y-54475516D01*
X16200780Y-54448909D01*
X16244603Y-54417650D01*
X16379860Y-54321173D01*
X16538096Y-54163489D01*
X16597594Y-54080689D01*
X16665435Y-53986277D01*
X16668453Y-53982077D01*
X16767430Y-53781811D01*
X16832370Y-53568069D01*
X16861529Y-53346590D01*
X16862006Y-53327063D01*
X16863074Y-53283365D01*
X16863074Y-53283361D01*
X16863156Y-53280000D01*
X16844852Y-53057361D01*
X16790431Y-52840702D01*
X16701354Y-52635840D01*
X16630906Y-52526944D01*
X16582822Y-52452617D01*
X16582820Y-52452614D01*
X16580014Y-52448277D01*
X16429670Y-52283051D01*
X16425619Y-52279852D01*
X16425615Y-52279848D01*
X16258414Y-52147800D01*
X16258410Y-52147798D01*
X16254359Y-52144598D01*
X16213053Y-52121796D01*
X16163084Y-52071364D01*
X16148312Y-52001921D01*
X16173428Y-51935516D01*
X16200780Y-51908909D01*
X16244603Y-51877650D01*
X16379860Y-51781173D01*
X16538096Y-51623489D01*
X16544672Y-51614338D01*
X16600667Y-51570691D01*
X16671370Y-51564245D01*
X16736089Y-51598770D01*
X17279875Y-52142556D01*
X17310613Y-52192714D01*
X17365473Y-52361556D01*
X17460960Y-52526944D01*
X17465378Y-52531851D01*
X17465379Y-52531852D01*
X17536982Y-52611375D01*
X17588747Y-52668866D01*
X17743248Y-52781118D01*
X17749276Y-52783802D01*
X17749278Y-52783803D01*
X17888347Y-52845720D01*
X17917712Y-52858794D01*
X18011112Y-52878647D01*
X18098056Y-52897128D01*
X18098061Y-52897128D01*
X18104513Y-52898500D01*
X18295487Y-52898500D01*
X18301939Y-52897128D01*
X18301944Y-52897128D01*
X18388888Y-52878647D01*
X18482288Y-52858794D01*
X18511653Y-52845720D01*
X18650722Y-52783803D01*
X18650724Y-52783802D01*
X18656752Y-52781118D01*
X18811253Y-52668866D01*
X18863018Y-52611375D01*
X18934621Y-52531852D01*
X18934622Y-52531851D01*
X18939040Y-52526944D01*
X19034527Y-52361556D01*
X19093542Y-52179928D01*
X19094715Y-52168774D01*
X19112814Y-51996565D01*
X19113504Y-51990000D01*
X19099139Y-51853327D01*
X19094232Y-51806635D01*
X19094232Y-51806633D01*
X19093542Y-51800072D01*
X19034527Y-51618444D01*
X18939040Y-51453056D01*
X18811253Y-51311134D01*
X18712157Y-51239136D01*
X18662094Y-51202763D01*
X18662093Y-51202762D01*
X18656752Y-51198882D01*
X18650724Y-51196198D01*
X18650722Y-51196197D01*
X18488319Y-51123891D01*
X18488318Y-51123891D01*
X18482288Y-51121206D01*
X18475833Y-51119834D01*
X18475824Y-51119831D01*
X18419228Y-51107801D01*
X18356331Y-51073650D01*
X17945405Y-50662724D01*
X17911379Y-50600412D01*
X17908500Y-50573629D01*
X17908500Y-40291371D01*
X17928502Y-40223250D01*
X17945405Y-40202276D01*
X18552276Y-39595405D01*
X18614588Y-39561379D01*
X18641371Y-39558500D01*
X19757413Y-39558500D01*
X19831472Y-39582563D01*
X19837902Y-39587235D01*
X19837909Y-39587239D01*
X19843248Y-39591118D01*
X19849276Y-39593802D01*
X19849278Y-39593803D01*
X20011681Y-39666109D01*
X20017712Y-39668794D01*
X20104771Y-39687299D01*
X20198056Y-39707128D01*
X20198061Y-39707128D01*
X20204513Y-39708500D01*
X20395487Y-39708500D01*
X20401939Y-39707128D01*
X20401944Y-39707128D01*
X20495229Y-39687299D01*
X20582288Y-39668794D01*
X20588319Y-39666109D01*
X20750722Y-39593803D01*
X20750724Y-39593802D01*
X20756752Y-39591118D01*
X20762097Y-39587235D01*
X20812157Y-39550864D01*
X20911253Y-39478866D01*
X20944354Y-39442104D01*
X21034621Y-39341852D01*
X21034622Y-39341851D01*
X21039040Y-39336944D01*
X21134527Y-39171556D01*
X21193542Y-38989928D01*
X21196971Y-38957308D01*
X21212814Y-38806565D01*
X21213504Y-38800000D01*
X21206929Y-38737438D01*
X21194232Y-38616635D01*
X21194232Y-38616633D01*
X21193542Y-38610072D01*
X21134527Y-38428444D01*
X21129033Y-38418927D01*
X21100426Y-38369379D01*
X21075381Y-38326000D01*
X21058500Y-38263001D01*
X21058500Y-36916371D01*
X21078502Y-36848250D01*
X21095405Y-36827276D01*
X23452276Y-34470405D01*
X23514588Y-34436379D01*
X23541371Y-34433500D01*
X27368982Y-34433500D01*
X27437103Y-34453502D01*
G37*
%TD.AperFunction*%
%TA.AperFunction,Conductor*%
G36*
X32477722Y-34903502D02*
G01*
X32498696Y-34920405D01*
X33195087Y-35616796D01*
X33202631Y-35625086D01*
X33206744Y-35631567D01*
X33212521Y-35636992D01*
X33256411Y-35678207D01*
X33259253Y-35680962D01*
X33278974Y-35700683D01*
X33282169Y-35703161D01*
X33291191Y-35710867D01*
X33323423Y-35741135D01*
X33330372Y-35744955D01*
X33341176Y-35750895D01*
X33357700Y-35761748D01*
X33373703Y-35774162D01*
X33414287Y-35791725D01*
X33424917Y-35796932D01*
X33463684Y-35818244D01*
X33471361Y-35820215D01*
X33471366Y-35820217D01*
X33483302Y-35823281D01*
X33502010Y-35829686D01*
X33520599Y-35837730D01*
X33528424Y-35838969D01*
X33528426Y-35838970D01*
X33564263Y-35844646D01*
X33575884Y-35847053D01*
X33611033Y-35856077D01*
X33618714Y-35858049D01*
X33638975Y-35858049D01*
X33658684Y-35859600D01*
X33678687Y-35862768D01*
X33686579Y-35862022D01*
X33691806Y-35861528D01*
X33722698Y-35858608D01*
X33734555Y-35858049D01*
X35041751Y-35858049D01*
X35109872Y-35878051D01*
X35129098Y-35894392D01*
X35129371Y-35894089D01*
X35134283Y-35898512D01*
X35138698Y-35903415D01*
X35144037Y-35907294D01*
X35283789Y-36008830D01*
X35293199Y-36015667D01*
X35299224Y-36018349D01*
X35299237Y-36018357D01*
X35302360Y-36019747D01*
X35303873Y-36021033D01*
X35304952Y-36021656D01*
X35304838Y-36021853D01*
X35356454Y-36065729D01*
X35377100Y-36133657D01*
X35357745Y-36201964D01*
X35340201Y-36223946D01*
X33611089Y-37953058D01*
X33596677Y-37965444D01*
X33585082Y-37973977D01*
X33585077Y-37973982D01*
X33579182Y-37978320D01*
X33574443Y-37983898D01*
X33574440Y-37983901D01*
X33544965Y-38018596D01*
X33538035Y-38026112D01*
X33532340Y-38031807D01*
X33530060Y-38034689D01*
X33514719Y-38054079D01*
X33511928Y-38057483D01*
X33469409Y-38107531D01*
X33464667Y-38113113D01*
X33461339Y-38119629D01*
X33457972Y-38124678D01*
X33454805Y-38129807D01*
X33450266Y-38135544D01*
X33419345Y-38201703D01*
X33417442Y-38205597D01*
X33384231Y-38270636D01*
X33382492Y-38277744D01*
X33380393Y-38283387D01*
X33378476Y-38289150D01*
X33375378Y-38295778D01*
X33373888Y-38302940D01*
X33373888Y-38302941D01*
X33360514Y-38367240D01*
X33359544Y-38371524D01*
X33342192Y-38442438D01*
X33341500Y-38453592D01*
X33341464Y-38453590D01*
X33341225Y-38457583D01*
X33340851Y-38461775D01*
X33339360Y-38468943D01*
X33339558Y-38476260D01*
X33341454Y-38546349D01*
X33341500Y-38549756D01*
X33341500Y-41808934D01*
X33321498Y-41877055D01*
X33304595Y-41898029D01*
X29937468Y-45265156D01*
X29875156Y-45299182D01*
X29804341Y-45294117D01*
X29747505Y-45251570D01*
X29735265Y-45230716D01*
X29734527Y-45228444D01*
X29639040Y-45063056D01*
X29565863Y-44981785D01*
X29535147Y-44917779D01*
X29533500Y-44897476D01*
X29533500Y-44153366D01*
X29534027Y-44142183D01*
X29535702Y-44134690D01*
X29533562Y-44066599D01*
X29533500Y-44062642D01*
X29533500Y-44034742D01*
X29532996Y-44030751D01*
X29532063Y-44018909D01*
X29530923Y-43982634D01*
X29530674Y-43974709D01*
X29528462Y-43967095D01*
X29528461Y-43967090D01*
X29525023Y-43955257D01*
X29521012Y-43935893D01*
X29519467Y-43923662D01*
X29518474Y-43915801D01*
X29515557Y-43908434D01*
X29515556Y-43908429D01*
X29502198Y-43874690D01*
X29498354Y-43863463D01*
X29488230Y-43828620D01*
X29486018Y-43821005D01*
X29475707Y-43803570D01*
X29467012Y-43785822D01*
X29459552Y-43766981D01*
X29439238Y-43739020D01*
X29433564Y-43731211D01*
X29427048Y-43721291D01*
X29408580Y-43690063D01*
X29408578Y-43690060D01*
X29404542Y-43683236D01*
X29390221Y-43668915D01*
X29377380Y-43653881D01*
X29370131Y-43643904D01*
X29365472Y-43637491D01*
X29331395Y-43609300D01*
X29322616Y-43601310D01*
X25459823Y-39738516D01*
X25425797Y-39676204D01*
X25423608Y-39662591D01*
X25406933Y-39503934D01*
X25406933Y-39503932D01*
X25406243Y-39497371D01*
X25347228Y-39315743D01*
X25343436Y-39309174D01*
X25280101Y-39199476D01*
X25251741Y-39150355D01*
X25234054Y-39130711D01*
X25203338Y-39066707D01*
X25212101Y-38996253D01*
X25238596Y-38957308D01*
X27750500Y-36445405D01*
X27812812Y-36411379D01*
X27839595Y-36408500D01*
X27895487Y-36408500D01*
X27901939Y-36407128D01*
X27901944Y-36407128D01*
X27988888Y-36388647D01*
X28082288Y-36368794D01*
X28088319Y-36366109D01*
X28250722Y-36293803D01*
X28250724Y-36293802D01*
X28256752Y-36291118D01*
X28266814Y-36283808D01*
X28356323Y-36218775D01*
X28411253Y-36178866D01*
X28448184Y-36137850D01*
X28534621Y-36041852D01*
X28534622Y-36041851D01*
X28539040Y-36036944D01*
X28634527Y-35871556D01*
X28693542Y-35689928D01*
X28694485Y-35680962D01*
X28710907Y-35524708D01*
X28737920Y-35459051D01*
X28747122Y-35448782D01*
X29275501Y-34920404D01*
X29337813Y-34886379D01*
X29364596Y-34883500D01*
X32409601Y-34883500D01*
X32477722Y-34903502D01*
G37*
%TD.AperFunction*%
%TA.AperFunction,Conductor*%
G36*
X21907750Y-33653502D02*
G01*
X21954243Y-33707158D01*
X21964347Y-33777432D01*
X21934853Y-33842012D01*
X21928724Y-33848595D01*
X19811089Y-35966230D01*
X19796677Y-35978616D01*
X19785082Y-35987149D01*
X19785077Y-35987154D01*
X19779182Y-35991492D01*
X19774443Y-35997070D01*
X19774440Y-35997073D01*
X19744965Y-36031768D01*
X19738035Y-36039284D01*
X19732340Y-36044979D01*
X19730060Y-36047861D01*
X19714719Y-36067251D01*
X19711928Y-36070655D01*
X19692185Y-36093894D01*
X19664667Y-36126285D01*
X19661339Y-36132801D01*
X19657972Y-36137850D01*
X19654805Y-36142979D01*
X19650266Y-36148716D01*
X19619345Y-36214875D01*
X19617442Y-36218769D01*
X19584231Y-36283808D01*
X19582492Y-36290916D01*
X19580393Y-36296559D01*
X19578476Y-36302322D01*
X19575378Y-36308950D01*
X19562931Y-36368794D01*
X19560514Y-36380412D01*
X19559544Y-36384696D01*
X19542192Y-36455610D01*
X19541500Y-36466764D01*
X19541464Y-36466762D01*
X19541225Y-36470755D01*
X19540851Y-36474947D01*
X19539360Y-36482115D01*
X19539558Y-36489432D01*
X19541454Y-36559521D01*
X19541500Y-36562928D01*
X19541500Y-36664629D01*
X19521498Y-36732750D01*
X19467842Y-36779243D01*
X19397568Y-36789347D01*
X19332988Y-36759853D01*
X19326405Y-36753724D01*
X18008770Y-35436089D01*
X17996384Y-35421677D01*
X17987851Y-35410082D01*
X17987846Y-35410077D01*
X17983508Y-35404182D01*
X17977930Y-35399443D01*
X17977927Y-35399440D01*
X17943232Y-35369965D01*
X17935716Y-35363035D01*
X17930021Y-35357340D01*
X17927142Y-35355062D01*
X17907732Y-35339705D01*
X17904333Y-35336918D01*
X17880458Y-35316635D01*
X17862518Y-35301394D01*
X17850462Y-35289680D01*
X17815677Y-35251046D01*
X17815670Y-35251040D01*
X17811253Y-35246134D01*
X17656752Y-35133882D01*
X17650724Y-35131198D01*
X17650722Y-35131197D01*
X17488319Y-35058891D01*
X17488318Y-35058891D01*
X17482288Y-35056206D01*
X17388888Y-35036353D01*
X17301944Y-35017872D01*
X17301939Y-35017872D01*
X17295487Y-35016500D01*
X17104513Y-35016500D01*
X17098061Y-35017872D01*
X17098056Y-35017872D01*
X17010697Y-35036441D01*
X16939906Y-35031039D01*
X16883273Y-34988222D01*
X16858780Y-34921584D01*
X16858500Y-34913194D01*
X16858500Y-34601866D01*
X16851745Y-34539684D01*
X16800615Y-34403295D01*
X16713261Y-34286739D01*
X16684311Y-34265042D01*
X16641797Y-34208182D01*
X16636773Y-34137363D01*
X16670783Y-34075121D01*
X16842639Y-33903266D01*
X17075501Y-33670404D01*
X17137813Y-33636379D01*
X17164596Y-33633500D01*
X21839629Y-33633500D01*
X21907750Y-33653502D01*
G37*
%TD.AperFunction*%
%TD*%
M02*
