%TF.GenerationSoftware,KiCad,Pcbnew,(6.0.10)*%
%TF.CreationDate,2023-02-05T17:29:38-05:00*%
%TF.ProjectId,MrKoh,4d724b6f-682e-46b6-9963-61645f706362,1*%
%TF.SameCoordinates,Original*%
%TF.FileFunction,Legend,Top*%
%TF.FilePolarity,Positive*%
%FSLAX46Y46*%
G04 Gerber Fmt 4.6, Leading zero omitted, Abs format (unit mm)*
G04 Created by KiCad (PCBNEW (6.0.10)) date 2023-02-05 17:29:38*
%MOMM*%
%LPD*%
G01*
G04 APERTURE LIST*
G04 Aperture macros list*
%AMRoundRect*
0 Rectangle with rounded corners*
0 $1 Rounding radius*
0 $2 $3 $4 $5 $6 $7 $8 $9 X,Y pos of 4 corners*
0 Add a 4 corners polygon primitive as box body*
4,1,4,$2,$3,$4,$5,$6,$7,$8,$9,$2,$3,0*
0 Add four circle primitives for the rounded corners*
1,1,$1+$1,$2,$3*
1,1,$1+$1,$4,$5*
1,1,$1+$1,$6,$7*
1,1,$1+$1,$8,$9*
0 Add four rect primitives between the rounded corners*
20,1,$1+$1,$2,$3,$4,$5,0*
20,1,$1+$1,$4,$5,$6,$7,0*
20,1,$1+$1,$6,$7,$8,$9,0*
20,1,$1+$1,$8,$9,$2,$3,0*%
G04 Aperture macros list end*
%ADD10C,0.100000*%
%ADD11C,0.150000*%
%ADD12C,0.500000*%
%ADD13C,0.120000*%
%ADD14RoundRect,0.218750X-0.218750X-0.256250X0.218750X-0.256250X0.218750X0.256250X-0.218750X0.256250X0*%
%ADD15C,1.152000*%
%ADD16RoundRect,0.250000X-0.250000X-0.475000X0.250000X-0.475000X0.250000X0.475000X-0.250000X0.475000X0*%
%ADD17RoundRect,0.140000X-0.170000X0.140000X-0.170000X-0.140000X0.170000X-0.140000X0.170000X0.140000X0*%
%ADD18RoundRect,0.140000X0.170000X-0.140000X0.170000X0.140000X-0.170000X0.140000X-0.170000X-0.140000X0*%
%ADD19RoundRect,0.147500X0.172500X-0.147500X0.172500X0.147500X-0.172500X0.147500X-0.172500X-0.147500X0*%
%ADD20R,1.700000X1.700000*%
%ADD21O,1.700000X1.700000*%
%ADD22RoundRect,0.140000X-0.140000X-0.170000X0.140000X-0.170000X0.140000X0.170000X-0.140000X0.170000X0*%
%ADD23R,1.000000X1.800000*%
%ADD24RoundRect,0.135000X-0.135000X-0.185000X0.135000X-0.185000X0.135000X0.185000X-0.135000X0.185000X0*%
%ADD25RoundRect,0.135000X-0.185000X0.135000X-0.185000X-0.135000X0.185000X-0.135000X0.185000X0.135000X0*%
%ADD26RoundRect,0.140000X0.140000X0.170000X-0.140000X0.170000X-0.140000X-0.170000X0.140000X-0.170000X0*%
%ADD27RoundRect,0.225000X-0.225000X-0.250000X0.225000X-0.250000X0.225000X0.250000X-0.225000X0.250000X0*%
%ADD28RoundRect,0.062500X-0.062500X0.375000X-0.062500X-0.375000X0.062500X-0.375000X0.062500X0.375000X0*%
%ADD29RoundRect,0.062500X-0.375000X0.062500X-0.375000X-0.062500X0.375000X-0.062500X0.375000X0.062500X0*%
%ADD30R,3.450000X3.450000*%
%ADD31RoundRect,0.200000X0.200000X0.800000X-0.200000X0.800000X-0.200000X-0.800000X0.200000X-0.800000X0*%
%ADD32O,1.000000X1.600000*%
%ADD33C,0.650000*%
%ADD34O,1.000000X2.100000*%
%ADD35R,0.600000X1.450000*%
%ADD36R,0.300000X1.450000*%
%ADD37R,1.200000X1.400000*%
%ADD38RoundRect,0.135000X0.135000X0.185000X-0.135000X0.185000X-0.135000X-0.185000X0.135000X-0.185000X0*%
%ADD39RoundRect,0.150000X0.512500X0.150000X-0.512500X0.150000X-0.512500X-0.150000X0.512500X-0.150000X0*%
%ADD40RoundRect,0.147500X-0.147500X-0.172500X0.147500X-0.172500X0.147500X0.172500X-0.147500X0.172500X0*%
%ADD41R,2.000000X1.500000*%
%ADD42R,2.000000X3.800000*%
%ADD43RoundRect,0.225000X-0.250000X0.225000X-0.250000X-0.225000X0.250000X-0.225000X0.250000X0.225000X0*%
%ADD44R,1.500000X0.900000*%
G04 APERTURE END LIST*
D10*
X16760000Y-33536666D02*
X16360000Y-33536666D01*
X16560000Y-33536666D02*
X16560000Y-32836666D01*
X16493333Y-32936666D01*
X16426666Y-33003333D01*
X16360000Y-33036666D01*
X17360000Y-74123333D02*
X17326666Y-74190000D01*
X17326666Y-74290000D01*
X17360000Y-74390000D01*
X17426666Y-74456666D01*
X17493333Y-74490000D01*
X17626666Y-74523333D01*
X17726666Y-74523333D01*
X17860000Y-74490000D01*
X17926666Y-74456666D01*
X17993333Y-74390000D01*
X18026666Y-74290000D01*
X18026666Y-74223333D01*
X17993333Y-74123333D01*
X17960000Y-74090000D01*
X17726666Y-74090000D01*
X17726666Y-74223333D01*
X18026666Y-73790000D02*
X17326666Y-73790000D01*
X18026666Y-73390000D01*
X17326666Y-73390000D01*
X18026666Y-73056666D02*
X17326666Y-73056666D01*
X17326666Y-72890000D01*
X17360000Y-72790000D01*
X17426666Y-72723333D01*
X17493333Y-72690000D01*
X17626666Y-72656666D01*
X17726666Y-72656666D01*
X17860000Y-72690000D01*
X17926666Y-72723333D01*
X17993333Y-72790000D01*
X18026666Y-72890000D01*
X18026666Y-73056666D01*
X17426666Y-70773333D02*
X17460000Y-70740000D01*
X17526666Y-70706666D01*
X17693333Y-70706666D01*
X17760000Y-70740000D01*
X17793333Y-70773333D01*
X17826666Y-70840000D01*
X17826666Y-70906666D01*
X17793333Y-71006666D01*
X17393333Y-71406666D01*
X17826666Y-71406666D01*
X18493333Y-71406666D02*
X18093333Y-71406666D01*
X18293333Y-71406666D02*
X18293333Y-70706666D01*
X18226666Y-70806666D01*
X18160000Y-70873333D01*
X18093333Y-70906666D01*
X17406666Y-68193333D02*
X17440000Y-68160000D01*
X17506666Y-68126666D01*
X17673333Y-68126666D01*
X17740000Y-68160000D01*
X17773333Y-68193333D01*
X17806666Y-68260000D01*
X17806666Y-68326666D01*
X17773333Y-68426666D01*
X17373333Y-68826666D01*
X17806666Y-68826666D01*
X18240000Y-68126666D02*
X18306666Y-68126666D01*
X18373333Y-68160000D01*
X18406666Y-68193333D01*
X18440000Y-68260000D01*
X18473333Y-68393333D01*
X18473333Y-68560000D01*
X18440000Y-68693333D01*
X18406666Y-68760000D01*
X18373333Y-68793333D01*
X18306666Y-68826666D01*
X18240000Y-68826666D01*
X18173333Y-68793333D01*
X18140000Y-68760000D01*
X18106666Y-68693333D01*
X18073333Y-68560000D01*
X18073333Y-68393333D01*
X18106666Y-68260000D01*
X18140000Y-68193333D01*
X18173333Y-68160000D01*
X18240000Y-68126666D01*
X17393333Y-64996666D02*
X17826666Y-64996666D01*
X17593333Y-65263333D01*
X17693333Y-65263333D01*
X17760000Y-65296666D01*
X17793333Y-65330000D01*
X17826666Y-65396666D01*
X17826666Y-65563333D01*
X17793333Y-65630000D01*
X17760000Y-65663333D01*
X17693333Y-65696666D01*
X17493333Y-65696666D01*
X17426666Y-65663333D01*
X17393333Y-65630000D01*
X18026666Y-64996666D02*
X18260000Y-65696666D01*
X18493333Y-64996666D01*
X18660000Y-64996666D02*
X19093333Y-64996666D01*
X18860000Y-65263333D01*
X18960000Y-65263333D01*
X19026666Y-65296666D01*
X19060000Y-65330000D01*
X19093333Y-65396666D01*
X19093333Y-65563333D01*
X19060000Y-65630000D01*
X19026666Y-65663333D01*
X18960000Y-65696666D01*
X18760000Y-65696666D01*
X18693333Y-65663333D01*
X18660000Y-65630000D01*
X17766666Y-63256666D02*
X17433333Y-63256666D01*
X17400000Y-63590000D01*
X17433333Y-63556666D01*
X17500000Y-63523333D01*
X17666666Y-63523333D01*
X17733333Y-63556666D01*
X17766666Y-63590000D01*
X17800000Y-63656666D01*
X17800000Y-63823333D01*
X17766666Y-63890000D01*
X17733333Y-63923333D01*
X17666666Y-63956666D01*
X17500000Y-63956666D01*
X17433333Y-63923333D01*
X17400000Y-63890000D01*
X18000000Y-63256666D02*
X18233333Y-63956666D01*
X18466666Y-63256666D01*
X17806666Y-61706666D02*
X17573333Y-61373333D01*
X17406666Y-61706666D02*
X17406666Y-61006666D01*
X17673333Y-61006666D01*
X17740000Y-61040000D01*
X17773333Y-61073333D01*
X17806666Y-61140000D01*
X17806666Y-61240000D01*
X17773333Y-61306666D01*
X17740000Y-61340000D01*
X17673333Y-61373333D01*
X17406666Y-61373333D01*
X18473333Y-61040000D02*
X18406666Y-61006666D01*
X18306666Y-61006666D01*
X18206666Y-61040000D01*
X18140000Y-61106666D01*
X18106666Y-61173333D01*
X18073333Y-61306666D01*
X18073333Y-61406666D01*
X18106666Y-61540000D01*
X18140000Y-61606666D01*
X18206666Y-61673333D01*
X18306666Y-61706666D01*
X18373333Y-61706666D01*
X18473333Y-61673333D01*
X18506666Y-61640000D01*
X18506666Y-61406666D01*
X18373333Y-61406666D01*
X19040000Y-61340000D02*
X19140000Y-61373333D01*
X19173333Y-61406666D01*
X19206666Y-61473333D01*
X19206666Y-61573333D01*
X19173333Y-61640000D01*
X19140000Y-61673333D01*
X19073333Y-61706666D01*
X18806666Y-61706666D01*
X18806666Y-61006666D01*
X19040000Y-61006666D01*
X19106666Y-61040000D01*
X19140000Y-61073333D01*
X19173333Y-61140000D01*
X19173333Y-61206666D01*
X19140000Y-61273333D01*
X19106666Y-61306666D01*
X19040000Y-61340000D01*
X18806666Y-61340000D01*
X17736666Y-58616666D02*
X17336666Y-58616666D01*
X17536666Y-58616666D02*
X17536666Y-57916666D01*
X17470000Y-58016666D01*
X17403333Y-58083333D01*
X17336666Y-58116666D01*
X18170000Y-57916666D02*
X18236666Y-57916666D01*
X18303333Y-57950000D01*
X18336666Y-57983333D01*
X18370000Y-58050000D01*
X18403333Y-58183333D01*
X18403333Y-58350000D01*
X18370000Y-58483333D01*
X18336666Y-58550000D01*
X18303333Y-58583333D01*
X18236666Y-58616666D01*
X18170000Y-58616666D01*
X18103333Y-58583333D01*
X18070000Y-58550000D01*
X18036666Y-58483333D01*
X18003333Y-58350000D01*
X18003333Y-58183333D01*
X18036666Y-58050000D01*
X18070000Y-57983333D01*
X18103333Y-57950000D01*
X18170000Y-57916666D01*
X17366666Y-50136666D02*
X17833333Y-50136666D01*
X17533333Y-50836666D01*
X17753333Y-47766666D02*
X17620000Y-47766666D01*
X17553333Y-47800000D01*
X17520000Y-47833333D01*
X17453333Y-47933333D01*
X17420000Y-48066666D01*
X17420000Y-48333333D01*
X17453333Y-48400000D01*
X17486666Y-48433333D01*
X17553333Y-48466666D01*
X17686666Y-48466666D01*
X17753333Y-48433333D01*
X17786666Y-48400000D01*
X17820000Y-48333333D01*
X17820000Y-48166666D01*
X17786666Y-48100000D01*
X17753333Y-48066666D01*
X17686666Y-48033333D01*
X17553333Y-48033333D01*
X17486666Y-48066666D01*
X17453333Y-48100000D01*
X17420000Y-48166666D01*
X17826666Y-45226666D02*
X17493333Y-45226666D01*
X17460000Y-45560000D01*
X17493333Y-45526666D01*
X17560000Y-45493333D01*
X17726666Y-45493333D01*
X17793333Y-45526666D01*
X17826666Y-45560000D01*
X17860000Y-45626666D01*
X17860000Y-45793333D01*
X17826666Y-45860000D01*
X17793333Y-45893333D01*
X17726666Y-45926666D01*
X17560000Y-45926666D01*
X17493333Y-45893333D01*
X17460000Y-45860000D01*
X17723333Y-42970000D02*
X17723333Y-43436666D01*
X17556666Y-42703333D02*
X17390000Y-43203333D01*
X17823333Y-43203333D01*
X17366666Y-39806666D02*
X17800000Y-39806666D01*
X17566666Y-40073333D01*
X17666666Y-40073333D01*
X17733333Y-40106666D01*
X17766666Y-40140000D01*
X17800000Y-40206666D01*
X17800000Y-40373333D01*
X17766666Y-40440000D01*
X17733333Y-40473333D01*
X17666666Y-40506666D01*
X17466666Y-40506666D01*
X17400000Y-40473333D01*
X17366666Y-40440000D01*
X17460000Y-38073333D02*
X17493333Y-38040000D01*
X17560000Y-38006666D01*
X17726666Y-38006666D01*
X17793333Y-38040000D01*
X17826666Y-38073333D01*
X17860000Y-38140000D01*
X17860000Y-38206666D01*
X17826666Y-38306666D01*
X17426666Y-38706666D01*
X17860000Y-38706666D01*
D11*
X38582380Y-76112380D02*
X38106190Y-76445714D01*
X38582380Y-76683809D02*
X37582380Y-76683809D01*
X37582380Y-76302857D01*
X37630000Y-76207619D01*
X37677619Y-76160000D01*
X37772857Y-76112380D01*
X37915714Y-76112380D01*
X38010952Y-76160000D01*
X38058571Y-76207619D01*
X38106190Y-76302857D01*
X38106190Y-76683809D01*
X38582380Y-75683809D02*
X37582380Y-75683809D01*
X38534761Y-75255238D02*
X38582380Y-75112380D01*
X38582380Y-74874285D01*
X38534761Y-74779047D01*
X38487142Y-74731428D01*
X38391904Y-74683809D01*
X38296666Y-74683809D01*
X38201428Y-74731428D01*
X38153809Y-74779047D01*
X38106190Y-74874285D01*
X38058571Y-75064761D01*
X38010952Y-75160000D01*
X37963333Y-75207619D01*
X37868095Y-75255238D01*
X37772857Y-75255238D01*
X37677619Y-75207619D01*
X37630000Y-75160000D01*
X37582380Y-75064761D01*
X37582380Y-74826666D01*
X37630000Y-74683809D01*
X38487142Y-73683809D02*
X38534761Y-73731428D01*
X38582380Y-73874285D01*
X38582380Y-73969523D01*
X38534761Y-74112380D01*
X38439523Y-74207619D01*
X38344285Y-74255238D01*
X38153809Y-74302857D01*
X38010952Y-74302857D01*
X37820476Y-74255238D01*
X37725238Y-74207619D01*
X37630000Y-74112380D01*
X37582380Y-73969523D01*
X37582380Y-73874285D01*
X37630000Y-73731428D01*
X37677619Y-73683809D01*
X38201428Y-73255238D02*
X38201428Y-72493333D01*
X37582380Y-72160000D02*
X38582380Y-71826666D01*
X37582380Y-71493333D01*
D10*
X20796666Y-66720000D02*
X20730000Y-66686666D01*
X20630000Y-66686666D01*
X20530000Y-66720000D01*
X20463333Y-66786666D01*
X20430000Y-66853333D01*
X20396666Y-66986666D01*
X20396666Y-67086666D01*
X20430000Y-67220000D01*
X20463333Y-67286666D01*
X20530000Y-67353333D01*
X20630000Y-67386666D01*
X20696666Y-67386666D01*
X20796666Y-67353333D01*
X20830000Y-67320000D01*
X20830000Y-67086666D01*
X20696666Y-67086666D01*
X21130000Y-67386666D02*
X21130000Y-66686666D01*
X21396666Y-66686666D01*
X21463333Y-66720000D01*
X21496666Y-66753333D01*
X21530000Y-66820000D01*
X21530000Y-66920000D01*
X21496666Y-66986666D01*
X21463333Y-67020000D01*
X21396666Y-67053333D01*
X21130000Y-67053333D01*
X21830000Y-67386666D02*
X21830000Y-66686666D01*
X22296666Y-66686666D02*
X22430000Y-66686666D01*
X22496666Y-66720000D01*
X22563333Y-66786666D01*
X22596666Y-66920000D01*
X22596666Y-67153333D01*
X22563333Y-67286666D01*
X22496666Y-67353333D01*
X22430000Y-67386666D01*
X22296666Y-67386666D01*
X22230000Y-67353333D01*
X22163333Y-67286666D01*
X22130000Y-67153333D01*
X22130000Y-66920000D01*
X22163333Y-66786666D01*
X22230000Y-66720000D01*
X22296666Y-66686666D01*
X22930000Y-67386666D02*
X23063333Y-67386666D01*
X23130000Y-67353333D01*
X23163333Y-67320000D01*
X23230000Y-67220000D01*
X23263333Y-67086666D01*
X23263333Y-66820000D01*
X23230000Y-66753333D01*
X23196666Y-66720000D01*
X23130000Y-66686666D01*
X22996666Y-66686666D01*
X22930000Y-66720000D01*
X22896666Y-66753333D01*
X22863333Y-66820000D01*
X22863333Y-66986666D01*
X22896666Y-67053333D01*
X22930000Y-67086666D01*
X22996666Y-67120000D01*
X23130000Y-67120000D01*
X23196666Y-67086666D01*
X23230000Y-67053333D01*
X23263333Y-66986666D01*
X20673333Y-65890000D02*
X20773333Y-65923333D01*
X20806666Y-65956666D01*
X20840000Y-66023333D01*
X20840000Y-66123333D01*
X20806666Y-66190000D01*
X20773333Y-66223333D01*
X20706666Y-66256666D01*
X20440000Y-66256666D01*
X20440000Y-65556666D01*
X20673333Y-65556666D01*
X20740000Y-65590000D01*
X20773333Y-65623333D01*
X20806666Y-65690000D01*
X20806666Y-65756666D01*
X20773333Y-65823333D01*
X20740000Y-65856666D01*
X20673333Y-65890000D01*
X20440000Y-65890000D01*
X21273333Y-65556666D02*
X21406666Y-65556666D01*
X21473333Y-65590000D01*
X21540000Y-65656666D01*
X21573333Y-65790000D01*
X21573333Y-66023333D01*
X21540000Y-66156666D01*
X21473333Y-66223333D01*
X21406666Y-66256666D01*
X21273333Y-66256666D01*
X21206666Y-66223333D01*
X21140000Y-66156666D01*
X21106666Y-66023333D01*
X21106666Y-65790000D01*
X21140000Y-65656666D01*
X21206666Y-65590000D01*
X21273333Y-65556666D01*
X22006666Y-65556666D02*
X22140000Y-65556666D01*
X22206666Y-65590000D01*
X22273333Y-65656666D01*
X22306666Y-65790000D01*
X22306666Y-66023333D01*
X22273333Y-66156666D01*
X22206666Y-66223333D01*
X22140000Y-66256666D01*
X22006666Y-66256666D01*
X21940000Y-66223333D01*
X21873333Y-66156666D01*
X21840000Y-66023333D01*
X21840000Y-65790000D01*
X21873333Y-65656666D01*
X21940000Y-65590000D01*
X22006666Y-65556666D01*
X22506666Y-65556666D02*
X22906666Y-65556666D01*
X22706666Y-66256666D02*
X22706666Y-65556666D01*
X23639999Y-65523333D02*
X23039999Y-66423333D01*
X23766666Y-60416666D02*
X23766666Y-59716666D01*
X24033333Y-59716666D01*
X24100000Y-59750000D01*
X24133333Y-59783333D01*
X24166666Y-59850000D01*
X24166666Y-59950000D01*
X24133333Y-60016666D01*
X24100000Y-60050000D01*
X24033333Y-60083333D01*
X23766666Y-60083333D01*
X24400000Y-59716666D02*
X24566666Y-60416666D01*
X24700000Y-59916666D01*
X24833333Y-60416666D01*
X25000000Y-59716666D01*
X25666666Y-60416666D02*
X25433333Y-60083333D01*
X25266666Y-60416666D02*
X25266666Y-59716666D01*
X25533333Y-59716666D01*
X25600000Y-59750000D01*
X25633333Y-59783333D01*
X25666666Y-59850000D01*
X25666666Y-59950000D01*
X25633333Y-60016666D01*
X25600000Y-60050000D01*
X25533333Y-60083333D01*
X25266666Y-60083333D01*
D11*
X39708571Y-76608095D02*
X39708571Y-76274761D01*
X40232380Y-76131904D02*
X40232380Y-76608095D01*
X39232380Y-76608095D01*
X39232380Y-76131904D01*
X40184761Y-75750952D02*
X40232380Y-75608095D01*
X40232380Y-75370000D01*
X40184761Y-75274761D01*
X40137142Y-75227142D01*
X40041904Y-75179523D01*
X39946666Y-75179523D01*
X39851428Y-75227142D01*
X39803809Y-75274761D01*
X39756190Y-75370000D01*
X39708571Y-75560476D01*
X39660952Y-75655714D01*
X39613333Y-75703333D01*
X39518095Y-75750952D01*
X39422857Y-75750952D01*
X39327619Y-75703333D01*
X39280000Y-75655714D01*
X39232380Y-75560476D01*
X39232380Y-75322380D01*
X39280000Y-75179523D01*
X40232380Y-74750952D02*
X39232380Y-74750952D01*
X39232380Y-74370000D01*
X39280000Y-74274761D01*
X39327619Y-74227142D01*
X39422857Y-74179523D01*
X39565714Y-74179523D01*
X39660952Y-74227142D01*
X39708571Y-74274761D01*
X39756190Y-74370000D01*
X39756190Y-74750952D01*
X39232380Y-73846190D02*
X39232380Y-73227142D01*
X39613333Y-73560476D01*
X39613333Y-73417619D01*
X39660952Y-73322380D01*
X39708571Y-73274761D01*
X39803809Y-73227142D01*
X40041904Y-73227142D01*
X40137142Y-73274761D01*
X40184761Y-73322380D01*
X40232380Y-73417619D01*
X40232380Y-73703333D01*
X40184761Y-73798571D01*
X40137142Y-73846190D01*
X39327619Y-72846190D02*
X39280000Y-72798571D01*
X39232380Y-72703333D01*
X39232380Y-72465238D01*
X39280000Y-72370000D01*
X39327619Y-72322380D01*
X39422857Y-72274761D01*
X39518095Y-72274761D01*
X39660952Y-72322380D01*
X40232380Y-72893809D01*
X40232380Y-72274761D01*
X39851428Y-71846190D02*
X39851428Y-71084285D01*
X40137142Y-70036666D02*
X40184761Y-70084285D01*
X40232380Y-70227142D01*
X40232380Y-70322380D01*
X40184761Y-70465238D01*
X40089523Y-70560476D01*
X39994285Y-70608095D01*
X39803809Y-70655714D01*
X39660952Y-70655714D01*
X39470476Y-70608095D01*
X39375238Y-70560476D01*
X39280000Y-70465238D01*
X39232380Y-70322380D01*
X39232380Y-70227142D01*
X39280000Y-70084285D01*
X39327619Y-70036666D01*
X39232380Y-69703333D02*
X39232380Y-69084285D01*
X39613333Y-69417619D01*
X39613333Y-69274761D01*
X39660952Y-69179523D01*
X39708571Y-69131904D01*
X39803809Y-69084285D01*
X40041904Y-69084285D01*
X40137142Y-69131904D01*
X40184761Y-69179523D01*
X40232380Y-69274761D01*
X40232380Y-69560476D01*
X40184761Y-69655714D01*
X40137142Y-69703333D01*
D10*
X22541666Y-51041666D02*
X22308333Y-50708333D01*
X22141666Y-51041666D02*
X22141666Y-50341666D01*
X22408333Y-50341666D01*
X22475000Y-50375000D01*
X22508333Y-50408333D01*
X22541666Y-50475000D01*
X22541666Y-50575000D01*
X22508333Y-50641666D01*
X22475000Y-50675000D01*
X22408333Y-50708333D01*
X22141666Y-50708333D01*
X23208333Y-50375000D02*
X23141666Y-50341666D01*
X23041666Y-50341666D01*
X22941666Y-50375000D01*
X22875000Y-50441666D01*
X22841666Y-50508333D01*
X22808333Y-50641666D01*
X22808333Y-50741666D01*
X22841666Y-50875000D01*
X22875000Y-50941666D01*
X22941666Y-51008333D01*
X23041666Y-51041666D01*
X23108333Y-51041666D01*
X23208333Y-51008333D01*
X23241666Y-50975000D01*
X23241666Y-50741666D01*
X23108333Y-50741666D01*
X23775000Y-50675000D02*
X23875000Y-50708333D01*
X23908333Y-50741666D01*
X23941666Y-50808333D01*
X23941666Y-50908333D01*
X23908333Y-50975000D01*
X23875000Y-51008333D01*
X23808333Y-51041666D01*
X23541666Y-51041666D01*
X23541666Y-50341666D01*
X23775000Y-50341666D01*
X23841666Y-50375000D01*
X23875000Y-50408333D01*
X23908333Y-50475000D01*
X23908333Y-50541666D01*
X23875000Y-50608333D01*
X23841666Y-50641666D01*
X23775000Y-50675000D01*
X23541666Y-50675000D01*
D12*
X40287142Y-64330000D02*
X37287142Y-64330000D01*
X39430000Y-63330000D01*
X37287142Y-62330000D01*
X40287142Y-62330000D01*
X40287142Y-59187142D02*
X38858571Y-60187142D01*
X40287142Y-60901428D02*
X37287142Y-60901428D01*
X37287142Y-59758571D01*
X37430000Y-59472857D01*
X37572857Y-59330000D01*
X37858571Y-59187142D01*
X38287142Y-59187142D01*
X38572857Y-59330000D01*
X38715714Y-59472857D01*
X38858571Y-59758571D01*
X38858571Y-60901428D01*
X40001428Y-57901428D02*
X40144285Y-57758571D01*
X40287142Y-57901428D01*
X40144285Y-58044285D01*
X40001428Y-57901428D01*
X40287142Y-57901428D01*
X40287142Y-54187142D02*
X37287142Y-54187142D01*
X40287142Y-52472857D02*
X38572857Y-53758571D01*
X37287142Y-52472857D02*
X39001428Y-54187142D01*
X37287142Y-50615714D02*
X37287142Y-50044285D01*
X37430000Y-49758571D01*
X37715714Y-49472857D01*
X38287142Y-49330000D01*
X39287142Y-49330000D01*
X39858571Y-49472857D01*
X40144285Y-49758571D01*
X40287142Y-50044285D01*
X40287142Y-50615714D01*
X40144285Y-50901428D01*
X39858571Y-51187142D01*
X39287142Y-51330000D01*
X38287142Y-51330000D01*
X37715714Y-51187142D01*
X37430000Y-50901428D01*
X37287142Y-50615714D01*
X40287142Y-48044285D02*
X37287142Y-48044285D01*
X38715714Y-48044285D02*
X38715714Y-46330000D01*
X40287142Y-46330000D02*
X37287142Y-46330000D01*
D10*
X21250000Y-41941666D02*
X20916666Y-41941666D01*
X20916666Y-41241666D01*
X21483333Y-41575000D02*
X21716666Y-41575000D01*
X21816666Y-41941666D02*
X21483333Y-41941666D01*
X21483333Y-41241666D01*
X21816666Y-41241666D01*
X22116666Y-41941666D02*
X22116666Y-41241666D01*
X22283333Y-41241666D01*
X22383333Y-41275000D01*
X22450000Y-41341666D01*
X22483333Y-41408333D01*
X22516666Y-41541666D01*
X22516666Y-41641666D01*
X22483333Y-41775000D01*
X22450000Y-41841666D01*
X22383333Y-41908333D01*
X22283333Y-41941666D01*
X22116666Y-41941666D01*
X20783333Y-72816666D02*
X20550000Y-72483333D01*
X20383333Y-72816666D02*
X20383333Y-72116666D01*
X20650000Y-72116666D01*
X20716666Y-72150000D01*
X20750000Y-72183333D01*
X20783333Y-72250000D01*
X20783333Y-72350000D01*
X20750000Y-72416666D01*
X20716666Y-72450000D01*
X20650000Y-72483333D01*
X20383333Y-72483333D01*
X21083333Y-72450000D02*
X21316666Y-72450000D01*
X21416666Y-72816666D02*
X21083333Y-72816666D01*
X21083333Y-72116666D01*
X21416666Y-72116666D01*
X21683333Y-72783333D02*
X21783333Y-72816666D01*
X21950000Y-72816666D01*
X22016666Y-72783333D01*
X22050000Y-72750000D01*
X22083333Y-72683333D01*
X22083333Y-72616666D01*
X22050000Y-72550000D01*
X22016666Y-72516666D01*
X21950000Y-72483333D01*
X21816666Y-72450000D01*
X21750000Y-72416666D01*
X21716666Y-72383333D01*
X21683333Y-72316666D01*
X21683333Y-72250000D01*
X21716666Y-72183333D01*
X21750000Y-72150000D01*
X21816666Y-72116666D01*
X21983333Y-72116666D01*
X22083333Y-72150000D01*
X22383333Y-72450000D02*
X22616666Y-72450000D01*
X22716666Y-72816666D02*
X22383333Y-72816666D01*
X22383333Y-72116666D01*
X22716666Y-72116666D01*
X22916666Y-72116666D02*
X23316666Y-72116666D01*
X23116666Y-72816666D02*
X23116666Y-72116666D01*
D13*
%TO.C,D1*%
X28250000Y-59365000D02*
X25965000Y-59365000D01*
X25965000Y-60835000D02*
X28250000Y-60835000D01*
X25965000Y-59365000D02*
X25965000Y-60835000D01*
%TO.C,C10*%
X32463748Y-60410000D02*
X32986252Y-60410000D01*
X32463748Y-58940000D02*
X32986252Y-58940000D01*
%TO.C,C19*%
X18835000Y-59792164D02*
X18835000Y-60007836D01*
X18115000Y-59792164D02*
X18115000Y-60007836D01*
%TO.C,C12*%
X32810000Y-39857836D02*
X32810000Y-39642164D01*
X32090000Y-39857836D02*
X32090000Y-39642164D01*
%TO.C,J2*%
X14170000Y-36770000D02*
X16830000Y-36770000D01*
X14170000Y-35500000D02*
X14170000Y-34170000D01*
X14170000Y-34170000D02*
X15500000Y-34170000D01*
X14170000Y-74930000D02*
X16830000Y-74930000D01*
X14170000Y-36770000D02*
X14170000Y-74930000D01*
X16830000Y-36770000D02*
X16830000Y-74930000D01*
%TO.C,C5*%
X25492164Y-34840000D02*
X25707836Y-34840000D01*
X25492164Y-35560000D02*
X25707836Y-35560000D01*
%TO.C,Y1*%
X20300000Y-35875000D02*
X18950000Y-35875000D01*
X20300000Y-37625000D02*
X18950000Y-37625000D01*
%TO.C,C2*%
X20292164Y-34565000D02*
X20507836Y-34565000D01*
X20292164Y-35285000D02*
X20507836Y-35285000D01*
%TO.C,C8*%
X35385000Y-40157836D02*
X35385000Y-39942164D01*
X34665000Y-40157836D02*
X34665000Y-39942164D01*
%TO.C,R1*%
X18321359Y-34520000D02*
X18628641Y-34520000D01*
X18321359Y-35280000D02*
X18628641Y-35280000D01*
%TO.C,C3*%
X30872164Y-38250000D02*
X31087836Y-38250000D01*
X30872164Y-37530000D02*
X31087836Y-37530000D01*
%TO.C,R4*%
X29695000Y-59596359D02*
X29695000Y-59903641D01*
X30455000Y-59596359D02*
X30455000Y-59903641D01*
%TO.C,C6*%
X23607836Y-36860000D02*
X23392164Y-36860000D01*
X23607836Y-36140000D02*
X23392164Y-36140000D01*
%TO.C,C11*%
X33459420Y-37110000D02*
X33740580Y-37110000D01*
X33459420Y-36090000D02*
X33740580Y-36090000D01*
%TO.C,U2*%
X26120000Y-44300000D02*
X26595000Y-44300000D01*
X31340000Y-43825000D02*
X31340000Y-44300000D01*
X26120000Y-43825000D02*
X26120000Y-44300000D01*
X31340000Y-44300000D02*
X30865000Y-44300000D01*
X26120000Y-39080000D02*
X26595000Y-39080000D01*
X31340000Y-39555000D02*
X31340000Y-39080000D01*
X26120000Y-39555000D02*
X26120000Y-39080000D01*
%TO.C,SW1*%
X20305000Y-73430000D02*
X20305000Y-73130000D01*
X24445000Y-75970000D02*
X24445000Y-76270000D01*
X24445000Y-73130000D02*
X24445000Y-73430000D01*
X24445000Y-76270000D02*
X20305000Y-76270000D01*
X20305000Y-76270000D02*
X20305000Y-75970000D01*
X20305000Y-73130000D02*
X24445000Y-73130000D01*
%TO.C,C17*%
X29040000Y-36857836D02*
X29040000Y-36642164D01*
X29760000Y-36857836D02*
X29760000Y-36642164D01*
%TO.C,J1*%
X35850000Y-70474951D02*
X35850000Y-72474951D01*
X26450000Y-74374951D02*
X26450000Y-76274951D01*
X26450000Y-70474951D02*
X26450000Y-72474951D01*
X26450000Y-76274951D02*
X35850000Y-76274951D01*
X35850000Y-74374951D02*
X35850000Y-76274951D01*
%TO.C,SW2*%
X20330000Y-71095000D02*
X20330000Y-70795000D01*
X24470000Y-70795000D02*
X24470000Y-71095000D01*
X20330000Y-68255000D02*
X20330000Y-67955000D01*
X24470000Y-71095000D02*
X20330000Y-71095000D01*
X20330000Y-67955000D02*
X24470000Y-67955000D01*
X24470000Y-67955000D02*
X24470000Y-68255000D01*
%TO.C,Y2*%
X39000000Y-39275000D02*
X35700000Y-39275000D01*
X35700000Y-39275000D02*
X35700000Y-43275000D01*
%TO.C,R5*%
X20761359Y-50295000D02*
X21068641Y-50295000D01*
X20761359Y-51055000D02*
X21068641Y-51055000D01*
%TO.C,C4*%
X30867164Y-34540000D02*
X31082836Y-34540000D01*
X30867164Y-35260000D02*
X31082836Y-35260000D01*
%TO.C,R3*%
X28628641Y-64779951D02*
X28321359Y-64779951D01*
X28628641Y-64019951D02*
X28321359Y-64019951D01*
%TO.C,C13*%
X18422164Y-67030000D02*
X18637836Y-67030000D01*
X18422164Y-66310000D02*
X18637836Y-66310000D01*
%TO.C,R2*%
X35121359Y-64019951D02*
X35428641Y-64019951D01*
X35121359Y-64779951D02*
X35428641Y-64779951D01*
%TO.C,D3*%
X19700000Y-40865000D02*
X17415000Y-40865000D01*
X17415000Y-40865000D02*
X17415000Y-42335000D01*
X17415000Y-42335000D02*
X19700000Y-42335000D01*
%TO.C,U1*%
X31825000Y-64009951D02*
X31025000Y-64009951D01*
X31825000Y-64009951D02*
X33625000Y-64009951D01*
X31825000Y-60889951D02*
X31025000Y-60889951D01*
X31825000Y-60889951D02*
X32625000Y-60889951D01*
%TO.C,C1*%
X33367164Y-49410000D02*
X33582836Y-49410000D01*
X33367164Y-48690000D02*
X33582836Y-48690000D01*
%TO.C,U3*%
X28090000Y-51590000D02*
X28090000Y-52850000D01*
X34100000Y-58410000D02*
X28090000Y-58410000D01*
X28090000Y-58410000D02*
X28090000Y-57150000D01*
X31850000Y-51590000D02*
X28090000Y-51590000D01*
%TO.C,C9*%
X32834420Y-50885000D02*
X33115580Y-50885000D01*
X32834420Y-49865000D02*
X33115580Y-49865000D01*
%TO.C,C14*%
X27910000Y-46259420D02*
X27910000Y-46540580D01*
X26890000Y-46259420D02*
X26890000Y-46540580D01*
%TO.C,D2*%
X24425000Y-56775000D02*
X24425000Y-55625000D01*
X17125000Y-56775000D02*
X24425000Y-56775000D01*
X17125000Y-51275000D02*
X24425000Y-51275000D01*
%TO.C,C16*%
X24407836Y-41160000D02*
X24192164Y-41160000D01*
X24407836Y-40440000D02*
X24192164Y-40440000D01*
%TO.C,R6*%
X19246359Y-39620000D02*
X19553641Y-39620000D01*
X19246359Y-40380000D02*
X19553641Y-40380000D01*
%TO.C,C15*%
X25640000Y-45792164D02*
X25640000Y-46007836D01*
X26360000Y-45792164D02*
X26360000Y-46007836D01*
%TO.C,C7*%
X34665000Y-41842164D02*
X34665000Y-42057836D01*
X35385000Y-41842164D02*
X35385000Y-42057836D01*
%TO.C,C18*%
X27957836Y-36190000D02*
X27742164Y-36190000D01*
X27957836Y-36910000D02*
X27742164Y-36910000D01*
%TD*%
%LPC*%
D14*
%TO.C,D1*%
X26662500Y-60100000D03*
X28237500Y-60100000D03*
%TD*%
D15*
%TO.C,H2*%
X14550000Y-78350000D03*
%TD*%
D16*
%TO.C,C10*%
X31775000Y-59675000D03*
X33675000Y-59675000D03*
%TD*%
D17*
%TO.C,C19*%
X18475000Y-59420000D03*
X18475000Y-60380000D03*
%TD*%
D18*
%TO.C,C12*%
X32450000Y-40230000D03*
X32450000Y-39270000D03*
%TD*%
D19*
%TO.C,L1*%
X30500000Y-36885000D03*
X30500000Y-35915000D03*
%TD*%
D20*
%TO.C,J2*%
X15500000Y-35500000D03*
D21*
X15500000Y-38040000D03*
X15500000Y-40580000D03*
X15500000Y-43120000D03*
X15500000Y-45660000D03*
X15500000Y-48200000D03*
X15500000Y-50740000D03*
X15500000Y-53280000D03*
X15500000Y-55820000D03*
X15500000Y-58360000D03*
X15500000Y-60900000D03*
X15500000Y-63440000D03*
X15500000Y-65980000D03*
X15500000Y-68520000D03*
X15500000Y-71060000D03*
X15500000Y-73600000D03*
%TD*%
D22*
%TO.C,C5*%
X25120000Y-35200000D03*
X26080000Y-35200000D03*
%TD*%
D23*
%TO.C,Y1*%
X18375000Y-36750000D03*
X20875000Y-36750000D03*
%TD*%
D22*
%TO.C,C2*%
X19920000Y-34925000D03*
X20880000Y-34925000D03*
%TD*%
D18*
%TO.C,C8*%
X35025000Y-40530000D03*
X35025000Y-39570000D03*
%TD*%
D24*
%TO.C,R1*%
X17965000Y-34900000D03*
X18985000Y-34900000D03*
%TD*%
D22*
%TO.C,C3*%
X30500000Y-37890000D03*
X31460000Y-37890000D03*
%TD*%
D25*
%TO.C,R4*%
X30075000Y-59240000D03*
X30075000Y-60260000D03*
%TD*%
D26*
%TO.C,C6*%
X23980000Y-36500000D03*
X23020000Y-36500000D03*
%TD*%
D27*
%TO.C,C11*%
X32825000Y-36600000D03*
X34375000Y-36600000D03*
%TD*%
D28*
%TO.C,U2*%
X30480000Y-39252500D03*
X29980000Y-39252500D03*
X29480000Y-39252500D03*
X28980000Y-39252500D03*
X28480000Y-39252500D03*
X27980000Y-39252500D03*
X27480000Y-39252500D03*
X26980000Y-39252500D03*
D29*
X26292500Y-39940000D03*
X26292500Y-40440000D03*
X26292500Y-40940000D03*
X26292500Y-41440000D03*
X26292500Y-41940000D03*
X26292500Y-42440000D03*
X26292500Y-42940000D03*
X26292500Y-43440000D03*
D28*
X26980000Y-44127500D03*
X27480000Y-44127500D03*
X27980000Y-44127500D03*
X28480000Y-44127500D03*
X28980000Y-44127500D03*
X29480000Y-44127500D03*
X29980000Y-44127500D03*
X30480000Y-44127500D03*
D29*
X31167500Y-43440000D03*
X31167500Y-42940000D03*
X31167500Y-42440000D03*
X31167500Y-41940000D03*
X31167500Y-41440000D03*
X31167500Y-40940000D03*
X31167500Y-40440000D03*
X31167500Y-39940000D03*
D30*
X28730000Y-41690000D03*
%TD*%
D31*
%TO.C,SW1*%
X24475000Y-74700000D03*
X20275000Y-74700000D03*
%TD*%
D15*
%TO.C,H1*%
X41050000Y-32875000D03*
%TD*%
%TO.C,H4*%
X41050000Y-78350000D03*
%TD*%
D18*
%TO.C,C17*%
X29400000Y-37230000D03*
X29400000Y-36270000D03*
%TD*%
D32*
%TO.C,J1*%
X35470000Y-73424951D03*
D33*
X28260000Y-69774951D03*
D34*
X35470000Y-69244951D03*
X26830000Y-69244951D03*
D33*
X34040000Y-69774951D03*
D35*
X27900000Y-68329951D03*
X28700000Y-68329951D03*
D36*
X29900000Y-68329951D03*
X30900000Y-68329951D03*
X31400000Y-68329951D03*
X32400000Y-68329951D03*
D35*
X33600000Y-68329951D03*
X34400000Y-68329951D03*
X34400000Y-68329951D03*
X33600000Y-68329951D03*
D36*
X32900000Y-68329951D03*
X31900000Y-68329951D03*
X30400000Y-68329951D03*
X29400000Y-68329951D03*
D35*
X28700000Y-68329951D03*
X27900000Y-68329951D03*
D32*
X26830000Y-73424951D03*
%TD*%
D31*
%TO.C,SW2*%
X24500000Y-69525000D03*
X20300000Y-69525000D03*
%TD*%
D15*
%TO.C,H3*%
X14550000Y-32875000D03*
%TD*%
D37*
%TO.C,Y2*%
X36500000Y-40175000D03*
X36500000Y-42375000D03*
X38200000Y-42375000D03*
X38200000Y-40175000D03*
%TD*%
D24*
%TO.C,R5*%
X20405000Y-50675000D03*
X21425000Y-50675000D03*
%TD*%
D22*
%TO.C,C4*%
X30495000Y-34900000D03*
X31455000Y-34900000D03*
%TD*%
D38*
%TO.C,R3*%
X28985000Y-64399951D03*
X27965000Y-64399951D03*
%TD*%
D22*
%TO.C,C13*%
X18050000Y-66670000D03*
X19010000Y-66670000D03*
%TD*%
D24*
%TO.C,R2*%
X34765000Y-64399951D03*
X35785000Y-64399951D03*
%TD*%
D14*
%TO.C,D3*%
X18112500Y-41600000D03*
X19687500Y-41600000D03*
%TD*%
D39*
%TO.C,U1*%
X32962500Y-63399951D03*
X32962500Y-62449951D03*
X32962500Y-61499951D03*
X30687500Y-61499951D03*
X30687500Y-62449951D03*
X30687500Y-63399951D03*
%TD*%
D22*
%TO.C,C1*%
X32995000Y-49050000D03*
X33955000Y-49050000D03*
%TD*%
D40*
%TO.C,L2*%
X35830000Y-36400000D03*
X36800000Y-36400000D03*
%TD*%
D41*
%TO.C,U3*%
X33150000Y-57300000D03*
D42*
X26850000Y-55000000D03*
D41*
X33150000Y-55000000D03*
X33150000Y-52700000D03*
%TD*%
D27*
%TO.C,C9*%
X32200000Y-50375000D03*
X33750000Y-50375000D03*
%TD*%
D43*
%TO.C,C14*%
X27400000Y-45625000D03*
X27400000Y-47175000D03*
%TD*%
D44*
%TO.C,D2*%
X18325000Y-52375000D03*
X18325000Y-55675000D03*
X23225000Y-55675000D03*
X23225000Y-52375000D03*
%TD*%
D26*
%TO.C,C16*%
X24780000Y-40800000D03*
X23820000Y-40800000D03*
%TD*%
D24*
%TO.C,R6*%
X18890000Y-40000000D03*
X19910000Y-40000000D03*
%TD*%
D17*
%TO.C,C15*%
X26000000Y-45420000D03*
X26000000Y-46380000D03*
%TD*%
%TO.C,C7*%
X35025000Y-41470000D03*
X35025000Y-42430000D03*
%TD*%
D26*
%TO.C,C18*%
X28330000Y-36550000D03*
X27370000Y-36550000D03*
%TD*%
M02*
