M48
; DRILL file {KiCad (6.0.10)} date Sun Feb  5 17:29:56 2023
; FORMAT={-:-/ absolute / metric / decimal}
; #@! TF.CreationDate,2023-02-05T17:29:56-05:00
; #@! TF.GenerationSoftware,Kicad,Pcbnew,(6.0.10)
; #@! TF.FileFunction,MixedPlating,1,2
FMAT,2
METRIC
; #@! TA.AperFunction,Plated,PTH,ComponentDrill
T1C0.300
; #@! TA.AperFunction,Plated,PTH,ViaDrill
T2C0.400
; #@! TA.AperFunction,Plated,PTH,ComponentDrill
T3C0.600
; #@! TA.AperFunction,Plated,PTH,ComponentDrill
T4C1.000
; #@! TA.AperFunction,NonPlated,NPTH,ComponentDrill
T5C0.650
; #@! TA.AperFunction,NonPlated,NPTH,ComponentDrill
T6C1.152
%
G90
G05
T1
X32.55Y-31.9
T2
X17.2Y-35.925
X18.274Y-42.88
X18.325Y-62.8
X18.575Y-57.45
X18.65Y-72.75
X18.69Y-69.53
X19.025Y-50.7
X19.58Y-65.71
X21.375Y-34.124
X22.05Y-37.1
X22.6Y-40.5
X23.525Y-56.75
X24.513Y-39.687
X24.525Y-67.175
X24.675Y-65.05
X25.16Y-60.77
X25.6Y-58.6
X25.62Y-47.35
X26.6Y-34.575
X26.825Y-57.825
X26.975Y-52.25
X27.8Y-35.5
X27.924Y-63.3
X28.85Y-61.925
X28.9Y-45.6
X28.925Y-52.25
X28.925Y-53.958
X28.925Y-55.667
X28.925Y-57.375
X29.4Y-35.25
X29.95Y-41.2
X30.925Y-70.025
X31.025Y-52.275
X31.025Y-53.942
X31.05Y-55.608
X31.125Y-57.275
X32.4Y-47.5
X32.65Y-38.2
X33.095Y-71.23
X33.54Y-74.37
X33.575Y-66.15
X35.225Y-54.4
X35.725Y-52.7
X35.75Y-35.225
X35.825Y-63.375
X35.85Y-49.175
X35.956Y-33.724
X36.005Y-61.93
X38.125Y-44.5
X38.225Y-33.15
X39.475Y-74.475
T4
X15.5Y-35.5
X15.5Y-38.04
X15.5Y-40.58
X15.5Y-43.12
X15.5Y-45.66
X15.5Y-48.2
X15.5Y-50.74
X15.5Y-53.28
X15.5Y-55.82
X15.5Y-58.36
X15.5Y-60.9
X15.5Y-63.44
X15.5Y-65.98
X15.5Y-68.52
X15.5Y-71.06
X15.5Y-73.6
T5
X28.26Y-69.775
X34.04Y-69.775
T6
X14.55Y-32.875
X14.55Y-78.35
X41.05Y-32.875
X41.05Y-78.35
T3
X26.83Y-68.695G85X26.83Y-69.795
G05
X26.83Y-73.125G85X26.83Y-73.725
G05
X35.47Y-68.695G85X35.47Y-69.795
G05
X35.47Y-73.125G85X35.47Y-73.725
G05
T0
M30
