%TF.GenerationSoftware,KiCad,Pcbnew,(6.0.10)*%
%TF.CreationDate,2023-01-26T00:46:22-05:00*%
%TF.ProjectId,espc4synth,65737063-3473-4796-9e74-682e6b696361,1*%
%TF.SameCoordinates,Original*%
%TF.FileFunction,Legend,Bot*%
%TF.FilePolarity,Positive*%
%FSLAX46Y46*%
G04 Gerber Fmt 4.6, Leading zero omitted, Abs format (unit mm)*
G04 Created by KiCad (PCBNEW (6.0.10)) date 2023-01-26 00:46:22*
%MOMM*%
%LPD*%
G01*
G04 APERTURE LIST*
%ADD10C,0.150000*%
%ADD11C,0.600000*%
%ADD12C,1.152000*%
%ADD13R,1.700000X1.700000*%
%ADD14O,1.700000X1.700000*%
%ADD15O,1.000000X1.600000*%
%ADD16C,0.650000*%
%ADD17O,1.000000X2.100000*%
G04 APERTURE END LIST*
D10*
X41172619Y-46489880D02*
X41172619Y-45489880D01*
X40934524Y-45489880D01*
X40791667Y-45537500D01*
X40696428Y-45632738D01*
X40648809Y-45727976D01*
X40601190Y-45918452D01*
X40601190Y-46061309D01*
X40648809Y-46251785D01*
X40696428Y-46347023D01*
X40791667Y-46442261D01*
X40934524Y-46489880D01*
X41172619Y-46489880D01*
X40172619Y-45966071D02*
X39839286Y-45966071D01*
X39696428Y-46489880D02*
X40172619Y-46489880D01*
X40172619Y-45489880D01*
X39696428Y-45489880D01*
X39410714Y-45489880D02*
X39077381Y-46489880D01*
X38744048Y-45489880D01*
X37315476Y-45966071D02*
X37172619Y-46013690D01*
X37125000Y-46061309D01*
X37077381Y-46156547D01*
X37077381Y-46299404D01*
X37125000Y-46394642D01*
X37172619Y-46442261D01*
X37267857Y-46489880D01*
X37648809Y-46489880D01*
X37648809Y-45489880D01*
X37315476Y-45489880D01*
X37220238Y-45537500D01*
X37172619Y-45585119D01*
X37125000Y-45680357D01*
X37125000Y-45775595D01*
X37172619Y-45870833D01*
X37220238Y-45918452D01*
X37315476Y-45966071D01*
X37648809Y-45966071D01*
X36458333Y-45489880D02*
X36267857Y-45489880D01*
X36172619Y-45537500D01*
X36077381Y-45632738D01*
X36029762Y-45823214D01*
X36029762Y-46156547D01*
X36077381Y-46347023D01*
X36172619Y-46442261D01*
X36267857Y-46489880D01*
X36458333Y-46489880D01*
X36553571Y-46442261D01*
X36648809Y-46347023D01*
X36696428Y-46156547D01*
X36696428Y-45823214D01*
X36648809Y-45632738D01*
X36553571Y-45537500D01*
X36458333Y-45489880D01*
X35648809Y-46204166D02*
X35172619Y-46204166D01*
X35744048Y-46489880D02*
X35410714Y-45489880D01*
X35077381Y-46489880D01*
X34172619Y-46489880D02*
X34505952Y-46013690D01*
X34744048Y-46489880D02*
X34744048Y-45489880D01*
X34363095Y-45489880D01*
X34267857Y-45537500D01*
X34220238Y-45585119D01*
X34172619Y-45680357D01*
X34172619Y-45823214D01*
X34220238Y-45918452D01*
X34267857Y-45966071D01*
X34363095Y-46013690D01*
X34744048Y-46013690D01*
X33744048Y-46489880D02*
X33744048Y-45489880D01*
X33505952Y-45489880D01*
X33363095Y-45537500D01*
X33267857Y-45632738D01*
X33220238Y-45727976D01*
X33172619Y-45918452D01*
X33172619Y-46061309D01*
X33220238Y-46251785D01*
X33267857Y-46347023D01*
X33363095Y-46442261D01*
X33505952Y-46489880D01*
X33744048Y-46489880D01*
X32077381Y-45823214D02*
X31839286Y-46489880D01*
X31601190Y-45823214D01*
X30696428Y-46489880D02*
X31267857Y-46489880D01*
X30982143Y-46489880D02*
X30982143Y-45489880D01*
X31077381Y-45632738D01*
X31172619Y-45727976D01*
X31267857Y-45775595D01*
X30267857Y-46394642D02*
X30220238Y-46442261D01*
X30267857Y-46489880D01*
X30315476Y-46442261D01*
X30267857Y-46394642D01*
X30267857Y-46489880D01*
X29601190Y-45489880D02*
X29505952Y-45489880D01*
X29410714Y-45537500D01*
X29363095Y-45585119D01*
X29315476Y-45680357D01*
X29267857Y-45870833D01*
X29267857Y-46108928D01*
X29315476Y-46299404D01*
X29363095Y-46394642D01*
X29410714Y-46442261D01*
X29505952Y-46489880D01*
X29601190Y-46489880D01*
X29696428Y-46442261D01*
X29744048Y-46394642D01*
X29791667Y-46299404D01*
X29839286Y-46108928D01*
X29839286Y-45870833D01*
X29791667Y-45680357D01*
X29744048Y-45585119D01*
X29696428Y-45537500D01*
X29601190Y-45489880D01*
X20852380Y-47600000D02*
X20947618Y-47552380D01*
X21090475Y-47552380D01*
X21233332Y-47600000D01*
X21328570Y-47695238D01*
X21376190Y-47790476D01*
X21423809Y-47980952D01*
X21423809Y-48123809D01*
X21376190Y-48314285D01*
X21328570Y-48409523D01*
X21233332Y-48504761D01*
X21090475Y-48552380D01*
X20995237Y-48552380D01*
X20852380Y-48504761D01*
X20804761Y-48457142D01*
X20804761Y-48123809D01*
X20995237Y-48123809D01*
X20376190Y-48552380D02*
X20376190Y-47552380D01*
X19995237Y-47552380D01*
X19899999Y-47600000D01*
X19852380Y-47647619D01*
X19804761Y-47742857D01*
X19804761Y-47885714D01*
X19852380Y-47980952D01*
X19899999Y-48028571D01*
X19995237Y-48076190D01*
X20376190Y-48076190D01*
X19376190Y-48552380D02*
X19376190Y-47552380D01*
X18709523Y-47552380D02*
X18519047Y-47552380D01*
X18423809Y-47600000D01*
X18328570Y-47695238D01*
X18280951Y-47885714D01*
X18280951Y-48219047D01*
X18328570Y-48409523D01*
X18423809Y-48504761D01*
X18519047Y-48552380D01*
X18709523Y-48552380D01*
X18804761Y-48504761D01*
X18899999Y-48409523D01*
X18947618Y-48219047D01*
X18947618Y-47885714D01*
X18899999Y-47695238D01*
X18804761Y-47600000D01*
X18709523Y-47552380D01*
X17423809Y-47552380D02*
X17614285Y-47552380D01*
X17709523Y-47600000D01*
X17757142Y-47647619D01*
X17852380Y-47790476D01*
X17899999Y-47980952D01*
X17899999Y-48361904D01*
X17852380Y-48457142D01*
X17804761Y-48504761D01*
X17709523Y-48552380D01*
X17519047Y-48552380D01*
X17423809Y-48504761D01*
X17376190Y-48457142D01*
X17328570Y-48361904D01*
X17328570Y-48123809D01*
X17376190Y-48028571D01*
X17423809Y-47980952D01*
X17519047Y-47933333D01*
X17709523Y-47933333D01*
X17804761Y-47980952D01*
X17852380Y-48028571D01*
X17899999Y-48123809D01*
X38942857Y-78127380D02*
X38942857Y-77127380D01*
X38514285Y-78127380D02*
X38514285Y-77603571D01*
X38561904Y-77508333D01*
X38657142Y-77460714D01*
X38800000Y-77460714D01*
X38895238Y-77508333D01*
X38942857Y-77555952D01*
X38180952Y-77460714D02*
X37800000Y-77460714D01*
X38038095Y-77127380D02*
X38038095Y-77984523D01*
X37990476Y-78079761D01*
X37895238Y-78127380D01*
X37800000Y-78127380D01*
X37609523Y-77460714D02*
X37228571Y-77460714D01*
X37466666Y-77127380D02*
X37466666Y-77984523D01*
X37419047Y-78079761D01*
X37323809Y-78127380D01*
X37228571Y-78127380D01*
X36895238Y-77460714D02*
X36895238Y-78460714D01*
X36895238Y-77508333D02*
X36800000Y-77460714D01*
X36609523Y-77460714D01*
X36514285Y-77508333D01*
X36466666Y-77555952D01*
X36419047Y-77651190D01*
X36419047Y-77936904D01*
X36466666Y-78032142D01*
X36514285Y-78079761D01*
X36609523Y-78127380D01*
X36800000Y-78127380D01*
X36895238Y-78079761D01*
X36038095Y-78079761D02*
X35942857Y-78127380D01*
X35752380Y-78127380D01*
X35657142Y-78079761D01*
X35609523Y-77984523D01*
X35609523Y-77936904D01*
X35657142Y-77841666D01*
X35752380Y-77794047D01*
X35895238Y-77794047D01*
X35990476Y-77746428D01*
X36038095Y-77651190D01*
X36038095Y-77603571D01*
X35990476Y-77508333D01*
X35895238Y-77460714D01*
X35752380Y-77460714D01*
X35657142Y-77508333D01*
X35180952Y-78032142D02*
X35133333Y-78079761D01*
X35180952Y-78127380D01*
X35228571Y-78079761D01*
X35180952Y-78032142D01*
X35180952Y-78127380D01*
X35180952Y-77508333D02*
X35133333Y-77555952D01*
X35180952Y-77603571D01*
X35228571Y-77555952D01*
X35180952Y-77508333D01*
X35180952Y-77603571D01*
X33990476Y-77079761D02*
X34847619Y-78365476D01*
X32942857Y-77079761D02*
X33800000Y-78365476D01*
X32180952Y-77460714D02*
X32180952Y-78270238D01*
X32228571Y-78365476D01*
X32276190Y-78413095D01*
X32371428Y-78460714D01*
X32514285Y-78460714D01*
X32609523Y-78413095D01*
X32180952Y-78079761D02*
X32276190Y-78127380D01*
X32466666Y-78127380D01*
X32561904Y-78079761D01*
X32609523Y-78032142D01*
X32657142Y-77936904D01*
X32657142Y-77651190D01*
X32609523Y-77555952D01*
X32561904Y-77508333D01*
X32466666Y-77460714D01*
X32276190Y-77460714D01*
X32180952Y-77508333D01*
X31704761Y-78127380D02*
X31704761Y-77460714D01*
X31704761Y-77127380D02*
X31752380Y-77175000D01*
X31704761Y-77222619D01*
X31657142Y-77175000D01*
X31704761Y-77127380D01*
X31704761Y-77222619D01*
X31371428Y-77460714D02*
X30990476Y-77460714D01*
X31228571Y-77127380D02*
X31228571Y-77984523D01*
X31180952Y-78079761D01*
X31085714Y-78127380D01*
X30990476Y-78127380D01*
X30657142Y-78127380D02*
X30657142Y-77127380D01*
X30228571Y-78127380D02*
X30228571Y-77603571D01*
X30276190Y-77508333D01*
X30371428Y-77460714D01*
X30514285Y-77460714D01*
X30609523Y-77508333D01*
X30657142Y-77555952D01*
X29323809Y-77460714D02*
X29323809Y-78127380D01*
X29752380Y-77460714D02*
X29752380Y-77984523D01*
X29704761Y-78079761D01*
X29609523Y-78127380D01*
X29466666Y-78127380D01*
X29371428Y-78079761D01*
X29323809Y-78032142D01*
X28847619Y-78127380D02*
X28847619Y-77127380D01*
X28847619Y-77508333D02*
X28752380Y-77460714D01*
X28561904Y-77460714D01*
X28466666Y-77508333D01*
X28419047Y-77555952D01*
X28371428Y-77651190D01*
X28371428Y-77936904D01*
X28419047Y-78032142D01*
X28466666Y-78079761D01*
X28561904Y-78127380D01*
X28752380Y-78127380D01*
X28847619Y-78079761D01*
X27942857Y-78032142D02*
X27895238Y-78079761D01*
X27942857Y-78127380D01*
X27990476Y-78079761D01*
X27942857Y-78032142D01*
X27942857Y-78127380D01*
X27038095Y-78079761D02*
X27133333Y-78127380D01*
X27323809Y-78127380D01*
X27419047Y-78079761D01*
X27466666Y-78032142D01*
X27514285Y-77936904D01*
X27514285Y-77651190D01*
X27466666Y-77555952D01*
X27419047Y-77508333D01*
X27323809Y-77460714D01*
X27133333Y-77460714D01*
X27038095Y-77508333D01*
X26466666Y-78127380D02*
X26561904Y-78079761D01*
X26609523Y-78032142D01*
X26657142Y-77936904D01*
X26657142Y-77651190D01*
X26609523Y-77555952D01*
X26561904Y-77508333D01*
X26466666Y-77460714D01*
X26323809Y-77460714D01*
X26228571Y-77508333D01*
X26180952Y-77555952D01*
X26133333Y-77651190D01*
X26133333Y-77936904D01*
X26180952Y-78032142D01*
X26228571Y-78079761D01*
X26323809Y-78127380D01*
X26466666Y-78127380D01*
X25704761Y-78127380D02*
X25704761Y-77460714D01*
X25704761Y-77555952D02*
X25657142Y-77508333D01*
X25561904Y-77460714D01*
X25419047Y-77460714D01*
X25323809Y-77508333D01*
X25276190Y-77603571D01*
X25276190Y-78127380D01*
X25276190Y-77603571D02*
X25228571Y-77508333D01*
X25133333Y-77460714D01*
X24990476Y-77460714D01*
X24895238Y-77508333D01*
X24847619Y-77603571D01*
X24847619Y-78127380D01*
X23657142Y-77079761D02*
X24514285Y-78365476D01*
X23323809Y-78127380D02*
X23323809Y-77460714D01*
X23323809Y-77555952D02*
X23276190Y-77508333D01*
X23180952Y-77460714D01*
X23038095Y-77460714D01*
X22942857Y-77508333D01*
X22895238Y-77603571D01*
X22895238Y-78127380D01*
X22895238Y-77603571D02*
X22847619Y-77508333D01*
X22752380Y-77460714D01*
X22609523Y-77460714D01*
X22514285Y-77508333D01*
X22466666Y-77603571D01*
X22466666Y-78127380D01*
X21990476Y-78127380D02*
X21990476Y-77460714D01*
X21990476Y-77651190D02*
X21942857Y-77555952D01*
X21895238Y-77508333D01*
X21800000Y-77460714D01*
X21704761Y-77460714D01*
X21371428Y-78127380D02*
X21371428Y-77127380D01*
X21276190Y-77746428D02*
X20990476Y-78127380D01*
X20990476Y-77460714D02*
X21371428Y-77841666D01*
X20419047Y-78127380D02*
X20514285Y-78079761D01*
X20561904Y-78032142D01*
X20609523Y-77936904D01*
X20609523Y-77651190D01*
X20561904Y-77555952D01*
X20514285Y-77508333D01*
X20419047Y-77460714D01*
X20276190Y-77460714D01*
X20180952Y-77508333D01*
X20133333Y-77555952D01*
X20085714Y-77651190D01*
X20085714Y-77936904D01*
X20133333Y-78032142D01*
X20180952Y-78079761D01*
X20276190Y-78127380D01*
X20419047Y-78127380D01*
X19657142Y-78127380D02*
X19657142Y-77127380D01*
X19228571Y-78127380D02*
X19228571Y-77603571D01*
X19276190Y-77508333D01*
X19371428Y-77460714D01*
X19514285Y-77460714D01*
X19609523Y-77508333D01*
X19657142Y-77555952D01*
X18371428Y-78079761D02*
X18466666Y-78127380D01*
X18657142Y-78127380D01*
X18752380Y-78079761D01*
X18800000Y-77984523D01*
X18800000Y-77603571D01*
X18752380Y-77508333D01*
X18657142Y-77460714D01*
X18466666Y-77460714D01*
X18371428Y-77508333D01*
X18323809Y-77603571D01*
X18323809Y-77698809D01*
X18800000Y-77794047D01*
X17942857Y-78079761D02*
X17847619Y-78127380D01*
X17657142Y-78127380D01*
X17561904Y-78079761D01*
X17514285Y-77984523D01*
X17514285Y-77936904D01*
X17561904Y-77841666D01*
X17657142Y-77794047D01*
X17800000Y-77794047D01*
X17895238Y-77746428D01*
X17942857Y-77651190D01*
X17942857Y-77603571D01*
X17895238Y-77508333D01*
X17800000Y-77460714D01*
X17657142Y-77460714D01*
X17561904Y-77508333D01*
X17085714Y-77460714D02*
X17085714Y-78460714D01*
X17085714Y-77508333D02*
X16990476Y-77460714D01*
X16800000Y-77460714D01*
X16704761Y-77508333D01*
X16657142Y-77555952D01*
X16609523Y-77651190D01*
X16609523Y-77936904D01*
X16657142Y-78032142D01*
X16704761Y-78079761D01*
X16800000Y-78127380D01*
X16990476Y-78127380D01*
X17085714Y-78079761D01*
X21804760Y-55400000D02*
X21899999Y-55352380D01*
X22042856Y-55352380D01*
X22185713Y-55400000D01*
X22280951Y-55495238D01*
X22328570Y-55590476D01*
X22376189Y-55780952D01*
X22376189Y-55923809D01*
X22328570Y-56114285D01*
X22280951Y-56209523D01*
X22185713Y-56304761D01*
X22042856Y-56352380D01*
X21947618Y-56352380D01*
X21804760Y-56304761D01*
X21757141Y-56257142D01*
X21757141Y-55923809D01*
X21947618Y-55923809D01*
X21328570Y-56352380D02*
X21328570Y-55352380D01*
X20947618Y-55352380D01*
X20852380Y-55400000D01*
X20804760Y-55447619D01*
X20757141Y-55542857D01*
X20757141Y-55685714D01*
X20804760Y-55780952D01*
X20852380Y-55828571D01*
X20947618Y-55876190D01*
X21328570Y-55876190D01*
X20328570Y-56352380D02*
X20328570Y-55352380D01*
X19661903Y-55352380D02*
X19471427Y-55352380D01*
X19376189Y-55400000D01*
X19280951Y-55495238D01*
X19233332Y-55685714D01*
X19233332Y-56019047D01*
X19280951Y-56209523D01*
X19376189Y-56304761D01*
X19471427Y-56352380D01*
X19661903Y-56352380D01*
X19757141Y-56304761D01*
X19852380Y-56209523D01*
X19899999Y-56019047D01*
X19899999Y-55685714D01*
X19852380Y-55495238D01*
X19757141Y-55400000D01*
X19661903Y-55352380D01*
X18280951Y-56352380D02*
X18852380Y-56352380D01*
X18566665Y-56352380D02*
X18566665Y-55352380D01*
X18661903Y-55495238D01*
X18757141Y-55590476D01*
X18852380Y-55638095D01*
X17661903Y-55352380D02*
X17566665Y-55352380D01*
X17471427Y-55400000D01*
X17423808Y-55447619D01*
X17376189Y-55542857D01*
X17328570Y-55733333D01*
X17328570Y-55971428D01*
X17376189Y-56161904D01*
X17423808Y-56257142D01*
X17471427Y-56304761D01*
X17566665Y-56352380D01*
X17661903Y-56352380D01*
X17757141Y-56304761D01*
X17804760Y-56257142D01*
X17852380Y-56161904D01*
X17899999Y-55971428D01*
X17899999Y-55733333D01*
X17852380Y-55542857D01*
X17804760Y-55447619D01*
X17757141Y-55400000D01*
X17661903Y-55352380D01*
X21804760Y-63000000D02*
X21899999Y-62952380D01*
X22042856Y-62952380D01*
X22185713Y-63000000D01*
X22280951Y-63095238D01*
X22328570Y-63190476D01*
X22376189Y-63380952D01*
X22376189Y-63523809D01*
X22328570Y-63714285D01*
X22280951Y-63809523D01*
X22185713Y-63904761D01*
X22042856Y-63952380D01*
X21947618Y-63952380D01*
X21804760Y-63904761D01*
X21757141Y-63857142D01*
X21757141Y-63523809D01*
X21947618Y-63523809D01*
X21328570Y-63952380D02*
X21328570Y-62952380D01*
X20947618Y-62952380D01*
X20852380Y-63000000D01*
X20804760Y-63047619D01*
X20757141Y-63142857D01*
X20757141Y-63285714D01*
X20804760Y-63380952D01*
X20852380Y-63428571D01*
X20947618Y-63476190D01*
X21328570Y-63476190D01*
X20328570Y-63952380D02*
X20328570Y-62952380D01*
X19661903Y-62952380D02*
X19471427Y-62952380D01*
X19376189Y-63000000D01*
X19280951Y-63095238D01*
X19233332Y-63285714D01*
X19233332Y-63619047D01*
X19280951Y-63809523D01*
X19376189Y-63904761D01*
X19471427Y-63952380D01*
X19661903Y-63952380D01*
X19757141Y-63904761D01*
X19852380Y-63809523D01*
X19899999Y-63619047D01*
X19899999Y-63285714D01*
X19852380Y-63095238D01*
X19757141Y-63000000D01*
X19661903Y-62952380D01*
X18852380Y-63047619D02*
X18804760Y-63000000D01*
X18709522Y-62952380D01*
X18471427Y-62952380D01*
X18376189Y-63000000D01*
X18328570Y-63047619D01*
X18280951Y-63142857D01*
X18280951Y-63238095D01*
X18328570Y-63380952D01*
X18899999Y-63952380D01*
X18280951Y-63952380D01*
X17328570Y-63952380D02*
X17899999Y-63952380D01*
X17614284Y-63952380D02*
X17614284Y-62952380D01*
X17709522Y-63095238D01*
X17804760Y-63190476D01*
X17899999Y-63238095D01*
X19757142Y-67952380D02*
X19138094Y-67952380D01*
X19471427Y-68333333D01*
X19328570Y-68333333D01*
X19233332Y-68380952D01*
X19185713Y-68428571D01*
X19138094Y-68523809D01*
X19138094Y-68761904D01*
X19185713Y-68857142D01*
X19233332Y-68904761D01*
X19328570Y-68952380D01*
X19614285Y-68952380D01*
X19709523Y-68904761D01*
X19757142Y-68857142D01*
X18852380Y-67952380D02*
X18519047Y-68952380D01*
X18185713Y-67952380D01*
X17947618Y-67952380D02*
X17328570Y-67952380D01*
X17661904Y-68333333D01*
X17519047Y-68333333D01*
X17423808Y-68380952D01*
X17376189Y-68428571D01*
X17328570Y-68523809D01*
X17328570Y-68761904D01*
X17376189Y-68857142D01*
X17423808Y-68904761D01*
X17519047Y-68952380D01*
X17804761Y-68952380D01*
X17899999Y-68904761D01*
X17947618Y-68857142D01*
X24777380Y-53902380D02*
X25110714Y-53426190D01*
X25348809Y-53902380D02*
X25348809Y-52902380D01*
X24967857Y-52902380D01*
X24872619Y-52950000D01*
X24825000Y-52997619D01*
X24777380Y-53092857D01*
X24777380Y-53235714D01*
X24825000Y-53330952D01*
X24872619Y-53378571D01*
X24967857Y-53426190D01*
X25348809Y-53426190D01*
X23825000Y-52950000D02*
X23920238Y-52902380D01*
X24063095Y-52902380D01*
X24205952Y-52950000D01*
X24301190Y-53045238D01*
X24348809Y-53140476D01*
X24396428Y-53330952D01*
X24396428Y-53473809D01*
X24348809Y-53664285D01*
X24301190Y-53759523D01*
X24205952Y-53854761D01*
X24063095Y-53902380D01*
X23967857Y-53902380D01*
X23825000Y-53854761D01*
X23777380Y-53807142D01*
X23777380Y-53473809D01*
X23967857Y-53473809D01*
X23015476Y-53378571D02*
X22872619Y-53426190D01*
X22825000Y-53473809D01*
X22777380Y-53569047D01*
X22777380Y-53711904D01*
X22825000Y-53807142D01*
X22872619Y-53854761D01*
X22967857Y-53902380D01*
X23348809Y-53902380D01*
X23348809Y-52902380D01*
X23015476Y-52902380D01*
X22920238Y-52950000D01*
X22872619Y-52997619D01*
X22825000Y-53092857D01*
X22825000Y-53188095D01*
X22872619Y-53283333D01*
X22920238Y-53330952D01*
X23015476Y-53378571D01*
X23348809Y-53378571D01*
X21634523Y-52854761D02*
X22491666Y-54140476D01*
X20777380Y-52950000D02*
X20872619Y-52902380D01*
X21015476Y-52902380D01*
X21158333Y-52950000D01*
X21253571Y-53045238D01*
X21301190Y-53140476D01*
X21348809Y-53330952D01*
X21348809Y-53473809D01*
X21301190Y-53664285D01*
X21253571Y-53759523D01*
X21158333Y-53854761D01*
X21015476Y-53902380D01*
X20920238Y-53902380D01*
X20777380Y-53854761D01*
X20729761Y-53807142D01*
X20729761Y-53473809D01*
X20920238Y-53473809D01*
X20301190Y-53902380D02*
X20301190Y-52902380D01*
X19920238Y-52902380D01*
X19825000Y-52950000D01*
X19777380Y-52997619D01*
X19729761Y-53092857D01*
X19729761Y-53235714D01*
X19777380Y-53330952D01*
X19825000Y-53378571D01*
X19920238Y-53426190D01*
X20301190Y-53426190D01*
X19301190Y-53902380D02*
X19301190Y-52902380D01*
X18634523Y-52902380D02*
X18444047Y-52902380D01*
X18348809Y-52950000D01*
X18253571Y-53045238D01*
X18205952Y-53235714D01*
X18205952Y-53569047D01*
X18253571Y-53759523D01*
X18348809Y-53854761D01*
X18444047Y-53902380D01*
X18634523Y-53902380D01*
X18729761Y-53854761D01*
X18825000Y-53759523D01*
X18872619Y-53569047D01*
X18872619Y-53235714D01*
X18825000Y-53045238D01*
X18729761Y-52950000D01*
X18634523Y-52902380D01*
X17634523Y-53330952D02*
X17729761Y-53283333D01*
X17777380Y-53235714D01*
X17825000Y-53140476D01*
X17825000Y-53092857D01*
X17777380Y-52997619D01*
X17729761Y-52950000D01*
X17634523Y-52902380D01*
X17444047Y-52902380D01*
X17348809Y-52950000D01*
X17301190Y-52997619D01*
X17253571Y-53092857D01*
X17253571Y-53140476D01*
X17301190Y-53235714D01*
X17348809Y-53283333D01*
X17444047Y-53330952D01*
X17634523Y-53330952D01*
X17729761Y-53378571D01*
X17777380Y-53426190D01*
X17825000Y-53521428D01*
X17825000Y-53711904D01*
X17777380Y-53807142D01*
X17729761Y-53854761D01*
X17634523Y-53902380D01*
X17444047Y-53902380D01*
X17348809Y-53854761D01*
X17301190Y-53807142D01*
X17253571Y-53711904D01*
X17253571Y-53521428D01*
X17301190Y-53426190D01*
X17348809Y-53378571D01*
X17444047Y-53330952D01*
X24729761Y-38602380D02*
X25205952Y-38602380D01*
X25205952Y-37602380D01*
X24396428Y-38078571D02*
X24063095Y-38078571D01*
X23920238Y-38602380D02*
X24396428Y-38602380D01*
X24396428Y-37602380D01*
X23920238Y-37602380D01*
X23491666Y-38602380D02*
X23491666Y-37602380D01*
X23253571Y-37602380D01*
X23110714Y-37650000D01*
X23015476Y-37745238D01*
X22967857Y-37840476D01*
X22920238Y-38030952D01*
X22920238Y-38173809D01*
X22967857Y-38364285D01*
X23015476Y-38459523D01*
X23110714Y-38554761D01*
X23253571Y-38602380D01*
X23491666Y-38602380D01*
X21777380Y-37554761D02*
X22634523Y-38840476D01*
X20920238Y-37650000D02*
X21015476Y-37602380D01*
X21158333Y-37602380D01*
X21301190Y-37650000D01*
X21396428Y-37745238D01*
X21444047Y-37840476D01*
X21491666Y-38030952D01*
X21491666Y-38173809D01*
X21444047Y-38364285D01*
X21396428Y-38459523D01*
X21301190Y-38554761D01*
X21158333Y-38602380D01*
X21063095Y-38602380D01*
X20920238Y-38554761D01*
X20872619Y-38507142D01*
X20872619Y-38173809D01*
X21063095Y-38173809D01*
X20444047Y-38602380D02*
X20444047Y-37602380D01*
X20063095Y-37602380D01*
X19967857Y-37650000D01*
X19920238Y-37697619D01*
X19872619Y-37792857D01*
X19872619Y-37935714D01*
X19920238Y-38030952D01*
X19967857Y-38078571D01*
X20063095Y-38126190D01*
X20444047Y-38126190D01*
X19444047Y-38602380D02*
X19444047Y-37602380D01*
X18777380Y-37602380D02*
X18586904Y-37602380D01*
X18491666Y-37650000D01*
X18396428Y-37745238D01*
X18348809Y-37935714D01*
X18348809Y-38269047D01*
X18396428Y-38459523D01*
X18491666Y-38554761D01*
X18586904Y-38602380D01*
X18777380Y-38602380D01*
X18872619Y-38554761D01*
X18967857Y-38459523D01*
X19015476Y-38269047D01*
X19015476Y-37935714D01*
X18967857Y-37745238D01*
X18872619Y-37650000D01*
X18777380Y-37602380D01*
X17967857Y-37697619D02*
X17920238Y-37650000D01*
X17825000Y-37602380D01*
X17586904Y-37602380D01*
X17491666Y-37650000D01*
X17444047Y-37697619D01*
X17396428Y-37792857D01*
X17396428Y-37888095D01*
X17444047Y-38030952D01*
X18015476Y-38602380D01*
X17396428Y-38602380D01*
X20852380Y-44900000D02*
X20947618Y-44852380D01*
X21090475Y-44852380D01*
X21233332Y-44900000D01*
X21328570Y-44995238D01*
X21376190Y-45090476D01*
X21423809Y-45280952D01*
X21423809Y-45423809D01*
X21376190Y-45614285D01*
X21328570Y-45709523D01*
X21233332Y-45804761D01*
X21090475Y-45852380D01*
X20995237Y-45852380D01*
X20852380Y-45804761D01*
X20804761Y-45757142D01*
X20804761Y-45423809D01*
X20995237Y-45423809D01*
X20376190Y-45852380D02*
X20376190Y-44852380D01*
X19995237Y-44852380D01*
X19899999Y-44900000D01*
X19852380Y-44947619D01*
X19804761Y-45042857D01*
X19804761Y-45185714D01*
X19852380Y-45280952D01*
X19899999Y-45328571D01*
X19995237Y-45376190D01*
X20376190Y-45376190D01*
X19376190Y-45852380D02*
X19376190Y-44852380D01*
X18709523Y-44852380D02*
X18519047Y-44852380D01*
X18423809Y-44900000D01*
X18328570Y-44995238D01*
X18280951Y-45185714D01*
X18280951Y-45519047D01*
X18328570Y-45709523D01*
X18423809Y-45804761D01*
X18519047Y-45852380D01*
X18709523Y-45852380D01*
X18804761Y-45804761D01*
X18899999Y-45709523D01*
X18947618Y-45519047D01*
X18947618Y-45185714D01*
X18899999Y-44995238D01*
X18804761Y-44900000D01*
X18709523Y-44852380D01*
X17376190Y-44852380D02*
X17852380Y-44852380D01*
X17899999Y-45328571D01*
X17852380Y-45280952D01*
X17757142Y-45233333D01*
X17519047Y-45233333D01*
X17423809Y-45280952D01*
X17376190Y-45328571D01*
X17328570Y-45423809D01*
X17328570Y-45661904D01*
X17376190Y-45757142D01*
X17423809Y-45804761D01*
X17519047Y-45852380D01*
X17757142Y-45852380D01*
X17852380Y-45804761D01*
X17899999Y-45757142D01*
X20423808Y-58228571D02*
X20280951Y-58276190D01*
X20233332Y-58323809D01*
X20185713Y-58419047D01*
X20185713Y-58561904D01*
X20233332Y-58657142D01*
X20280951Y-58704761D01*
X20376189Y-58752380D01*
X20757142Y-58752380D01*
X20757142Y-57752380D01*
X20423808Y-57752380D01*
X20328570Y-57800000D01*
X20280951Y-57847619D01*
X20233332Y-57942857D01*
X20233332Y-58038095D01*
X20280951Y-58133333D01*
X20328570Y-58180952D01*
X20423808Y-58228571D01*
X20757142Y-58228571D01*
X19566666Y-57752380D02*
X19376189Y-57752380D01*
X19280951Y-57800000D01*
X19185713Y-57895238D01*
X19138094Y-58085714D01*
X19138094Y-58419047D01*
X19185713Y-58609523D01*
X19280951Y-58704761D01*
X19376189Y-58752380D01*
X19566666Y-58752380D01*
X19661904Y-58704761D01*
X19757142Y-58609523D01*
X19804761Y-58419047D01*
X19804761Y-58085714D01*
X19757142Y-57895238D01*
X19661904Y-57800000D01*
X19566666Y-57752380D01*
X18519046Y-57752380D02*
X18328570Y-57752380D01*
X18233332Y-57800000D01*
X18138094Y-57895238D01*
X18090475Y-58085714D01*
X18090475Y-58419047D01*
X18138094Y-58609523D01*
X18233332Y-58704761D01*
X18328570Y-58752380D01*
X18519046Y-58752380D01*
X18614285Y-58704761D01*
X18709523Y-58609523D01*
X18757142Y-58419047D01*
X18757142Y-58085714D01*
X18709523Y-57895238D01*
X18614285Y-57800000D01*
X18519046Y-57752380D01*
X17804761Y-57752380D02*
X17233332Y-57752380D01*
X17519046Y-58752380D02*
X17519046Y-57752380D01*
X20852380Y-42500000D02*
X20947618Y-42452380D01*
X21090475Y-42452380D01*
X21233332Y-42500000D01*
X21328570Y-42595238D01*
X21376190Y-42690476D01*
X21423809Y-42880952D01*
X21423809Y-43023809D01*
X21376190Y-43214285D01*
X21328570Y-43309523D01*
X21233332Y-43404761D01*
X21090475Y-43452380D01*
X20995237Y-43452380D01*
X20852380Y-43404761D01*
X20804761Y-43357142D01*
X20804761Y-43023809D01*
X20995237Y-43023809D01*
X20376190Y-43452380D02*
X20376190Y-42452380D01*
X19995237Y-42452380D01*
X19899999Y-42500000D01*
X19852380Y-42547619D01*
X19804761Y-42642857D01*
X19804761Y-42785714D01*
X19852380Y-42880952D01*
X19899999Y-42928571D01*
X19995237Y-42976190D01*
X20376190Y-42976190D01*
X19376190Y-43452380D02*
X19376190Y-42452380D01*
X18709523Y-42452380D02*
X18519047Y-42452380D01*
X18423809Y-42500000D01*
X18328570Y-42595238D01*
X18280951Y-42785714D01*
X18280951Y-43119047D01*
X18328570Y-43309523D01*
X18423809Y-43404761D01*
X18519047Y-43452380D01*
X18709523Y-43452380D01*
X18804761Y-43404761D01*
X18899999Y-43309523D01*
X18947618Y-43119047D01*
X18947618Y-42785714D01*
X18899999Y-42595238D01*
X18804761Y-42500000D01*
X18709523Y-42452380D01*
X17423809Y-42785714D02*
X17423809Y-43452380D01*
X17661904Y-42404761D02*
X17899999Y-43119047D01*
X17280951Y-43119047D01*
X19423808Y-73100000D02*
X19519046Y-73052380D01*
X19661904Y-73052380D01*
X19804761Y-73100000D01*
X19899999Y-73195238D01*
X19947618Y-73290476D01*
X19995237Y-73480952D01*
X19995237Y-73623809D01*
X19947618Y-73814285D01*
X19899999Y-73909523D01*
X19804761Y-74004761D01*
X19661904Y-74052380D01*
X19566665Y-74052380D01*
X19423808Y-74004761D01*
X19376189Y-73957142D01*
X19376189Y-73623809D01*
X19566665Y-73623809D01*
X18947618Y-74052380D02*
X18947618Y-73052380D01*
X18376189Y-74052380D01*
X18376189Y-73052380D01*
X17899999Y-74052380D02*
X17899999Y-73052380D01*
X17661904Y-73052380D01*
X17519046Y-73100000D01*
X17423808Y-73195238D01*
X17376189Y-73290476D01*
X17328570Y-73480952D01*
X17328570Y-73623809D01*
X17376189Y-73814285D01*
X17423808Y-73909523D01*
X17519046Y-74004761D01*
X17661904Y-74052380D01*
X17899999Y-74052380D01*
X20852380Y-50200000D02*
X20947618Y-50152380D01*
X21090475Y-50152380D01*
X21233332Y-50200000D01*
X21328570Y-50295238D01*
X21376190Y-50390476D01*
X21423809Y-50580952D01*
X21423809Y-50723809D01*
X21376190Y-50914285D01*
X21328570Y-51009523D01*
X21233332Y-51104761D01*
X21090475Y-51152380D01*
X20995237Y-51152380D01*
X20852380Y-51104761D01*
X20804761Y-51057142D01*
X20804761Y-50723809D01*
X20995237Y-50723809D01*
X20376190Y-51152380D02*
X20376190Y-50152380D01*
X19995237Y-50152380D01*
X19899999Y-50200000D01*
X19852380Y-50247619D01*
X19804761Y-50342857D01*
X19804761Y-50485714D01*
X19852380Y-50580952D01*
X19899999Y-50628571D01*
X19995237Y-50676190D01*
X20376190Y-50676190D01*
X19376190Y-51152380D02*
X19376190Y-50152380D01*
X18709523Y-50152380D02*
X18519047Y-50152380D01*
X18423809Y-50200000D01*
X18328570Y-50295238D01*
X18280951Y-50485714D01*
X18280951Y-50819047D01*
X18328570Y-51009523D01*
X18423809Y-51104761D01*
X18519047Y-51152380D01*
X18709523Y-51152380D01*
X18804761Y-51104761D01*
X18899999Y-51009523D01*
X18947618Y-50819047D01*
X18947618Y-50485714D01*
X18899999Y-50295238D01*
X18804761Y-50200000D01*
X18709523Y-50152380D01*
X17947618Y-50152380D02*
X17280951Y-50152380D01*
X17709523Y-51152380D01*
X41172619Y-44378571D02*
X40839286Y-44378571D01*
X40696428Y-44902380D02*
X41172619Y-44902380D01*
X41172619Y-43902380D01*
X40696428Y-43902380D01*
X40315476Y-44854761D02*
X40172619Y-44902380D01*
X39934524Y-44902380D01*
X39839286Y-44854761D01*
X39791667Y-44807142D01*
X39744047Y-44711904D01*
X39744047Y-44616666D01*
X39791667Y-44521428D01*
X39839286Y-44473809D01*
X39934524Y-44426190D01*
X40125000Y-44378571D01*
X40220238Y-44330952D01*
X40267857Y-44283333D01*
X40315476Y-44188095D01*
X40315476Y-44092857D01*
X40267857Y-43997619D01*
X40220238Y-43950000D01*
X40125000Y-43902380D01*
X39886905Y-43902380D01*
X39744047Y-43950000D01*
X39315476Y-44902380D02*
X39315476Y-43902380D01*
X38934524Y-43902380D01*
X38839286Y-43950000D01*
X38791667Y-43997619D01*
X38744047Y-44092857D01*
X38744047Y-44235714D01*
X38791667Y-44330952D01*
X38839286Y-44378571D01*
X38934524Y-44426190D01*
X39315476Y-44426190D01*
X38410714Y-43902380D02*
X37791667Y-43902380D01*
X38125000Y-44283333D01*
X37982143Y-44283333D01*
X37886905Y-44330952D01*
X37839286Y-44378571D01*
X37791667Y-44473809D01*
X37791667Y-44711904D01*
X37839286Y-44807142D01*
X37886905Y-44854761D01*
X37982143Y-44902380D01*
X38267857Y-44902380D01*
X38363095Y-44854761D01*
X38410714Y-44807142D01*
X37410714Y-43997619D02*
X37363095Y-43950000D01*
X37267857Y-43902380D01*
X37029762Y-43902380D01*
X36934524Y-43950000D01*
X36886905Y-43997619D01*
X36839286Y-44092857D01*
X36839286Y-44188095D01*
X36886905Y-44330952D01*
X37458333Y-44902380D01*
X36839286Y-44902380D01*
X36410714Y-44521428D02*
X35648809Y-44521428D01*
X34601190Y-44807142D02*
X34648809Y-44854761D01*
X34791667Y-44902380D01*
X34886905Y-44902380D01*
X35029762Y-44854761D01*
X35125000Y-44759523D01*
X35172619Y-44664285D01*
X35220238Y-44473809D01*
X35220238Y-44330952D01*
X35172619Y-44140476D01*
X35125000Y-44045238D01*
X35029762Y-43950000D01*
X34886905Y-43902380D01*
X34791667Y-43902380D01*
X34648809Y-43950000D01*
X34601190Y-43997619D01*
X34267857Y-43902380D02*
X33648809Y-43902380D01*
X33982143Y-44283333D01*
X33839286Y-44283333D01*
X33744047Y-44330952D01*
X33696428Y-44378571D01*
X33648809Y-44473809D01*
X33648809Y-44711904D01*
X33696428Y-44807142D01*
X33744047Y-44854761D01*
X33839286Y-44902380D01*
X34125000Y-44902380D01*
X34220238Y-44854761D01*
X34267857Y-44807142D01*
X31886905Y-44902380D02*
X32220238Y-44426190D01*
X32458333Y-44902380D02*
X32458333Y-43902380D01*
X32077381Y-43902380D01*
X31982143Y-43950000D01*
X31934524Y-43997619D01*
X31886905Y-44092857D01*
X31886905Y-44235714D01*
X31934524Y-44330952D01*
X31982143Y-44378571D01*
X32077381Y-44426190D01*
X32458333Y-44426190D01*
X31458333Y-44902380D02*
X31458333Y-43902380D01*
X31029762Y-44854761D02*
X30886905Y-44902380D01*
X30648809Y-44902380D01*
X30553571Y-44854761D01*
X30505952Y-44807142D01*
X30458333Y-44711904D01*
X30458333Y-44616666D01*
X30505952Y-44521428D01*
X30553571Y-44473809D01*
X30648809Y-44426190D01*
X30839286Y-44378571D01*
X30934524Y-44330952D01*
X30982143Y-44283333D01*
X31029762Y-44188095D01*
X31029762Y-44092857D01*
X30982143Y-43997619D01*
X30934524Y-43950000D01*
X30839286Y-43902380D01*
X30601190Y-43902380D01*
X30458333Y-43950000D01*
X29458333Y-44807142D02*
X29505952Y-44854761D01*
X29648809Y-44902380D01*
X29744047Y-44902380D01*
X29886905Y-44854761D01*
X29982143Y-44759523D01*
X30029762Y-44664285D01*
X30077381Y-44473809D01*
X30077381Y-44330952D01*
X30029762Y-44140476D01*
X29982143Y-44045238D01*
X29886905Y-43950000D01*
X29744047Y-43902380D01*
X29648809Y-43902380D01*
X29505952Y-43950000D01*
X29458333Y-43997619D01*
X29029762Y-44521428D02*
X28267857Y-44521428D01*
X27934524Y-43902380D02*
X27601190Y-44902380D01*
X27267857Y-43902380D01*
X20852380Y-40000000D02*
X20947618Y-39952380D01*
X21090475Y-39952380D01*
X21233332Y-40000000D01*
X21328570Y-40095238D01*
X21376190Y-40190476D01*
X21423809Y-40380952D01*
X21423809Y-40523809D01*
X21376190Y-40714285D01*
X21328570Y-40809523D01*
X21233332Y-40904761D01*
X21090475Y-40952380D01*
X20995237Y-40952380D01*
X20852380Y-40904761D01*
X20804761Y-40857142D01*
X20804761Y-40523809D01*
X20995237Y-40523809D01*
X20376190Y-40952380D02*
X20376190Y-39952380D01*
X19995237Y-39952380D01*
X19899999Y-40000000D01*
X19852380Y-40047619D01*
X19804761Y-40142857D01*
X19804761Y-40285714D01*
X19852380Y-40380952D01*
X19899999Y-40428571D01*
X19995237Y-40476190D01*
X20376190Y-40476190D01*
X19376190Y-40952380D02*
X19376190Y-39952380D01*
X18709523Y-39952380D02*
X18519047Y-39952380D01*
X18423809Y-40000000D01*
X18328570Y-40095238D01*
X18280951Y-40285714D01*
X18280951Y-40619047D01*
X18328570Y-40809523D01*
X18423809Y-40904761D01*
X18519047Y-40952380D01*
X18709523Y-40952380D01*
X18804761Y-40904761D01*
X18899999Y-40809523D01*
X18947618Y-40619047D01*
X18947618Y-40285714D01*
X18899999Y-40095238D01*
X18804761Y-40000000D01*
X18709523Y-39952380D01*
X17947618Y-39952380D02*
X17328570Y-39952380D01*
X17661904Y-40333333D01*
X17519047Y-40333333D01*
X17423809Y-40380952D01*
X17376190Y-40428571D01*
X17328570Y-40523809D01*
X17328570Y-40761904D01*
X17376190Y-40857142D01*
X17423809Y-40904761D01*
X17519047Y-40952380D01*
X17804761Y-40952380D01*
X17899999Y-40904761D01*
X17947618Y-40857142D01*
X20852380Y-35852380D02*
X21185714Y-35376190D01*
X21423809Y-35852380D02*
X21423809Y-34852380D01*
X21042857Y-34852380D01*
X20947619Y-34900000D01*
X20900000Y-34947619D01*
X20852380Y-35042857D01*
X20852380Y-35185714D01*
X20900000Y-35280952D01*
X20947619Y-35328571D01*
X21042857Y-35376190D01*
X21423809Y-35376190D01*
X20423809Y-35328571D02*
X20090476Y-35328571D01*
X19947619Y-35852380D02*
X20423809Y-35852380D01*
X20423809Y-34852380D01*
X19947619Y-34852380D01*
X19566666Y-35804761D02*
X19423809Y-35852380D01*
X19185714Y-35852380D01*
X19090476Y-35804761D01*
X19042857Y-35757142D01*
X18995238Y-35661904D01*
X18995238Y-35566666D01*
X19042857Y-35471428D01*
X19090476Y-35423809D01*
X19185714Y-35376190D01*
X19376190Y-35328571D01*
X19471428Y-35280952D01*
X19519047Y-35233333D01*
X19566666Y-35138095D01*
X19566666Y-35042857D01*
X19519047Y-34947619D01*
X19471428Y-34900000D01*
X19376190Y-34852380D01*
X19138095Y-34852380D01*
X18995238Y-34900000D01*
X18566666Y-35328571D02*
X18233333Y-35328571D01*
X18090476Y-35852380D02*
X18566666Y-35852380D01*
X18566666Y-34852380D01*
X18090476Y-34852380D01*
X17804761Y-34852380D02*
X17233333Y-34852380D01*
X17519047Y-35852380D02*
X17519047Y-34852380D01*
X21804760Y-60400000D02*
X21899999Y-60352380D01*
X22042856Y-60352380D01*
X22185713Y-60400000D01*
X22280951Y-60495238D01*
X22328570Y-60590476D01*
X22376189Y-60780952D01*
X22376189Y-60923809D01*
X22328570Y-61114285D01*
X22280951Y-61209523D01*
X22185713Y-61304761D01*
X22042856Y-61352380D01*
X21947618Y-61352380D01*
X21804760Y-61304761D01*
X21757141Y-61257142D01*
X21757141Y-60923809D01*
X21947618Y-60923809D01*
X21328570Y-61352380D02*
X21328570Y-60352380D01*
X20947618Y-60352380D01*
X20852380Y-60400000D01*
X20804760Y-60447619D01*
X20757141Y-60542857D01*
X20757141Y-60685714D01*
X20804760Y-60780952D01*
X20852380Y-60828571D01*
X20947618Y-60876190D01*
X21328570Y-60876190D01*
X20328570Y-61352380D02*
X20328570Y-60352380D01*
X19661903Y-60352380D02*
X19471427Y-60352380D01*
X19376189Y-60400000D01*
X19280951Y-60495238D01*
X19233332Y-60685714D01*
X19233332Y-61019047D01*
X19280951Y-61209523D01*
X19376189Y-61304761D01*
X19471427Y-61352380D01*
X19661903Y-61352380D01*
X19757141Y-61304761D01*
X19852380Y-61209523D01*
X19899999Y-61019047D01*
X19899999Y-60685714D01*
X19852380Y-60495238D01*
X19757141Y-60400000D01*
X19661903Y-60352380D01*
X18852380Y-60447619D02*
X18804760Y-60400000D01*
X18709522Y-60352380D01*
X18471427Y-60352380D01*
X18376189Y-60400000D01*
X18328570Y-60447619D01*
X18280951Y-60542857D01*
X18280951Y-60638095D01*
X18328570Y-60780952D01*
X18899999Y-61352380D01*
X18280951Y-61352380D01*
X17661903Y-60352380D02*
X17566665Y-60352380D01*
X17471427Y-60400000D01*
X17423808Y-60447619D01*
X17376189Y-60542857D01*
X17328570Y-60733333D01*
X17328570Y-60971428D01*
X17376189Y-61161904D01*
X17423808Y-61257142D01*
X17471427Y-61304761D01*
X17566665Y-61352380D01*
X17661903Y-61352380D01*
X17757141Y-61304761D01*
X17804760Y-61257142D01*
X17852380Y-61161904D01*
X17899999Y-60971428D01*
X17899999Y-60733333D01*
X17852380Y-60542857D01*
X17804760Y-60447619D01*
X17757141Y-60400000D01*
X17661903Y-60352380D01*
D11*
X40875000Y-43057142D02*
X40875000Y-40057142D01*
X39875000Y-42200000D01*
X38875000Y-40057142D01*
X38875000Y-43057142D01*
X35732142Y-43057142D02*
X36732142Y-41628571D01*
X37446428Y-43057142D02*
X37446428Y-40057142D01*
X36303571Y-40057142D01*
X36017857Y-40200000D01*
X35875000Y-40342857D01*
X35732142Y-40628571D01*
X35732142Y-41057142D01*
X35875000Y-41342857D01*
X36017857Y-41485714D01*
X36303571Y-41628571D01*
X37446428Y-41628571D01*
X34446428Y-42771428D02*
X34303571Y-42914285D01*
X34446428Y-43057142D01*
X34589285Y-42914285D01*
X34446428Y-42771428D01*
X34446428Y-43057142D01*
X30732142Y-43057142D02*
X30732142Y-40057142D01*
X29017857Y-43057142D02*
X30303571Y-41342857D01*
X29017857Y-40057142D02*
X30732142Y-41771428D01*
X27160714Y-40057142D02*
X26589285Y-40057142D01*
X26303571Y-40200000D01*
X26017857Y-40485714D01*
X25875000Y-41057142D01*
X25875000Y-42057142D01*
X26017857Y-42628571D01*
X26303571Y-42914285D01*
X26589285Y-43057142D01*
X27160714Y-43057142D01*
X27446428Y-42914285D01*
X27732142Y-42628571D01*
X27875000Y-42057142D01*
X27875000Y-41057142D01*
X27732142Y-40485714D01*
X27446428Y-40200000D01*
X27160714Y-40057142D01*
X24589285Y-43057142D02*
X24589285Y-40057142D01*
X24589285Y-41485714D02*
X22875000Y-41485714D01*
X22875000Y-43057142D02*
X22875000Y-40057142D01*
D10*
X40982142Y-47077380D02*
X40886904Y-47077380D01*
X40791666Y-47125000D01*
X40744047Y-47172619D01*
X40696428Y-47267857D01*
X40648809Y-47458333D01*
X40648809Y-47696428D01*
X40696428Y-47886904D01*
X40744047Y-47982142D01*
X40791666Y-48029761D01*
X40886904Y-48077380D01*
X40982142Y-48077380D01*
X41077380Y-48029761D01*
X41125000Y-47982142D01*
X41172619Y-47886904D01*
X41220238Y-47696428D01*
X41220238Y-47458333D01*
X41172619Y-47267857D01*
X41125000Y-47172619D01*
X41077380Y-47125000D01*
X40982142Y-47077380D01*
X40267857Y-47172619D02*
X40220238Y-47125000D01*
X40125000Y-47077380D01*
X39886904Y-47077380D01*
X39791666Y-47125000D01*
X39744047Y-47172619D01*
X39696428Y-47267857D01*
X39696428Y-47363095D01*
X39744047Y-47505952D01*
X40315476Y-48077380D01*
X39696428Y-48077380D01*
X38553571Y-47029761D02*
X39410714Y-48315476D01*
X38267857Y-47172619D02*
X38220238Y-47125000D01*
X38125000Y-47077380D01*
X37886904Y-47077380D01*
X37791666Y-47125000D01*
X37744047Y-47172619D01*
X37696428Y-47267857D01*
X37696428Y-47363095D01*
X37744047Y-47505952D01*
X38315476Y-48077380D01*
X37696428Y-48077380D01*
X37363095Y-47077380D02*
X36744047Y-47077380D01*
X37077380Y-47458333D01*
X36934523Y-47458333D01*
X36839285Y-47505952D01*
X36791666Y-47553571D01*
X36744047Y-47648809D01*
X36744047Y-47886904D01*
X36791666Y-47982142D01*
X36839285Y-48029761D01*
X36934523Y-48077380D01*
X37220238Y-48077380D01*
X37315476Y-48029761D01*
X37363095Y-47982142D01*
X35601190Y-47029761D02*
X36458333Y-48315476D01*
X35315476Y-47172619D02*
X35267857Y-47125000D01*
X35172619Y-47077380D01*
X34934523Y-47077380D01*
X34839285Y-47125000D01*
X34791666Y-47172619D01*
X34744047Y-47267857D01*
X34744047Y-47363095D01*
X34791666Y-47505952D01*
X35363095Y-48077380D01*
X34744047Y-48077380D01*
X34125000Y-47077380D02*
X34029761Y-47077380D01*
X33934523Y-47125000D01*
X33886904Y-47172619D01*
X33839285Y-47267857D01*
X33791666Y-47458333D01*
X33791666Y-47696428D01*
X33839285Y-47886904D01*
X33886904Y-47982142D01*
X33934523Y-48029761D01*
X34029761Y-48077380D01*
X34125000Y-48077380D01*
X34220238Y-48029761D01*
X34267857Y-47982142D01*
X34315476Y-47886904D01*
X34363095Y-47696428D01*
X34363095Y-47458333D01*
X34315476Y-47267857D01*
X34267857Y-47172619D01*
X34220238Y-47125000D01*
X34125000Y-47077380D01*
X33410714Y-47172619D02*
X33363095Y-47125000D01*
X33267857Y-47077380D01*
X33029761Y-47077380D01*
X32934523Y-47125000D01*
X32886904Y-47172619D01*
X32839285Y-47267857D01*
X32839285Y-47363095D01*
X32886904Y-47505952D01*
X33458333Y-48077380D01*
X32839285Y-48077380D01*
X32505952Y-47077380D02*
X31886904Y-47077380D01*
X32220238Y-47458333D01*
X32077380Y-47458333D01*
X31982142Y-47505952D01*
X31934523Y-47553571D01*
X31886904Y-47648809D01*
X31886904Y-47886904D01*
X31934523Y-47982142D01*
X31982142Y-48029761D01*
X32077380Y-48077380D01*
X32363095Y-48077380D01*
X32458333Y-48029761D01*
X32505952Y-47982142D01*
X30125000Y-48077380D02*
X30458333Y-47601190D01*
X30696428Y-48077380D02*
X30696428Y-47077380D01*
X30315476Y-47077380D01*
X30220238Y-47125000D01*
X30172619Y-47172619D01*
X30125000Y-47267857D01*
X30125000Y-47410714D01*
X30172619Y-47505952D01*
X30220238Y-47553571D01*
X30315476Y-47601190D01*
X30696428Y-47601190D01*
X29744047Y-47791666D02*
X29267857Y-47791666D01*
X29839285Y-48077380D02*
X29505952Y-47077380D01*
X29172619Y-48077380D01*
X28505952Y-47553571D02*
X28363095Y-47601190D01*
X28315476Y-47648809D01*
X28267857Y-47744047D01*
X28267857Y-47886904D01*
X28315476Y-47982142D01*
X28363095Y-48029761D01*
X28458333Y-48077380D01*
X28839285Y-48077380D01*
X28839285Y-47077380D01*
X28505952Y-47077380D01*
X28410714Y-47125000D01*
X28363095Y-47172619D01*
X28315476Y-47267857D01*
X28315476Y-47363095D01*
X28363095Y-47458333D01*
X28410714Y-47505952D01*
X28505952Y-47553571D01*
X28839285Y-47553571D01*
X27505952Y-47553571D02*
X27363095Y-47601190D01*
X27315476Y-47648809D01*
X27267857Y-47744047D01*
X27267857Y-47886904D01*
X27315476Y-47982142D01*
X27363095Y-48029761D01*
X27458333Y-48077380D01*
X27839285Y-48077380D01*
X27839285Y-47077380D01*
X27505952Y-47077380D01*
X27410714Y-47125000D01*
X27363095Y-47172619D01*
X27315476Y-47267857D01*
X27315476Y-47363095D01*
X27363095Y-47458333D01*
X27410714Y-47505952D01*
X27505952Y-47553571D01*
X27839285Y-47553571D01*
X26839285Y-48077380D02*
X26839285Y-47077380D01*
X26505952Y-47077380D02*
X25934523Y-47077380D01*
X26220238Y-48077380D02*
X26220238Y-47077380D01*
X19899999Y-65452380D02*
X19280952Y-65452380D01*
X19614285Y-65833333D01*
X19471428Y-65833333D01*
X19376190Y-65880952D01*
X19328571Y-65928571D01*
X19280952Y-66023809D01*
X19280952Y-66261904D01*
X19328571Y-66357142D01*
X19376190Y-66404761D01*
X19471428Y-66452380D01*
X19757142Y-66452380D01*
X19852380Y-66404761D01*
X19899999Y-66357142D01*
X18852380Y-66452380D02*
X18852380Y-65452380D01*
X18471428Y-65452380D01*
X18376190Y-65500000D01*
X18328571Y-65547619D01*
X18280952Y-65642857D01*
X18280952Y-65785714D01*
X18328571Y-65880952D01*
X18376190Y-65928571D01*
X18471428Y-65976190D01*
X18852380Y-65976190D01*
X17947618Y-65452380D02*
X17328571Y-65452380D01*
X17661904Y-65833333D01*
X17519047Y-65833333D01*
X17423809Y-65880952D01*
X17376190Y-65928571D01*
X17328571Y-66023809D01*
X17328571Y-66261904D01*
X17376190Y-66357142D01*
X17423809Y-66404761D01*
X17519047Y-66452380D01*
X17804761Y-66452380D01*
X17899999Y-66404761D01*
X17947618Y-66357142D01*
X22925000Y-71427380D02*
X23258333Y-70951190D01*
X23496428Y-71427380D02*
X23496428Y-70427380D01*
X23115476Y-70427380D01*
X23020238Y-70475000D01*
X22972619Y-70522619D01*
X22925000Y-70617857D01*
X22925000Y-70760714D01*
X22972619Y-70855952D01*
X23020238Y-70903571D01*
X23115476Y-70951190D01*
X23496428Y-70951190D01*
X21972619Y-70475000D02*
X22067857Y-70427380D01*
X22210714Y-70427380D01*
X22353571Y-70475000D01*
X22448809Y-70570238D01*
X22496428Y-70665476D01*
X22544047Y-70855952D01*
X22544047Y-70998809D01*
X22496428Y-71189285D01*
X22448809Y-71284523D01*
X22353571Y-71379761D01*
X22210714Y-71427380D01*
X22115476Y-71427380D01*
X21972619Y-71379761D01*
X21925000Y-71332142D01*
X21925000Y-70998809D01*
X22115476Y-70998809D01*
X21163095Y-70903571D02*
X21020238Y-70951190D01*
X20972619Y-70998809D01*
X20925000Y-71094047D01*
X20925000Y-71236904D01*
X20972619Y-71332142D01*
X21020238Y-71379761D01*
X21115476Y-71427380D01*
X21496428Y-71427380D01*
X21496428Y-70427380D01*
X21163095Y-70427380D01*
X21067857Y-70475000D01*
X21020238Y-70522619D01*
X20972619Y-70617857D01*
X20972619Y-70713095D01*
X21020238Y-70808333D01*
X21067857Y-70855952D01*
X21163095Y-70903571D01*
X21496428Y-70903571D01*
X19544047Y-70427380D02*
X19353571Y-70427380D01*
X19258333Y-70475000D01*
X19163095Y-70570238D01*
X19115476Y-70760714D01*
X19115476Y-71094047D01*
X19163095Y-71284523D01*
X19258333Y-71379761D01*
X19353571Y-71427380D01*
X19544047Y-71427380D01*
X19639285Y-71379761D01*
X19734523Y-71284523D01*
X19782142Y-71094047D01*
X19782142Y-70760714D01*
X19734523Y-70570238D01*
X19639285Y-70475000D01*
X19544047Y-70427380D01*
X18686904Y-70427380D02*
X18686904Y-71236904D01*
X18639285Y-71332142D01*
X18591666Y-71379761D01*
X18496428Y-71427380D01*
X18305952Y-71427380D01*
X18210714Y-71379761D01*
X18163095Y-71332142D01*
X18115476Y-71236904D01*
X18115476Y-70427380D01*
X17782142Y-70427380D02*
X17210714Y-70427380D01*
X17496428Y-71427380D02*
X17496428Y-70427380D01*
%TO.C,LOGO1*%
X33824290Y-62100070D02*
X33524570Y-62100070D01*
X31573850Y-60149350D02*
X31274130Y-60799590D01*
X38375970Y-57449330D02*
X38825550Y-58249430D01*
X32325690Y-59948690D02*
X32424750Y-60200150D01*
X31175070Y-67299450D02*
X31175070Y-66799070D01*
X36824030Y-63248150D02*
X36874830Y-62849370D01*
X34124010Y-65099810D02*
X33974150Y-65297930D01*
X37474270Y-57799850D02*
X37974650Y-57299470D01*
X34875850Y-66397750D02*
X34825050Y-66550150D01*
X34774250Y-66598410D02*
X34825050Y-66700010D01*
X33425510Y-58599950D02*
X32775270Y-58798070D01*
X31474790Y-56898150D02*
X31025210Y-56849890D01*
X31873570Y-61449830D02*
X32373950Y-62448050D01*
X36023930Y-64599430D02*
X36275390Y-64398770D01*
X35025710Y-56898150D02*
X35424490Y-57048010D01*
X36275390Y-61150110D02*
X35775010Y-60799590D01*
X31474790Y-57848110D02*
X31274130Y-58249430D01*
X32424750Y-61299970D02*
X32025970Y-61299970D01*
X34375470Y-58450090D02*
X33974150Y-58549150D01*
X36674170Y-59400050D02*
X35975670Y-58749810D01*
X35373690Y-58297690D02*
X34825050Y-58249430D01*
X40575610Y-66448550D02*
X40575610Y-66898130D01*
X33174050Y-61099310D02*
X33074990Y-61249170D01*
X32775270Y-62900170D02*
X32424750Y-63098290D01*
X33074990Y-58498350D02*
X32475550Y-58798070D01*
X36625910Y-58899670D02*
X36973890Y-59298450D01*
X38124510Y-67449310D02*
X38124510Y-65948170D01*
X40374950Y-66049770D02*
X40575610Y-66448550D01*
X35073970Y-64949950D02*
X34875850Y-65348730D01*
X36625910Y-67347710D02*
X36524310Y-67047990D01*
X31375730Y-56948950D02*
X32523810Y-57649990D01*
X35373690Y-63697730D02*
X35574350Y-64398770D01*
X32925130Y-63547870D02*
X32673670Y-63649470D01*
X37674930Y-61698750D02*
X36275390Y-61150110D01*
X38825550Y-58249430D02*
X38924610Y-58947930D01*
X32826070Y-59648970D02*
X32424750Y-59748030D01*
X33425510Y-63199890D02*
X33925890Y-63149090D01*
X37273610Y-67347710D02*
X36925630Y-67500110D01*
X32625410Y-57698250D02*
X32274890Y-57799850D01*
X39724710Y-67449310D02*
X39673910Y-66898130D01*
X33524570Y-62100070D02*
X33425510Y-61998470D01*
X32424750Y-63649470D02*
X32625410Y-63697730D01*
X33425510Y-61998470D02*
X33275650Y-61749550D01*
X32373950Y-62448050D02*
X32523810Y-62448050D01*
X29973650Y-65899910D02*
X29724730Y-66098030D01*
X31025210Y-56849890D02*
X30575630Y-57098810D01*
X34124010Y-61548890D02*
X34075750Y-61947670D01*
X33623630Y-64647690D02*
X33224850Y-64848350D01*
X32175830Y-58699010D02*
X32625410Y-58399290D01*
X39673910Y-66898130D02*
X39925370Y-66799070D01*
X35775010Y-60799590D02*
X35625150Y-59849630D01*
X34573590Y-60398270D02*
X34174810Y-60200150D01*
X37225350Y-57749050D02*
X36775770Y-57599190D01*
X34024950Y-66349490D02*
X33824290Y-66550150D01*
X35975670Y-58749810D02*
X35373690Y-58297690D01*
X34974910Y-60398270D02*
X34573590Y-60398270D01*
X30024450Y-58599950D02*
X31274130Y-57898910D01*
X34075750Y-60898650D02*
X34273870Y-60997710D01*
X28975430Y-65849110D02*
X28975430Y-67449310D01*
X33174050Y-64149850D02*
X32975930Y-64347970D01*
X32523810Y-62448050D02*
X32925130Y-62549650D01*
X37974650Y-57299470D02*
X36925630Y-57548390D01*
X32724470Y-64548630D02*
X32625410Y-64899150D01*
X38723950Y-58198630D02*
X37474270Y-57799850D01*
X36925630Y-61947670D02*
X36925630Y-61449830D01*
X32574610Y-61299970D02*
X32373950Y-61299970D01*
X33323910Y-60898650D02*
X33224850Y-61048510D01*
X33524570Y-60047750D02*
X33473770Y-60499870D01*
X37575870Y-58450090D02*
X38723950Y-58198630D01*
X32625410Y-64899150D02*
X32724470Y-65198870D01*
X37725730Y-58599950D02*
X38774750Y-59250190D01*
X35924870Y-63298950D02*
X35373690Y-63697730D01*
X32424750Y-60598930D02*
X32475550Y-61249170D01*
X38924610Y-58947930D02*
X38624890Y-59849630D01*
X34324670Y-64299710D02*
X34474530Y-64698490D01*
X36674170Y-63949190D02*
X36724970Y-63649470D01*
X32874330Y-65498590D02*
X32826070Y-65498590D01*
X35724210Y-58749810D02*
X34974910Y-58399290D01*
X31975170Y-67248650D02*
X31624650Y-67398510D01*
X32424750Y-59748030D02*
X32325690Y-59948690D01*
X34075750Y-58297690D02*
X34273870Y-58249430D01*
X29925390Y-58399290D02*
X30024450Y-58798070D01*
X35223830Y-57248670D02*
X35025710Y-56898150D01*
X35574350Y-58048770D02*
X36173790Y-58450090D01*
X40425750Y-67299450D02*
X40126030Y-67449310D01*
X36173790Y-58450090D02*
X36625910Y-58899670D01*
X31225870Y-65998970D02*
X31474790Y-65899910D01*
X31076010Y-59849630D02*
X31324930Y-58749810D01*
X31525590Y-58798070D02*
X31825310Y-58848870D01*
X34075750Y-65798310D02*
X34024950Y-66349490D01*
X40575610Y-66898130D02*
X40425750Y-67299450D01*
X31274130Y-60799590D02*
X31873570Y-60898650D01*
X34174810Y-59049530D02*
X33776030Y-58899670D01*
X31873570Y-57649990D02*
X31375730Y-56948950D01*
X35625150Y-59849630D02*
X35025710Y-59298450D01*
X33275650Y-61749550D02*
X33725230Y-61399030D01*
X36275390Y-64398770D02*
X36425250Y-64198110D01*
X32025970Y-61299970D02*
X31873570Y-61449830D01*
X33524570Y-58399290D02*
X33074990Y-58498350D01*
X37426010Y-65948170D02*
X37426010Y-67098790D01*
X33224850Y-63949190D02*
X33174050Y-64149850D01*
X34024950Y-65600190D02*
X34075750Y-65798310D01*
X32975930Y-64347970D02*
X32724470Y-64548630D01*
X35073970Y-57997970D02*
X35574350Y-58048770D01*
X34825050Y-58249430D02*
X34375470Y-58450090D01*
X31873570Y-60898650D02*
X32325690Y-60499870D01*
X31975170Y-57149610D02*
X31474790Y-56898150D01*
X33323910Y-58297690D02*
X33074990Y-58348490D01*
X34474530Y-59999490D02*
X34924110Y-59897890D01*
X36874830Y-62849370D02*
X36925630Y-62448050D01*
X32074230Y-66298690D02*
X32125030Y-66799070D01*
X30725490Y-59748030D02*
X31274130Y-60149350D01*
X32424750Y-60200150D02*
X32874330Y-60098550D01*
X34375470Y-64899150D02*
X34124010Y-65099810D01*
X37426010Y-56898150D02*
X37773990Y-57048010D01*
X32125030Y-66799070D02*
X31975170Y-67248650D01*
X34974910Y-58399290D02*
X34624390Y-58399290D01*
X33925890Y-63149090D02*
X34375470Y-62999230D01*
X36775770Y-57599190D02*
X36125530Y-57449330D01*
X33925890Y-60898650D02*
X34075750Y-60898650D01*
X36925630Y-62448050D02*
X36925630Y-61947670D01*
X33575370Y-63248150D02*
X33174050Y-63499610D01*
X37426010Y-67098790D02*
X37273610Y-67347710D01*
X33725230Y-63898390D02*
X33925890Y-64347970D01*
X36973890Y-59298450D02*
X37426010Y-59148590D01*
X32775270Y-61399030D02*
X32574610Y-61299970D01*
X34124010Y-60149350D02*
X34474530Y-59999490D01*
X32724470Y-65198870D02*
X32874330Y-65498590D01*
X31274130Y-58249430D02*
X31225870Y-58549150D01*
X33776030Y-58899670D02*
X33524570Y-58549150D01*
X30575630Y-57098810D02*
X30126050Y-57398530D01*
X34774250Y-65648450D02*
X35175570Y-65750050D01*
X37174550Y-60350010D02*
X37174550Y-60949450D01*
X29724730Y-66098030D02*
X29625670Y-66499350D01*
X34273870Y-60997710D02*
X34474530Y-61048510D01*
X33323910Y-61048510D02*
X33623630Y-60898650D01*
X33224850Y-64848350D02*
X33275650Y-65297930D01*
X32775270Y-58798070D02*
X32373950Y-58998730D01*
X34525330Y-62798570D02*
X34725990Y-62448050D01*
X32274890Y-59049530D02*
X31573850Y-60149350D01*
X32925130Y-61399030D02*
X32775270Y-61399030D01*
X37624130Y-58648210D02*
X37525070Y-57997970D01*
X36074730Y-56999750D02*
X37024690Y-56849890D01*
X30524830Y-67398510D02*
X30524830Y-65948170D01*
X38424230Y-59897890D02*
X37725730Y-58599950D01*
X32274890Y-57799850D02*
X31825310Y-57799850D01*
X35025710Y-61698750D02*
X35325430Y-61647950D01*
X38774750Y-59250190D02*
X38873810Y-58798070D01*
X32874330Y-58198630D02*
X33174050Y-58048770D01*
X38975410Y-65948170D02*
X38124510Y-67449310D01*
X37923850Y-60248410D02*
X37474270Y-59097790D01*
X31624650Y-67398510D02*
X31175070Y-67299450D01*
X36724970Y-63649470D02*
X36824030Y-63248150D01*
X31774510Y-65948170D02*
X32074230Y-66298690D01*
X36925630Y-57548390D02*
X36973890Y-56898150D01*
X33024190Y-56999750D02*
X32424750Y-57248670D01*
X36125530Y-57449330D02*
X35775010Y-57500130D01*
X37426010Y-59148590D02*
X37624130Y-58648210D01*
X37426010Y-60598930D02*
X36674170Y-59400050D01*
X34725990Y-62448050D02*
X34875850Y-61947670D01*
X33623630Y-60898650D02*
X33925890Y-60898650D01*
X36224590Y-59049530D02*
X35724210Y-58749810D01*
X32975930Y-63248150D02*
X33425510Y-63199890D01*
X33725230Y-61399030D02*
X34124010Y-61548890D01*
X35574350Y-64398770D02*
X35025710Y-64848350D01*
X35924870Y-64599430D02*
X35724210Y-64548630D01*
X30575630Y-59448310D02*
X31025210Y-58348490D01*
X29925390Y-66649210D02*
X30425770Y-66598410D01*
X34273870Y-58249430D02*
X34573590Y-58099570D01*
X32475550Y-58798070D02*
X32274890Y-59049530D01*
X32424750Y-61848610D02*
X32523810Y-61998470D01*
X36524310Y-67047990D02*
X36524310Y-65948170D01*
X38975410Y-67500110D02*
X38975410Y-65948170D01*
X33174050Y-63799330D02*
X33224850Y-63949190D01*
X32373950Y-63149090D02*
X32975930Y-63248150D01*
X32673670Y-63649470D02*
X32424750Y-63649470D01*
X33925890Y-64347970D02*
X33623630Y-64647690D01*
X32625410Y-63697730D02*
X33174050Y-63799330D01*
X36925630Y-67500110D02*
X36625910Y-67347710D01*
X35424490Y-57048010D02*
X36074730Y-56999750D01*
X32925130Y-62549650D02*
X32775270Y-62900170D01*
X30524830Y-65948170D02*
X29973650Y-65899910D01*
X32373950Y-58998730D02*
X31076010Y-59849630D01*
X34075750Y-61947670D02*
X33824290Y-62100070D01*
X31324930Y-58749810D02*
X30575630Y-59448310D01*
X31025210Y-58348490D02*
X30024450Y-58599950D01*
X36074730Y-61899410D02*
X36173790Y-62348990D01*
X33575370Y-58048770D02*
X34075750Y-58297690D01*
X34825050Y-66098030D02*
X34875850Y-66397750D01*
X33074990Y-57098810D02*
X32625410Y-57698250D01*
X34875850Y-61947670D02*
X35025710Y-61698750D01*
X37024690Y-56849890D02*
X37426010Y-56898150D01*
X33974150Y-65297930D02*
X34024950Y-65600190D01*
X35775010Y-57500130D02*
X35223830Y-57248670D01*
X31474790Y-65899910D02*
X31774510Y-65948170D01*
X30024450Y-58798070D02*
X30275910Y-59349250D01*
X33974150Y-58549150D02*
X33524570Y-58399290D01*
X29925390Y-57949710D02*
X29925390Y-58399290D01*
X30126050Y-57449330D02*
X31873570Y-57649990D01*
X33275650Y-65297930D02*
X33425510Y-65699250D01*
X30126050Y-57398530D02*
X29925390Y-57949710D01*
X38624890Y-59849630D02*
X38073710Y-60350010D01*
X40126030Y-67449310D02*
X39724710Y-67449310D01*
X30275910Y-59349250D02*
X30725490Y-59748030D01*
X37174550Y-60949450D02*
X37674930Y-61698750D01*
X36925630Y-59448310D02*
X37923850Y-60248410D01*
X36425250Y-64198110D02*
X36674170Y-63949190D01*
X31175070Y-66799070D02*
X31474790Y-66799070D01*
X35724210Y-62648710D02*
X35924870Y-63298950D01*
X34924110Y-59897890D02*
X35175570Y-60149350D01*
X29625670Y-66499350D02*
X29925390Y-66649210D01*
X34573590Y-58099570D02*
X35073970Y-57997970D01*
X36973890Y-56898150D02*
X35874070Y-57398530D01*
X31825310Y-57799850D02*
X31474790Y-57848110D01*
X37773990Y-57048010D02*
X38375970Y-57449330D01*
X38873810Y-58798070D02*
X37575870Y-58450090D01*
X35175570Y-60149350D02*
X34974910Y-60398270D01*
X34375470Y-62999230D02*
X34525330Y-62798570D01*
X28975430Y-67449310D02*
X28274390Y-67449310D01*
X33174050Y-63499610D02*
X32925130Y-63499610D01*
X39724710Y-65998970D02*
X39925370Y-65899910D01*
X32975930Y-59999490D02*
X32826070Y-59648970D01*
X35175570Y-65750050D02*
X34825050Y-66098030D01*
X33074990Y-61249170D02*
X32925130Y-61399030D01*
X31825310Y-58848870D02*
X32175830Y-58699010D01*
X34875850Y-65348730D02*
X34774250Y-65648450D01*
X34474530Y-64698490D02*
X34375470Y-64899150D01*
X36173790Y-62348990D02*
X35724210Y-62648710D01*
X31274130Y-57898910D02*
X30126050Y-57449330D01*
X37525070Y-57997970D02*
X37225350Y-57749050D01*
X33425510Y-65699250D02*
X33275650Y-65948170D01*
X31225870Y-58549150D02*
X31525590Y-58798070D01*
X33174050Y-58048770D02*
X33575370Y-58048770D01*
X37474270Y-59097790D02*
X38424230Y-59897890D01*
X32625410Y-58399290D02*
X32874330Y-58198630D01*
X33473770Y-60499870D02*
X33323910Y-60898650D01*
X39925370Y-65899910D02*
X40374950Y-66049770D01*
X36374450Y-61449830D02*
X36074730Y-61899410D01*
X38073710Y-60350010D02*
X37426010Y-60598930D01*
X32424750Y-57248670D02*
X31975170Y-57149610D01*
%TD*%
%LPC*%
D12*
%TO.C,H2*%
X14550000Y-78350000D03*
%TD*%
D13*
%TO.C,J2*%
X15500000Y-35500000D03*
D14*
X15500000Y-38040000D03*
X15500000Y-40580000D03*
X15500000Y-43120000D03*
X15500000Y-45660000D03*
X15500000Y-48200000D03*
X15500000Y-50740000D03*
X15500000Y-53280000D03*
X15500000Y-55820000D03*
X15500000Y-58360000D03*
X15500000Y-60900000D03*
X15500000Y-63440000D03*
X15500000Y-65980000D03*
X15500000Y-68520000D03*
X15500000Y-71060000D03*
X15500000Y-73600000D03*
%TD*%
D12*
%TO.C,H1*%
X41050000Y-32875000D03*
%TD*%
%TO.C,H4*%
X41050000Y-78350000D03*
%TD*%
D15*
%TO.C,J1*%
X35470000Y-73424951D03*
D16*
X28260000Y-69774951D03*
D17*
X35470000Y-69244951D03*
X26830000Y-69244951D03*
D16*
X34040000Y-69774951D03*
D15*
X26830000Y-73424951D03*
%TD*%
D12*
%TO.C,H3*%
X14550000Y-32875000D03*
%TD*%
M02*
