%TF.GenerationSoftware,KiCad,Pcbnew,(6.0.10)*%
%TF.CreationDate,2023-02-05T17:29:38-05:00*%
%TF.ProjectId,MrKoh,4d724b6f-682e-46b6-9963-61645f706362,1*%
%TF.SameCoordinates,Original*%
%TF.FileFunction,Paste,Top*%
%TF.FilePolarity,Positive*%
%FSLAX46Y46*%
G04 Gerber Fmt 4.6, Leading zero omitted, Abs format (unit mm)*
G04 Created by KiCad (PCBNEW (6.0.10)) date 2023-02-05 17:29:38*
%MOMM*%
%LPD*%
G01*
G04 APERTURE LIST*
G04 Aperture macros list*
%AMRoundRect*
0 Rectangle with rounded corners*
0 $1 Rounding radius*
0 $2 $3 $4 $5 $6 $7 $8 $9 X,Y pos of 4 corners*
0 Add a 4 corners polygon primitive as box body*
4,1,4,$2,$3,$4,$5,$6,$7,$8,$9,$2,$3,0*
0 Add four circle primitives for the rounded corners*
1,1,$1+$1,$2,$3*
1,1,$1+$1,$4,$5*
1,1,$1+$1,$6,$7*
1,1,$1+$1,$8,$9*
0 Add four rect primitives between the rounded corners*
20,1,$1+$1,$2,$3,$4,$5,0*
20,1,$1+$1,$4,$5,$6,$7,0*
20,1,$1+$1,$6,$7,$8,$9,0*
20,1,$1+$1,$8,$9,$2,$3,0*%
G04 Aperture macros list end*
%ADD10RoundRect,0.218750X-0.218750X-0.256250X0.218750X-0.256250X0.218750X0.256250X-0.218750X0.256250X0*%
%ADD11RoundRect,0.250000X-0.250000X-0.475000X0.250000X-0.475000X0.250000X0.475000X-0.250000X0.475000X0*%
%ADD12RoundRect,0.140000X-0.170000X0.140000X-0.170000X-0.140000X0.170000X-0.140000X0.170000X0.140000X0*%
%ADD13RoundRect,0.140000X0.170000X-0.140000X0.170000X0.140000X-0.170000X0.140000X-0.170000X-0.140000X0*%
%ADD14RoundRect,0.147500X0.172500X-0.147500X0.172500X0.147500X-0.172500X0.147500X-0.172500X-0.147500X0*%
%ADD15RoundRect,0.140000X-0.140000X-0.170000X0.140000X-0.170000X0.140000X0.170000X-0.140000X0.170000X0*%
%ADD16R,1.000000X1.800000*%
%ADD17RoundRect,0.135000X-0.135000X-0.185000X0.135000X-0.185000X0.135000X0.185000X-0.135000X0.185000X0*%
%ADD18RoundRect,0.135000X-0.185000X0.135000X-0.185000X-0.135000X0.185000X-0.135000X0.185000X0.135000X0*%
%ADD19RoundRect,0.140000X0.140000X0.170000X-0.140000X0.170000X-0.140000X-0.170000X0.140000X-0.170000X0*%
%ADD20RoundRect,0.225000X-0.225000X-0.250000X0.225000X-0.250000X0.225000X0.250000X-0.225000X0.250000X0*%
%ADD21RoundRect,0.232500X-0.232500X0.232500X-0.232500X-0.232500X0.232500X-0.232500X0.232500X0.232500X0*%
%ADD22RoundRect,0.062500X-0.062500X0.375000X-0.062500X-0.375000X0.062500X-0.375000X0.062500X0.375000X0*%
%ADD23RoundRect,0.062500X-0.375000X0.062500X-0.375000X-0.062500X0.375000X-0.062500X0.375000X0.062500X0*%
%ADD24RoundRect,0.200000X0.200000X0.800000X-0.200000X0.800000X-0.200000X-0.800000X0.200000X-0.800000X0*%
%ADD25R,0.600000X1.450000*%
%ADD26R,0.300000X1.450000*%
%ADD27R,1.200000X1.400000*%
%ADD28RoundRect,0.135000X0.135000X0.185000X-0.135000X0.185000X-0.135000X-0.185000X0.135000X-0.185000X0*%
%ADD29RoundRect,0.150000X0.512500X0.150000X-0.512500X0.150000X-0.512500X-0.150000X0.512500X-0.150000X0*%
%ADD30RoundRect,0.147500X-0.147500X-0.172500X0.147500X-0.172500X0.147500X0.172500X-0.147500X0.172500X0*%
%ADD31R,2.000000X1.500000*%
%ADD32R,2.000000X3.800000*%
%ADD33RoundRect,0.225000X-0.250000X0.225000X-0.250000X-0.225000X0.250000X-0.225000X0.250000X0.225000X0*%
%ADD34R,1.500000X0.900000*%
G04 APERTURE END LIST*
D10*
%TO.C,D1*%
X26662500Y-60100000D03*
X28237500Y-60100000D03*
%TD*%
D11*
%TO.C,C10*%
X31775000Y-59675000D03*
X33675000Y-59675000D03*
%TD*%
D12*
%TO.C,C19*%
X18475000Y-59420000D03*
X18475000Y-60380000D03*
%TD*%
D13*
%TO.C,C12*%
X32450000Y-40230000D03*
X32450000Y-39270000D03*
%TD*%
D14*
%TO.C,L1*%
X30500000Y-36885000D03*
X30500000Y-35915000D03*
%TD*%
D15*
%TO.C,C5*%
X25120000Y-35200000D03*
X26080000Y-35200000D03*
%TD*%
D16*
%TO.C,Y1*%
X18375000Y-36750000D03*
X20875000Y-36750000D03*
%TD*%
D15*
%TO.C,C2*%
X19920000Y-34925000D03*
X20880000Y-34925000D03*
%TD*%
D13*
%TO.C,C8*%
X35025000Y-40530000D03*
X35025000Y-39570000D03*
%TD*%
D17*
%TO.C,R1*%
X17965000Y-34900000D03*
X18985000Y-34900000D03*
%TD*%
D15*
%TO.C,C3*%
X30500000Y-37890000D03*
X31460000Y-37890000D03*
%TD*%
D18*
%TO.C,R4*%
X30075000Y-59240000D03*
X30075000Y-60260000D03*
%TD*%
D19*
%TO.C,C6*%
X23980000Y-36500000D03*
X23020000Y-36500000D03*
%TD*%
D20*
%TO.C,C11*%
X32825000Y-36600000D03*
X34375000Y-36600000D03*
%TD*%
D21*
%TO.C,U2*%
X29880000Y-42840000D03*
X27580000Y-40540000D03*
X29880000Y-40540000D03*
X28730000Y-41690000D03*
X27580000Y-41690000D03*
X28730000Y-40540000D03*
X29880000Y-41690000D03*
X28730000Y-42840000D03*
X27580000Y-42840000D03*
D22*
X30480000Y-39252500D03*
X29980000Y-39252500D03*
X29480000Y-39252500D03*
X28980000Y-39252500D03*
X28480000Y-39252500D03*
X27980000Y-39252500D03*
X27480000Y-39252500D03*
X26980000Y-39252500D03*
D23*
X26292500Y-39940000D03*
X26292500Y-40440000D03*
X26292500Y-40940000D03*
X26292500Y-41440000D03*
X26292500Y-41940000D03*
X26292500Y-42440000D03*
X26292500Y-42940000D03*
X26292500Y-43440000D03*
D22*
X26980000Y-44127500D03*
X27480000Y-44127500D03*
X27980000Y-44127500D03*
X28480000Y-44127500D03*
X28980000Y-44127500D03*
X29480000Y-44127500D03*
X29980000Y-44127500D03*
X30480000Y-44127500D03*
D23*
X31167500Y-43440000D03*
X31167500Y-42940000D03*
X31167500Y-42440000D03*
X31167500Y-41940000D03*
X31167500Y-41440000D03*
X31167500Y-40940000D03*
X31167500Y-40440000D03*
X31167500Y-39940000D03*
%TD*%
D24*
%TO.C,SW1*%
X24475000Y-74700000D03*
X20275000Y-74700000D03*
%TD*%
D13*
%TO.C,C17*%
X29400000Y-37230000D03*
X29400000Y-36270000D03*
%TD*%
D25*
%TO.C,J1*%
X27900000Y-68329951D03*
X28700000Y-68329951D03*
D26*
X29900000Y-68329951D03*
X30900000Y-68329951D03*
X31400000Y-68329951D03*
X32400000Y-68329951D03*
D25*
X33600000Y-68329951D03*
X34400000Y-68329951D03*
X34400000Y-68329951D03*
X33600000Y-68329951D03*
D26*
X32900000Y-68329951D03*
X31900000Y-68329951D03*
X30400000Y-68329951D03*
X29400000Y-68329951D03*
D25*
X28700000Y-68329951D03*
X27900000Y-68329951D03*
%TD*%
D24*
%TO.C,SW2*%
X24500000Y-69525000D03*
X20300000Y-69525000D03*
%TD*%
D27*
%TO.C,Y2*%
X36500000Y-40175000D03*
X36500000Y-42375000D03*
X38200000Y-42375000D03*
X38200000Y-40175000D03*
%TD*%
D17*
%TO.C,R5*%
X20405000Y-50675000D03*
X21425000Y-50675000D03*
%TD*%
D15*
%TO.C,C4*%
X30495000Y-34900000D03*
X31455000Y-34900000D03*
%TD*%
D28*
%TO.C,R3*%
X28985000Y-64399951D03*
X27965000Y-64399951D03*
%TD*%
D15*
%TO.C,C13*%
X18050000Y-66670000D03*
X19010000Y-66670000D03*
%TD*%
D17*
%TO.C,R2*%
X34765000Y-64399951D03*
X35785000Y-64399951D03*
%TD*%
D10*
%TO.C,D3*%
X18112500Y-41600000D03*
X19687500Y-41600000D03*
%TD*%
D29*
%TO.C,U1*%
X32962500Y-63399951D03*
X32962500Y-62449951D03*
X32962500Y-61499951D03*
X30687500Y-61499951D03*
X30687500Y-62449951D03*
X30687500Y-63399951D03*
%TD*%
D15*
%TO.C,C1*%
X32995000Y-49050000D03*
X33955000Y-49050000D03*
%TD*%
D30*
%TO.C,L2*%
X35830000Y-36400000D03*
X36800000Y-36400000D03*
%TD*%
D31*
%TO.C,U3*%
X33150000Y-57300000D03*
D32*
X26850000Y-55000000D03*
D31*
X33150000Y-55000000D03*
X33150000Y-52700000D03*
%TD*%
D20*
%TO.C,C9*%
X32200000Y-50375000D03*
X33750000Y-50375000D03*
%TD*%
D33*
%TO.C,C14*%
X27400000Y-45625000D03*
X27400000Y-47175000D03*
%TD*%
D34*
%TO.C,D2*%
X18325000Y-52375000D03*
X18325000Y-55675000D03*
X23225000Y-55675000D03*
X23225000Y-52375000D03*
%TD*%
D19*
%TO.C,C16*%
X24780000Y-40800000D03*
X23820000Y-40800000D03*
%TD*%
D17*
%TO.C,R6*%
X18890000Y-40000000D03*
X19910000Y-40000000D03*
%TD*%
D12*
%TO.C,C15*%
X26000000Y-45420000D03*
X26000000Y-46380000D03*
%TD*%
%TO.C,C7*%
X35025000Y-41470000D03*
X35025000Y-42430000D03*
%TD*%
D19*
%TO.C,C18*%
X28330000Y-36550000D03*
X27370000Y-36550000D03*
%TD*%
M02*
